<svg viewBox="0 0 64 64" xmlns="http://www.w3.org/2000/svg"><path d="m0 0h64v64h-64z" fill="#cfbb7e"/><path d="m19.78 32.04c0 6.72 5.47 12.18 12.18 12.18s12.18-5.47 12.18-12.18-5.47-12.18-12.18-12.18c-6.64-.08-12.18 5.39-12.18 12.18zm26.78-19.13c-3.9 3.12-3.9 5-3.28 6.32.31.47.39.47.7-.08 1.25-2.73 3.9-3.44 6.64-2.81 4.22.94 6.4.55 7.42-1.8.39-.7.39-.62.78.23 1.33 3.36-1.25 7.42-4.84 8.04-4.92.78-5.93 2.34-5.93 3.83 0 .62.08.62.62.23 2.34-1.72 5.15-1.09 7.26.86 3.2 2.97 5.23 3.67 7.42 2.19.62-.39.7-.31.62.55-.47 3.59-4.84 5.86-8.2 4.61-4.76-1.8-6.4-.94-7.03.31-.31.47-.23.62.39.55 2.97-.23 4.92 1.64 5.78 4.37 1.25 4.14 2.73 5.78 5.23 5.62.78-.08.78.08.23.78-2.19 2.89-7.11 2.65-9.29-.16-3.12-3.9-5-3.9-6.32-3.28-.47.31-.47.39.08.7 2.73 1.25 3.44 3.9 2.81 6.64-.94 4.22-.55 6.4 1.8 7.42.7.39.62.39-.23.78-3.36 1.33-7.42-1.25-8.04-4.84-.78-4.92-2.34-5.93-3.83-5.93-.62 0-.62.08-.23.62 1.72 2.34 1.09 5.15-.86 7.26-2.97 3.2-3.67 5.23-2.19 7.42.39.62.31.7-.55.62-3.59-.47-5.86-4.84-4.61-8.2 1.8-4.76.94-6.4-.31-7.03-.47-.31-.62-.23-.55.39.23 2.97-1.64 4.92-4.37 5.78-4.14 1.25-5.78 2.73-5.62 5.23.08.78-.08.78-.78.23-2.89-2.19-2.65-7.11.16-9.29 3.9-3.12 3.9-5 3.28-6.32-.31-.47-.39-.47-.7.08-1.25 2.73-3.9 3.44-6.64 2.81-4.22-.94-6.4-.55-7.42 1.8-.39.7-.39.62-.78-.23-1.25-3.36 1.25-7.5 4.84-8.04 4.92-.78 5.93-2.34 5.93-3.83 0-.62-.08-.62-.62-.23-2.34 1.72-5.15 1.09-7.26-.86-3.2-2.97-5.23-3.67-7.42-2.19-.62.39-.7.31-.62-.55.47-3.59 4.84-5.86 8.2-4.61 4.76 1.8 6.4.94 7.03-.31.31-.47.23-.62-.39-.55-2.97.23-4.92-1.64-5.78-4.37-1.25-4.14-2.73-5.78-5.23-5.62-.78.08-.78-.08-.23-.78 2.19-2.89 7.11-2.65 9.29.16 3.12 3.9 5 3.9 6.32 3.28.47-.31.47-.39-.08-.7-2.73-1.25-3.44-3.9-2.81-6.64.94-4.22.55-6.4-1.8-7.42-.7-.39-.62-.39.23-.78 3.36-1.33 7.42 1.25 8.04 4.84.78 4.92 2.34 5.93 3.83 5.93.62 0 .62-.08.23-.62-1.72-2.34-1.09-5.15.86-7.26 2.97-3.28 3.67-5.23 2.19-7.42-.39-.62-.31-.7.55-.62 3.67.47 5.93 4.84 4.68 8.2-1.8 4.76-.94 6.4.31 7.03.47.31.62.23.55-.39-.23-2.97 1.64-4.92 4.37-5.78 4.14-1.25 5.78-2.73 5.62-5.23-.08-.78.08-.78.78-.23 2.73 2.19 2.5 7.11-.23 9.29z" fill="#4c263f"/></svg>