<svg viewBox="0 0 310 310" xmlns="http://www.w3.org/2000/svg"><path d="m0 0h310v310h-310z" fill="#cfbb7e"/><path d="m95.81 155.19c0 32.53 26.48 59 59 59s59-26.48 59-59-26.48-59-59-59c-32.15-.38-59 26.1-59 59zm129.73-92.66c-18.91 15.13-18.91 24.21-15.89 30.64 1.51 2.27 1.89 2.27 3.4-.38 6.05-13.24 18.91-16.64 32.15-13.62 20.42 4.54 31.01 2.65 35.93-8.7 1.89-3.4 1.89-3.03 3.78 1.13 6.43 16.26-6.05 35.93-23.45 38.96-23.83 3.78-28.74 11.35-28.74 18.53 0 3.03.38 3.03 3.03 1.13 11.35-8.32 24.96-5.3 35.17 4.16 15.51 14.37 25.34 17.78 35.93 10.59 3.03-1.89 3.4-1.51 3.03 2.65-2.27 17.4-23.45 28.37-39.71 22.31-23.07-8.7-31.01-4.54-34.04 1.51-1.51 2.27-1.13 3.03 1.89 2.65 14.37-1.13 23.83 7.94 27.99 21.18 6.05 20.05 13.24 27.99 25.34 27.23 3.78-.38 3.78.38 1.13 3.78-10.59 13.99-34.42 12.86-45.01-.76-15.13-18.91-24.21-18.91-30.64-15.89-2.27 1.51-2.27 1.89.38 3.4 13.24 6.05 16.64 18.91 13.62 32.15-4.54 20.42-2.65 31.01 8.7 35.93 3.4 1.89 3.03 1.89-1.13 3.78-16.26 6.43-35.93-6.05-38.96-23.45-3.78-23.83-11.35-28.74-18.53-28.74-3.03 0-3.03.38-1.13 3.03 8.32 11.35 5.3 24.96-4.16 35.17-14.37 15.51-17.78 25.34-10.59 35.93 1.89 3.03 1.51 3.4-2.65 3.03-17.4-2.27-28.37-23.45-22.31-39.71 8.7-23.07 4.54-31.01-1.51-34.04-2.27-1.51-3.03-1.13-2.65 1.89 1.13 14.37-7.94 23.83-21.18 27.99-20.05 6.05-27.99 13.24-27.23 25.34.38 3.78-.38 3.78-3.78 1.13-13.99-10.59-12.86-34.42.76-45.01 18.91-15.13 18.91-24.21 15.89-30.64-1.51-2.27-1.89-2.27-3.4.38-6.05 13.24-18.91 16.64-32.15 13.62-20.42-4.54-31.01-2.65-35.93 8.7-1.89 3.4-1.89 3.03-3.78-1.13-6.05-16.26 6.05-36.31 23.45-38.96 23.83-3.78 28.74-11.35 28.74-18.53 0-3.03-.38-3.03-3.03-1.13-11.35 8.32-24.96 5.3-35.17-4.16-15.51-14.37-25.34-17.78-35.93-10.59-3.03 1.89-3.4 1.51-3.03-2.65 2.27-17.4 23.45-28.37 39.71-22.31 23.07 8.7 31.01 4.54 34.04-1.51 1.51-2.27 1.13-3.03-1.89-2.65-14.37 1.13-23.83-7.94-27.99-21.18-6.05-20.05-13.24-27.99-25.34-27.23-3.78.38-3.78-.38-1.13-3.78 10.59-13.99 34.42-12.86 45.01.76 15.13 18.91 24.21 18.91 30.64 15.89 2.27-1.51 2.27-1.89-.38-3.4-13.24-6.05-16.64-18.91-13.62-32.15 4.54-20.42 2.65-31.01-8.7-35.93-3.4-1.89-3.03-1.89 1.13-3.78 16.26-6.43 35.93 6.05 38.96 23.45 3.78 23.83 11.35 28.74 18.53 28.74 3.03 0 3.03-.38 1.13-3.03-8.32-11.35-5.3-24.96 4.16-35.17 14.37-15.89 17.78-25.34 10.59-35.93-1.89-3.03-1.51-3.4 2.65-3.03 17.78 2.27 28.74 23.45 22.69 39.71-8.7 23.07-4.54 31.01 1.51 34.04 2.27 1.51 3.03 1.13 2.65-1.89-1.13-14.37 7.94-23.83 21.18-27.99 20.05-6.05 27.99-13.24 27.23-25.34-.38-3.78.38-3.78 3.78-1.13 13.24 10.59 12.1 34.42-1.13 45.01z" fill="#4c263f"/></svg>