<?xml version="1.0" standalone="no"?>
<!DOCTYPE svg PUBLIC "-//W3C//DTD SVG 20010904//EN"
 "http://www.w3.org/TR/2001/REC-SVG-20010904/DTD/svg10.dtd">
<svg version="1.0" xmlns="http://www.w3.org/2000/svg"
 width="310.000000pt" height="310.000000pt" viewBox="0 0 310.000000 310.000000"
 preserveAspectRatio="xMidYMid meet">
<metadata>
Created by potrace 1.14, written by Peter Selinger 2001-2017
</metadata>
<g transform="translate(0.000000,310.000000) scale(0.100000,-0.100000)"
fill="#000000" stroke="none">
<path d="M1440 3090 c0 -5 9 -24 20 -42 28 -47 27 -121 -5 -184 -13 -27 -54
-85 -91 -129 -86 -103 -108 -151 -109 -235 0 -53 5 -74 28 -114 15 -27 27 -50
27 -52 0 -12 -60 -1 -87 15 -41 26 -87 122 -108 226 -21 103 -45 154 -101 205
-84 78 -181 104 -277 76 -32 -9 -57 -21 -57 -26 0 -4 19 -19 43 -32 82 -45
108 -157 72 -318 -35 -160 -6 -258 101 -333 24 -17 44 -34 44 -38 0 -17 -69
-30 -107 -20 -52 14 -93 46 -193 150 -97 101 -144 124 -257 123 -76 -1 -156
-34 -198 -83 -38 -46 -33 -59 23 -59 98 0 166 -72 217 -230 28 -88 60 -143
108 -187 48 -44 96 -63 165 -63 47 0 54 -14 22 -47 -48 -53 -135 -53 -293 -1
-104 34 -174 34 -252 -1 -93 -41 -174 -143 -175 -218 0 -38 8 -40 52 -13 23
14 51 20 89 20 65 0 126 -32 236 -126 89 -76 141 -98 223 -99 53 0 74 5 114
28 27 15 50 27 52 27 12 0 1 -60 -15 -87 -26 -41 -122 -87 -226 -108 -103 -21
-154 -45 -205 -101 -77 -83 -104 -182 -76 -278 9 -31 21 -56 26 -56 4 0 19 19
32 43 45 82 157 108 318 72 160 -35 258 -6 333 101 17 24 34 44 38 44 17 0 30
-69 20 -107 -14 -52 -46 -93 -150 -193 -101 -97 -124 -144 -123 -257 1 -76 34
-156 83 -198 46 -38 59 -33 59 23 0 98 72 166 230 217 88 28 143 60 187 108
44 48 63 96 63 165 0 47 14 54 47 22 53 -48 53 -135 1 -293 -34 -104 -34 -174
1 -252 41 -93 143 -174 219 -175 37 0 39 8 12 52 -14 23 -20 51 -20 89 0 65
32 126 126 236 76 89 98 141 99 223 0 53 -5 74 -28 114 -15 27 -27 50 -27 52
0 12 60 1 87 -15 41 -26 87 -122 108 -226 21 -103 45 -154 101 -205 84 -78
181 -104 277 -76 32 9 57 21 57 26 0 4 -19 19 -42 32 -83 45 -109 157 -73 318
35 160 6 258 -101 333 -24 17 -44 34 -44 38 0 17 69 30 107 20 52 -14 93 -46
193 -150 97 -101 144 -124 257 -123 76 1 156 34 198 83 38 46 33 59 -22 59
-99 0 -167 72 -218 230 -28 88 -60 143 -108 187 -48 44 -96 63 -164 63 -48 0
-55 14 -23 47 48 53 135 53 293 1 104 -34 174 -34 252 1 93 41 174 143 175
219 0 37 -8 39 -52 12 -23 -14 -51 -20 -89 -20 -65 0 -126 32 -236 126 -89 76
-141 98 -223 99 -53 0 -74 -5 -114 -28 -27 -15 -50 -27 -52 -27 -12 0 -1 60
15 87 26 41 122 87 226 108 103 21 154 45 205 101 78 84 104 181 76 277 -9 32
-21 57 -26 57 -4 0 -19 -19 -32 -42 -45 -83 -157 -109 -318 -73 -160 35 -258
6 -333 -101 -17 -24 -34 -44 -38 -44 -4 0 -13 15 -19 34 -23 72 25 158 149
265 82 71 113 131 119 231 5 99 -21 172 -81 226 l-42 38 -7 -57 c-9 -70 -28
-109 -70 -140 -44 -33 -120 -70 -188 -92 -147 -47 -216 -123 -227 -247 -3 -32
-10 -58 -15 -58 -5 0 -23 13 -39 29 -27 27 -29 35 -29 100 0 52 8 97 31 168
26 81 31 109 27 163 -9 114 -77 218 -171 261 -45 20 -107 25 -107 9z m250
-971 c195 -43 383 -232 431 -434 17 -75 15 -220 -6 -290 -41 -144 -138 -273
-261 -347 -346 -210 -791 -19 -880 379 -57 258 77 533 319 650 54 27 109 43
197 57 33 5 143 -3 200 -15z"/>
</g>
</svg>
