<svg viewBox="0 0 308 72.21" xmlns="http://www.w3.org/2000/svg"><g fill="#fff"><path d="m173.76 39.93c2.41 0 4.37-1.96 4.37-4.37s-1.96-4.37-4.37-4.37-4.37 1.96-4.37 4.37c-.02 2.4 1.91 4.35 4.31 4.37zm102.89 13.95v-6.14h-14.21v-29.34h-6.89v35.47h21.1zm-65.48-8.15c.56-2.08.81-4.23.76-6.39v-5.21h-13.37v5.8h6.56v1.34c0 .88-.15 1.76-.42 2.61-.36 1.03-.97 1.95-1.76 2.69-1.23 1.06-2.84 1.57-4.46 1.43-1.55.13-3.09-.42-4.2-1.51-.85-.92-1.43-2.05-1.68-3.28-.26-2.34-.37-4.7-.34-7.06-.07-2.33.04-4.66.34-6.98.23-1.26.81-2.42 1.68-3.36 1.09-1.08 2.59-1.63 4.12-1.51 3.45 0 5.55 1.76 6.39 5.21h6.98c-.44-3.11-1.92-5.99-4.2-8.15-2.27-2.19-5.3-3.28-9.16-3.28-1.82-.04-3.62.3-5.3 1.01-1.66.75-3.17 1.81-4.46 3.11-1.41 1.39-2.35 3.18-2.69 5.13-.4 2.92-.56 5.88-.5 8.83-.07 2.95.1 5.9.5 8.83.36 1.94 1.3 3.73 2.69 5.13 1.29 1.35 2.83 2.43 4.54 3.19 1.68.69 3.48 1.03 5.3 1.01 1.87 0 3.72-.34 5.46-1.01 1.7-.69 3.25-1.72 4.54-3.03 1.2-1.31 2.12-2.85 2.69-4.54m-80.45 8.15v-6.14h-14.21v-29.34h-6.89v35.47h21.1zm170.14-24.04c-.11-1.11-.54-2.17-1.26-3.03-.58-.7-1.29-1.27-2.1-1.68-.96-.39-1.99-.59-3.03-.59h-5.21v23.12h5.21c2.27 0 3.87-.59 4.79-1.68.86-1.04 1.44-2.29 1.68-3.62.2-2.12.29-4.26.25-6.39-.08-2.86-.17-4.88-.34-6.14m6.55 15.47c-.9 3.59-3.56 6.47-7.06 7.65-1.7.59-3.5.87-5.3.84h-12.77v-35.39h12.78c1.77-.04 3.54.25 5.21.84 1.68.62 3.2 1.59 4.45 2.86 1.32 1.29 2.25 2.92 2.69 4.71.45 2.27.65 4.58.59 6.89v4.54c.06 2.37-.14 4.74-.59 7.06m-67.33-9.16c.02 2.27-.09 4.55-.34 6.81-.25 1.3-.82 2.52-1.68 3.53-1.08 1.09-2.59 1.65-4.12 1.51-1.55.13-3.09-.42-4.2-1.51-.85-.92-1.43-2.05-1.68-3.28-.26-2.32-.37-4.65-.34-6.98-.07-2.33.04-4.66.34-6.98.12-1.06.56-2.05 1.26-2.86.55-.65 1.24-1.16 2.02-1.51.82-.35 1.71-.52 2.61-.5 1.71-.1 3.36.62 4.45 1.93.72.87 1.21 1.91 1.43 3.03.08 1.09.25 3.45.25 6.81m6.89 0c.08-2.93-.12-5.85-.59-8.74-.37-1.98-1.34-3.8-2.77-5.21-1.27-1.35-2.82-2.41-4.54-3.11-1.68-.7-3.48-1.04-5.3-1.01-1.84-.03-3.67.31-5.38 1.01-1.66.75-3.17 1.81-4.46 3.11-1.41 1.39-2.35 3.18-2.69 5.13-.43 2.92-.63 5.87-.59 8.83-.07 2.95.1 5.9.5 8.83.36 1.94 1.3 3.73 2.69 5.13 1.29 1.35 2.83 2.43 4.54 3.19 1.68.69 3.48 1.03 5.3 1.01 1.82.04 3.62-.3 5.3-1.01 1.58-.69 3.01-1.69 4.2-2.94 1.51-1.46 2.56-3.33 3.03-5.38.63-2.9.89-5.86.76-8.83m-93.48 4.03c-.91-.9-2.17-1.36-3.45-1.26h-7.23v8.74h7.23c1.27.08 2.52-.38 3.45-1.26 1.57-1.78 1.57-4.44 0-6.22m-.59-14.46c-.94-.78-2.14-1.17-3.36-1.09h-6.81v8.15h6.81c1.22.09 2.43-.3 3.36-1.09.79-.8 1.22-1.9 1.18-3.03.13-1.12-.31-2.23-1.18-2.94m3.78 9.92c1.38.63 2.57 1.62 3.45 2.86 1.02 1.51 1.52 3.31 1.43 5.13.16 2.82-.95 5.56-3.03 7.48-2.21 1.85-5.02 2.81-7.9 2.69h-14.88v-35.4h14.29c3.45 0 6.14.92 8.07 2.69 2 1.89 3.08 4.56 2.94 7.31.06 1.65-.41 3.27-1.35 4.62-.75 1.13-1.8 2.03-3.03 2.61m-64.39 6.14h-8.83l4.46-12.86zm11.18 12.1-12.94-35.47h-5.46l-12.86 35.47h7.23l2.19-6.3h12.61l2.1 6.3h7.15z"/><path d="m27.15 57.75c-.27-.26-.47-.57-.59-.92-.08-.25-.17-.42-.08-.59l-.76-.76-1.26-1.01c1.01 1.43 1.85 2.69 2.52 3.87 0-.21.06-.41.17-.59z"/><path d="m20.43 53.04c-.25 1.02-.34 2.07-.25 3.11.34 1.26.76 2.69 1.26 4.37l.25.76-.5-.59c-.06-.13-.15-.24-.25-.34.25 1.01.5 2.19.84 3.53.08.25.25.42.34.67-.08-.42-.08-.93-.17-1.35-.08-.59-.08-1.09-.17-1.68-.17-1.93-.25-3.78-.34-5.63l-.26-.59c-.25-.84-.5-1.51-.75-2.27z"/><path d="m14.29 53.46c-.28-.43-.54-.88-.76-1.35 0 .51-.02 1.01-.08 1.51.17 1.09.34 2.1.5 3.36.59 1.35 1.09 2.61 1.6 3.7 0-.93 0-1.76.08-2.61-.11-.48-.25-.96-.42-1.43-.16-.67-.92-3.19-.92-3.19z"/><path d="m47.41 50.27.25-.25c.5-1.09 1.01-2.19 1.68-3.45-.76.76-1.51 1.6-2.27 2.44.05.43.16.86.34 1.26z"/><path d="m43.21 52.37c-.08-1.01-.08-1.85-.08-2.77-.12-.49-.38-.93-.76-1.26-.26 1.98-.4 3.97-.42 5.97l.08-.17c.32-.63.72-1.22 1.18-1.76z"/><path d="m40.1 63.55c.59-1.51 1.35-3.11 2.35-5.13l1.01-2.02v-2.77c-.25.34-.42.59-.67.93-1.26 1.76-2.19 3.27-3.03 4.71.08 1.43.17 2.86.34 4.29z"/><path d="m26.14 58.93c-.5-1.23-1.06-2.44-1.68-3.61.34 1.93.67 3.95 1.09 6.64l.08.34c.25-.84.5-1.76.84-2.61-.08-.17-.17-.42-.25-.59z"/><path d="m34.3 59.26c.33-1.51.75-3 1.26-4.46 0-.42.08-.76.08-1.18 0-.08-.08-.17-.08-.25-.13-.23-.27-.46-.42-.67-.55 1.43-1.03 2.89-1.43 4.37l-.08.42c.25.5.42 1.09.67 1.76z"/><path d="m34.97 61.2c.46 1.43.83 2.89 1.09 4.37.08-1.26.17-2.61.34-4.29.17-1.51.25-2.52.34-3.53-.17-.76-.25-1.43-.42-2.02-.52 1.57-.94 3.17-1.26 4.79 0 .25-.08.42-.08.67z"/><path d="m41.02 51.7c-.14.43-.37.84-.67 1.18-.17.25-.34.42-.34.59-.24.76-.38 1.56-.42 2.35-.01.65.02 1.29.08 1.93.25-.42.5-.76.76-1.18.09-1.64.28-3.26.59-4.87z"/><path d="m21.1 16.9c1.73.54 3.62.05 4.88-1.26.93-.96 1.39-2.28 1.26-3.61-.59 2.9-3.18 4.96-6.14 4.88z"/><path d="m53.8 1.43-1.35-1.34-.08-.09h-.08c-.46.49-1.1.76-1.76.76h-47.25c-.65 0-1.28-.24-1.76-.67h-.17l-1.35 1.34v.17c.43.49.67 1.12.67 1.76v55.06c0 5.8 4.71 10.5 10.51 10.5h11.18c1.95.01 3.67 1.26 4.29 3.11 0 .08.08.17.25.17s.17-.08.25-.17c.58-1.89 2.31-3.18 4.29-3.19h11.18c5.8 0 10.51-4.7 10.51-10.51v-54.97c0-.65.25-1.27.67-1.76zm-1.09.59c-.25.41-.4.87-.42 1.35v55.06c0 5.34-4.33 9.67-9.67 9.67h-13.12c-.81-.02-1.59.29-2.19.84-.24.22-.61.22-.84 0-.61-.52-1.38-.82-2.19-.84h-13.11c-5.34 0-9.67-4.33-9.67-9.67v-55.07c-.01-.48-.16-.95-.42-1.35v-.25c.02-.36.31-.65.67-.67.09-.01.18.02.25.08.4.26.87.41 1.35.42h47.16c.48-.01.95-.16 1.35-.42h.25c.36.02.65.31.67.67 0 .06-.04.12-.08.17z"/><path d="m50.61 2.77h-47.42c-.34 0-.5.25-.5.59v54.89c0 4.78 3.86 8.65 8.63 8.66h.02 12.94c.73 0 1.45.17 2.1.5.3.22.71.22 1.01 0 .65-.34 1.37-.51 2.1-.5h12.95c4.78 0 8.65-3.86 8.66-8.63v-.02-54.99c.08-.25-.17-.5-.5-.5zm-20.93.76c-.34.41-.71.8-1.09 1.18-.42.42-.92.93-1.35 1.43l-.08.08h-.08c-.38-.31-.81-.57-1.26-.76l-.17-.08.08-.17c.48-.45.99-.87 1.51-1.26.17-.17.34-.25.5-.42zm-1.18 8.83c0 3.3-2.67 5.97-5.97 5.97s-5.97-2.67-5.97-5.97 2.67-5.97 5.97-5.97c3.29.01 5.96 2.68 5.97 5.97zm-2.69-8.83s-.08.1-.08.17v.08h-.08c-.4.27-.76.58-1.09.92l-.17.17-.09-.17c0-.08-.08-.08-.08-.17 0-.05-.03-.08-.08-.08l-.08-.08.08-.08.08-.08c.1-.22.18-.44.25-.67h1.34zm-1.85 0-.08.17-.08-.17h.17zm-2.52 0c-.01.37.01.73.08 1.09l.08.17h-.17c-.49.06-.97.18-1.43.34l-.17.08-.08-.17c0-.51.02-1.01.08-1.51h1.6zm-3.03 0c.08.17.17.25.17.34s0 .08.08.08v.17c-.08.47-.14.95-.17 1.43v.17l-.17-.08c-.08 0-.17-.08-.25-.08-.05 0-.08-.04-.08-.08h-.08v-.17c-.16-.46-.36-.91-.59-1.35-.09-.16-.2-.3-.34-.42h1.43zm-1.76 0c.13.22.24.44.34.67.1.22.18.44.25.67l.08.34-.34-.17c-.38-.19-.75-.42-1.09-.67-.25-.17-.76-.5-1.34-.84zm-7.82 0c.33.08.75.17 1.26.25.12 0 .23.03.34.08.96.07 1.89.39 2.69.92.64.44 1.23.94 1.76 1.51.42.42.92.93 1.43 1.35l.17.08-.08.17c-.31.38-.57.81-.76 1.26l-.08.17-.25-.17c-.45-.48-.87-.99-1.26-1.51-.17-.17-.34-.42-.5-.59-.08-.08-.08-.17-.17-.17-.42-.46-.9-.86-1.43-1.18-.27-.16-.55-.3-.84-.42h-.08c-.41-.14-.83-.26-1.26-.34-.25-.08-.5-.14-.76-.17-.68-.2-1.31-.55-1.85-1.01l-.17-.17h1.85v-.08zm-5.46 0h3.53l.5.5c.45.37.96.66 1.51.84l.42.08c.42.17.84.34 1.09.42.49.25.94.56 1.34.93.42.42.84.93 1.09 1.18l.17.17h-.25c-.51.06-.99.23-1.43.5-.63.31-1.32.48-2.02.5-.59.04-1.19-.02-1.77-.17-.22-.09-.44-.14-.67-.17.22.13.44.24.67.34.55.2 1.11.37 1.68.5.53.05 1.07.03 1.6-.08.08 0 .17-.08.34-.08.77-.21 1.58-.21 2.35 0 .08 0 .17.08.25.08s.08 0 .17.08h.08v.08c.27.4.58.76.92 1.09l.17.17-.17.08c-.07.06-.16.1-.25.08l-.17.08-.08-.08-.08-.08c-.43-.2-.88-.37-1.34-.5-.28-.06-.56-.09-.84-.08h-.08c-.37 0-.73.02-1.09.08-.25 0-.5.08-.67.08-.54 0-1.08-.08-1.6-.25-.15-.09-.32-.15-.5-.17.23.09.46.21.67.34.42.18.88.27 1.35.25h.17c.42-.02.85 0 1.26.08.38.05.75.16 1.09.34.21.08.41.19.59.34l.34.17-.34.08c-.42.08-.84.25-1.26.34-.77.12-1.54.31-2.27.59-.96.39-1.81 1.03-2.44 1.85-.56.68-1.24 1.25-2.02 1.68-.63.32-1.31.55-2.02.67v-12.93zm14.88 62.62c-.17-1.26-.42-2.69-.59-4.46-.17-1.43-.34-2.69-.42-3.95-.14-.4-.3-.8-.5-1.18-.08 2.02-.08 4.03-.08 6.81v2.77h-.42c-.7-3.02-1.75-5.95-3.11-8.74-.25-.5-.42-1.01-.67-1.43-.07.42-.1.84-.08 1.26-.01.45.02.9.08 1.35.29.74.51 1.5.67 2.27.34.76.59 1.6.92 2.44.34 1.09.59 2.02.84 2.86h-1.01c-.21-.85-.46-1.69-.76-2.52-.08-.17-.08-.34-.17-.5.08.67.17 1.43.25 2.1l.08.93h-1.01l-.08-.93c-.42-3.11-.76-5.8-.84-7.99 0-.88.11-1.76.34-2.61.16-.38.36-.75.59-1.09.08-.17.25-.34.34-.5v-.08c-.26.15-.49.35-.67.59-.23.13-.46.27-.67.42-.08 0-.25.17-.42.17h-.17l.08-.17s0-.08.25-.34l.25-.26c.5-.5 1.18-1.01 1.34-1.68.11-.44.14-.89.08-1.34v-.76c0-.5.08-.84.08-1.18l.08-.5.17.5c.13.35.3.69.5 1.01l.08.17c.23.37.43.77.59 1.18.07.23.15.45.25.67.13.42.33.82.59 1.18.53.48 1.16.83 1.85 1.01.08 0 .17.08.25.08l.34.17.08.17-.17.08h-.42c-.25 0-.5-.08-.76-.08-.17-.08-.59-.17-.84-.25.13.1.27.19.42.25h.1c.38.19.72.45 1.01.76.54.69.96 1.45 1.26 2.27.87 2.54 1.6 5.12 2.19 7.73l.25 1.09-2.35.25zm30.68-3.36.67-1.18c-.17.42-.4.81-.67 1.18zm1.51-16.14c-1.01 1.93-1.76 3.45-2.52 5.3l.76 2.52c.49-1.74 1.08-3.45 1.76-5.13v3.87c-.5 1.01-.92 1.93-1.26 2.77.08.25.17.42.25.67.26-1.01.6-1.99 1.01-2.94v4.46c0 .95-.16 1.89-.5 2.77-.68-1.68-1.35-3.53-2.19-5.97-.59-1.68-.92-2.86-1.26-4.12 0 .12-.03.23-.08.34-.16 1.26-.24 2.52-.25 3.78.42 1.43.76 2.77 1.35 4.88.42 1.35.67 2.44 1.01 3.53-.48.59-1.04 1.1-1.68 1.51.08-.84.17-1.68.25-2.61-.24-.71-.44-1.44-.58-2.18-.17-.59-.34-1.09-.5-1.68v6.98c-.32.18-.66.32-1.01.42v-.67c0-5.13 0-11.35.34-14.04v-.08c.09-.98.32-1.94.67-2.86.2-.53.45-1.04.76-1.51.13-.22.24-.44.34-.67-.17.08-.42.34-.59.42l-.42.42-.08.17c-.1.1-.19.21-.25.34 0 .08-.34.5-.5.5l-.17.08v-.17c.22-.63.53-1.23.92-1.76.23-.25.48-.47.76-.67.26-.18.49-.41.67-.67.34-.47.57-1.02.67-1.6.08-.17.08-.34.17-.5l.25-.76.25-.5c.2-.41.37-.83.5-1.26.27-.61.43-1.27.5-1.93-.27 1.08-.72 2.1-1.35 3.03-.22.29-.51.52-.84.67-.08.08-.25.17-.34.25-.55.45-.99 1.02-1.26 1.68l-.08.17c-.08.17-.17.25-.17.42l-.17.17-.08.08-.08-.08c-.25-.25.5-1.93 1.01-2.35.25-.25.5-.42.76-.67l.25-.25c.39-.29.71-.66.92-1.09.15-.29.24-.6.25-.92.02-.37.08-.73.17-1.09.1-.32.25-.63.42-.92l.08-.17c.2-.41.36-.83.5-1.26.08-.25.08-.5.17-.84v.17c-.22.99-.72 1.89-1.43 2.61-.19.21-.42.38-.67.5-.17.08-.34.25-.5.34-.31.35-.57.75-.76 1.18-.34.59-.42.76-.59.76h-.08l-.08-.08c-.05-.14-.05-.28 0-.42.24-.78.64-1.49 1.18-2.1.17-.17.42-.34.59-.5.08-.08.17-.08.25-.17.42-.19.73-.56.84-1.01.14-.36.25-.72.34-1.09v-.25c.08-.25.08-.59.17-.92.09-.34.2-.68.34-1.01.08-.34.25-.76.34-1.18.08-.17.08-.59.17-.92v-.08.08c-.07.16-.1.33-.08.5-.02.14-.05.28-.08.42-.15.61-.38 1.21-.67 1.76-.16.33-.43.6-.76.76-.08.08-.17.08-.25.17s-.25.17-.42.34c-.29.35-.52.75-.67 1.18v.08c-.34.59-.42.76-.59.76h-.08v-.08c.16-.89.54-1.72 1.09-2.43l.42-.42.17-.17c.24-.2.47-.43.67-.67.2-.36.29-.77.25-1.18.01-.34.07-.68.17-1.01.39-.97.64-1.99.76-3.03-.14 1.04-.48 2.04-1.01 2.94-.15.16-.31.31-.5.42-.23.12-.44.29-.59.5-.23.35-.43.71-.59 1.09v.08c-.05.18-.13.35-.25.5-.04.05-.1.08-.17.08h-.08v-.08c.09-.93.47-1.82 1.09-2.52.75-.73 1.17-1.73 1.18-2.77 0-.17.08-.42.08-.59 0-.08.08-.17.08-.25 0-.17.08-.34.08-.5.11-.5.2-1 .25-1.51-.09.55-.23 1.08-.42 1.6-.13.3-.33.56-.59.76l-.25.25c-.25.34-.44.7-.59 1.09-.08.17-.08.42-.25.34h-.08v-.08c-.03-.6.15-1.19.5-1.68.31-.31.49-.73.5-1.18.06-.31.03-.63-.08-.92-.07-.22-.1-.44-.08-.67v-.84c0-.17.08-.34.08-.59s.08-.42.08-.59c-.01-.09.02-.18.08-.25-.08.25-.08.5-.17.67-.08.34-.08.59-.17.92-.05.37-.2.71-.42 1.01-.08.08-.08.17-.17.25-.19.22-.33.48-.42.76-.1.45-.07.91.08 1.34.14.52.14 1.08 0 1.6v.08h-.16l-.08-.08c-.5.5-.5.42-.5 0v-.08c.05-.49-.1-.97-.42-1.34-.17-.23-.31-.49-.42-.76-.13-.55-.19-1.12-.17-1.68 0 .17-.08.25-.08.42-.02.31.01.62.08.92.1.48.07.97-.08 1.43 0 .06-.04.12-.08.17-.11.21-.14.45-.08.67 0 .42.25.59.5.92.24.24.44.53.59.84.23.79.26 1.63.08 2.44q-.08.08-.17.08h-.08l-.08-.08c-.05-.07-.08-.16-.08-.25v-.59c0-.46-.08-.92-.25-1.35-.17-.33-.36-.64-.59-.92-.29-.32-.52-.69-.67-1.09-.21-.65-.33-1.33-.34-2.02v.25c0 .45.07.9.17 1.34.08.34.08.67.17 1.18 0 .34-.08.59-.08.92.01.09-.02.18-.08.25-.1.34-.07.69.08 1.01.26.4.57.77.92 1.09.35.3.64.68.84 1.09.22.65.22 1.36 0 2.02l-.08.08h-.08c-.17 0-.17-.17-.17-.34v-.42c0-.43-.08-.86-.25-1.26-.23-.27-.48-.53-.76-.76-.47-.35-.85-.82-1.1-1.35-.33-.83-.5-1.71-.5-2.61-.06.67-.03 1.35.08 2.02v.17c.11.75.16 1.51.17 2.27.11.91.56 1.75 1.26 2.35l.17.17c.14.12.25.26.34.42.53.91.71 1.99.5 3.03l-.08.08h-.08c-.08-.08-.08-.17-.17-.34 0-.17-.08-.34-.08-.59-.04-.53-.18-1.04-.42-1.51-.19-.38-.48-.7-.84-.92-.47-.33-.82-.8-1.01-1.34-.36-1-.53-2.05-.5-3.11v1.09c0 .43.07.85.17 1.26l.08.25c.08.34.17.67.25 1.09.06.42.09.84.08 1.26v.25c-.05.46.04.93.25 1.35.27.52.64.98 1.09 1.35.38.32.71.69 1 1.09.34.68.4 1.46.17 2.19l-.08.08h-.08c-.17 0-.17-.17-.17-.25v-.42c.03-.34-.03-.69-.17-1.01-.17-.5-.5-.67-.92-1.01-.17-.08-.34-.25-.5-.34-.23-.13-.41-.34-.5-.59-.47-.8-.78-1.69-.92-2.61-.07-.3-.1-.61-.08-.92-.02.34.01.68.08 1.01.04.52.16 1.03.34 1.51.08.34.17.67.25 1.09.07.27.1.56.08.84v.59c0 .57.18 1.13.5 1.6.25.39.6.71 1.01.92.16.09.3.2.42.34.17.17.34.25.42.42.33.68.44 1.44.34 2.19.01.09-.02.18-.08.25l-.25.25-.17-.34c0-.08-.08-.17-.08-.25v-.17c-.03-.62-.2-1.22-.5-1.76-.26-.24-.54-.47-.84-.67-.33-.22-.64-.48-.92-.76-.65-.75-1.04-1.7-1.09-2.69 0-.25-.08-.59-.08-.84v-.17 1.26c.08.67.17 1.18.25 1.6l.08.17c.08.33.17.75.25 1.26.07.25.1.5.08.76 0 .43.09.86.25 1.26.37.62.89 1.14 1.51 1.51.08.08.17.17.25.17.25.17.25.25.25.25l.08.17h-.17c-.14-.02-.28-.05-.42-.08-.25-.06-.48-.17-.67-.34-.23-.17-.49-.31-.76-.42.13.12.25.26.34.42.33.27.59.62.76 1.01.37.79.6 1.65.67 2.52.19 2.69.25 5.38.17 8.07 0 2.19-.08 4.45 0 6.89-.33.1-.67.15-1.01.17v-.09c-.08-2.52 0-5.04 0-7.23-.5 1.01-.92 1.93-1.35 2.86.07 1.52.24 3.04.5 4.54h-3.19c-.08-.84-.17-1.68-.25-2.44-.34-3.11-.59-5.88-.59-7.99.02-.88.16-1.76.42-2.61.18-.36.41-.7.67-1.01.09-.16.2-.3.34-.42v-.08c-.24.19-.49.35-.76.5-.2.16-.43.28-.67.34-.12.09-.27.15-.42.17h-.17l.08-.16c0-.08.08-.17.25-.25l.25-.25c.58-.43 1.07-.97 1.43-1.6.13-.41.19-.83.17-1.26v-.76c0-.43.06-.85.17-1.26v-.17c.12-.52.15-1.07.08-1.6.01-.42-.02-.84-.08-1.26v1.01c.02.99-.27 1.96-.84 2.77-.24.32-.52.6-.84.84-.88.47-1.32 1.47-1.09 2.44v.17c.01.09-.02.18-.08.25l-.17.25-.17-.25c0-.08-.08-.08-.08-.17-.2-.73-.14-1.5.17-2.19.09-.16.2-.3.34-.42.12-.14.26-.25.42-.34.39-.25.71-.6.92-1.01.32-.47.44-1.04.34-1.6.01-.12-.02-.24-.08-.34 0-.12-.03-.23-.08-.34-.04-.28-.04-.56 0-.84.08-.42.08-.76.17-1.09.11-.5.17-1 .17-1.51-.04.94-.3 1.86-.76 2.69-.14.24-.31.47-.5.67-.17.17-.34.25-.42.42-.35.27-.63.62-.84 1.01-.07.36-.1.73-.08 1.09v.42c0 .08 0 .25-.17.25h-.08l-.08-.08c-.3-.69-.33-1.47-.08-2.19.24-.44.55-.84.92-1.18.45-.37.77-.87.92-1.43.15-.43.18-.9.08-1.35v-.25c-.08-.42-.1-.84-.08-1.26 0-.37.06-.74.17-1.09v-.25c.07-.42.1-.84.08-1.26 0-.42-.08-.76-.08-1.09.1 1.04.01 2.1-.25 3.11-.21.53-.52 1.02-.92 1.43-.32.28-.58.62-.76 1.01-.17.52-.26 1.06-.25 1.6v.5c0 .12-.03.23-.08.34h-.17l-.08-.08c-.08-.17-.5-2.1.25-3.03.08-.08.17-.25.25-.34.1-.1.19-.21.25-.34.63-.66.99-1.53 1.01-2.44-.08-.92-.08-1.6-.08-2.27v-.17c.05-.67.03-1.35-.08-2.02.11.88.02 1.77-.25 2.61-.22.53-.53 1.01-.92 1.43-.27.24-.5.53-.67.84-.14.4-.2.83-.17 1.26v.42c0 .25-.08.34-.17.34h-.08l-.08-.08c-.25-.64-.31-1.34-.17-2.02.15-.45.41-.85.76-1.18.37-.32.66-.72.84-1.18.13-.32.13-.68 0-1.01 0-.08-.08-.17-.08-.25-.1-.3-.16-.61-.17-.92v-1.18c.04-.45.04-.9 0-1.35v-.25c0 .7-.06 1.4-.17 2.1-.1.39-.27.76-.5 1.09-.25.26-.42.58-.5.92-.07.44-.1.9-.08 1.35v.59c0 .17 0 .34-.17.34-.06 0-.12-.04-.17-.08-.25-.79-.31-1.62-.17-2.44.08-.35.25-.67.5-.92.26-.24.41-.57.42-.92-.02-.23-.07-.46-.17-.67 0-.08-.08-.17-.08-.25-.14-.43-.2-.89-.17-1.35v-1.01c0-.17-.08-.25-.08-.42.13.55.13 1.13 0 1.68-.06.3-.17.58-.34.84.17.34 0 .5 0 .76-.08.25-.08.51 0 .76v.08c0 .42 0 .5-.08.59l-.08.08h-.17l-.08-.08c-.22-.5-.28-1.06-.17-1.6.1-.45.07-.91-.08-1.35-.1-.27-.27-.5-.5-.67l-.17-.17c-.25-.29-.42-.64-.5-1.01-.08-.34-.17-.59-.25-.92-.1-.21-.15-.44-.17-.67 0 .08.08.17.08.25.08.17.08.42.17.59.07.16.1.33.08.5 0 .08.08.25.08.34.06.19.09.39.08.59v.67c-.06.31-.03.63.08.92.07.42.28.8.59 1.09.39.44.6 1.01.59 1.6v.08l-.17.08h-.08c-.08 0-.17-.08-.17-.34-.14-.41-.37-.78-.67-1.09-.1-.1-.21-.19-.34-.25-.26-.16-.46-.4-.59-.67-.27-.53-.47-1.1-.59-1.68.08.48.2.96.34 1.43.08.17.08.34.17.5l.08.34c.09.18.15.38.17.59.06 1.04.54 2.02 1.35 2.69.68.66 1.15 1.51 1.35 2.44v.08l-.08.08c-.06 0-.12-.04-.17-.08-.13-.15-.24-.32-.34-.5v-.08c-.17-.25-.42-.76-.67-1.09-.18-.2-.41-.34-.67-.42-.23-.09-.43-.23-.59-.42-.66-.83-1.09-1.81-1.28-2.86.22 1.02.56 2 1.01 2.94.16.31.25.66.25 1.01.05.39.19.77.42 1.09.2.24.43.47.67.67.08.08.17.08.17.17.17.1.34.21.5.34.6.66 1.05 1.43 1.35 2.27v.08l-.08.08c-.17.08-.25 0-.67-.67v-.08c-.23-.38-.49-.74-.76-1.09-.17-.17-.34-.25-.42-.34s-.25-.08-.34-.17c-.34-.14-.63-.37-.84-.67-.31-.54-.6-1.1-.84-1.68-.04-.14-.06-.28-.08-.42-.08-.17-.08-.34-.17-.5v-.08c.06.31.15.62.25.92.17.42.25.76.42 1.09s.25.59.42 1.01c.08.34.17.67.25.92l.08.25c.08.38.22.75.42 1.09.19.4.52.73.92.92.08.08.17.08.25.17.23.13.46.27.67.42.54.6 1 1.28 1.35 2.02.05.13.08.28.08.42v.08h-.08c-.17.08-.34-.17-.67-.67-.24-.39-.52-.76-.84-1.09-.15-.14-.32-.25-.5-.34-.27-.1-.5-.27-.67-.5-.77-.68-1.35-1.55-1.68-2.52q0-.08-.08-.17c.08.25.17.59.25.84.16.41.36.8.59 1.18l.08.17c.17.34.34.59.5.92.16.31.25.66.25 1.01.04.33.15.65.34.92.27.39.62.73 1.01 1 .08.1.2.17.34.17.3.17.58.36.84.59.5.42 1.43 1.93 1.18 2.27l-.08.08-.08-.08c-.08 0-.08-.08-.17-.17-.08-.08-.08-.17-.17-.34l-.59-.42c-.34-.62-.83-1.14-1.43-1.51-.09-.09-.21-.15-.34-.17-.35-.17-.66-.39-.92-.67-.68-.86-1.22-1.83-1.6-2.86.16.66.38 1.31.67 1.93.17.34.42.76.59 1.09l.25.5c.15.24.26.49.34.76.08.17.08.34.17.42.15.55.41 1.06.76 1.51.23.22.48.42.76.59s.53.37.76.59c0 0 1.09 1.26 1.09 1.68v.17l-.17-.08c-.08 0-.17-.08-.59-.5l-.42-.42-.08-.08-.42-.42c-.18-.17-.37-.31-.59-.42.1.2.21.4.34.59.32.45.6.93.84 1.43.43.91.74 1.87.92 2.86v.08c.65 3.41 1.07 6.87 1.26 10.34h-1.01c-.08-.93-.17-1.85-.25-2.61-.08.25-.25.5-.34.76-.07.61-.1 1.23-.08 1.85h-1.93c-.42-2.24-1.04-4.43-1.85-6.56-.14-.52-.34-1.03-.59-1.51-.08.25-.25.42-.25.5-.16.77-.19 1.57-.08 2.35v.17c.08.67.25 1.35.34 2.27.17.76.34 1.6.59 2.77h-1.01c-.34-1.68-.76-3.53-.92-5.13-.06-.87-.04-1.74.08-2.61.13-.38.3-.75.5-1.09l.09-.08c.06-.15.15-.29.25-.42v-.08c-.2.22-.43.42-.67.59-.18.17-.37.31-.59.42-.25.17-.34.17-.42.17h-.17v-.17s0-.08.25-.34l.25-.25c.55-.47.96-1.08 1.18-1.76.08-.44.08-.9 0-1.35 0-.25-.08-.5-.08-.76v-1.51c0-.53-.02-1.07-.08-1.6-.08-.34-.17-.84-.25-1.26.07.33.1.67.08 1.01.13.98-.04 1.98-.5 2.86-.16.38-.42.7-.76.92-.25.23-.47.48-.67.76-.19.6-.25 1.23-.17 1.85v.42l.34.42-.08-.17c0-.08-.08-.08-.08-.17-.28-.7-.31-1.47-.08-2.19.08-.18.2-.35.34-.5.08-.17.25-.25.42-.42.34-.29.61-.67.76-1.09.25-.49.31-1.06.17-1.6 0-.08-.08-.25-.08-.34s-.08-.17-.08-.25c-.07-.27-.1-.56-.08-.84v-1.09c.04-.5.04-1.01 0-1.51-.02-.31-.08-.62-.17-.92.07.3.09.61.08.92.02.94-.12 1.88-.42 2.77-.09.25-.23.48-.42.67-.17.17-.25.34-.42.42-.37.29-.61.71-.67 1.18-.05.37-.02.74.08 1.09v.08c0 .17.08.25.08.34.01.12-.02.24-.08.34l-.17-.25-.08-.08c-.42-.65-.54-1.44-.34-2.19.15-.47.41-.91.76-1.26.4-.42.66-.94.76-1.51.1-.45.07-.91-.08-1.35 0-.08-.08-.17-.08-.25-.08-.33-.17-.75-.25-1.26v-1.34c.01-.42-.02-.84-.08-1.26-.08-.42-.17-.76-.25-1.09.26 1.02.32 2.07.17 3.11-.11.56-.37 1.08-.76 1.51-.27.33-.5.7-.67 1.09-.11.53-.14 1.07-.08 1.6v.59c0 .17 0 .34-.08.34h-.17l-.08-.08c-.43-.95-.49-2.03-.17-3.03.1-.13.19-.27.25-.42l.17-.25c.54-.72.81-1.62.76-2.52-.18-.75-.29-1.51-.34-2.27v-.17c-.04-.68-.15-1.36-.34-2.02.19.88.22 1.8.08 2.69-.15.58-.41 1.12-.76 1.6-.21.3-.41.6-.59.92-.13.41-.13.85 0 1.26 0 .17.08.25.08.42s0 .34-.08.34h-.08l-.08-.08c-.32-.62-.47-1.32-.42-2.02.09-.46.29-.89.59-1.26.27-.39.5-.82.67-1.26.06-.34.03-.69-.08-1.01 0-.08-.08-.17-.08-.25-.13-.26-.22-.55-.25-.84-.07-.39-.1-.78-.08-1.18-.02-.45-.08-.9-.17-1.35 0-.08 0-.17-.08-.17.11.67.14 1.34.08 2.02 0 .43-.15.85-.42 1.18-.19.31-.33.65-.42 1.01-.05.45-.03.91.08 1.35v.08c0 .17.08.34.08.5 0 .08 0 .34-.17.34-.06 0-.12-.04-.17-.08-.36-.76-.51-1.6-.42-2.44.03-.35.18-.67.42-.92.2-.3.31-.65.34-1.01-.03-.21-.12-.42-.25-.59 0-.06-.04-.12-.08-.17-.19-.43-.3-.88-.34-1.35v-.08c-.02-.31-.07-.63-.17-.92 0-.13-.06-.26-.17-.34.18.54.27 1.11.25 1.68-.03.29-.12.58-.25.84-.1.21-.15.44-.17.67 0 .26.02.51.08.76v.08q.08.5 0 .59v.08h-.17l-.08-.08c-.33-.46-.45-1.04-.34-1.6 0-.46-.08-.92-.25-1.35-.13-.25-.33-.46-.59-.59-.08-.08-.17-.08-.25-.17-.31-.23-.55-.55-.67-.92-.15-.26-.26-.55-.34-.84-.08-.25-.17-.42-.25-.67 0 .08.08.17.08.25.08.17.17.42.25.59.09.15.15.32.17.5 0 .08.08.17.08.25.09.18.15.38.17.59.07.22.1.44.08.67-.03.32.03.64.17.92.13.41.4.77.76 1.01.42.41.71.94.84 1.51v.08l-.09.09c-.17.08-.34-.17-.34-.25-.18-.38-.44-.73-.76-1.01-.08-.08-.25-.17-.34-.25-.26-.15-.49-.35-.67-.59-.33-.46-.59-.97-.76-1.51.14.49.31.96.5 1.43l.25.5c.08.08.08.17.17.25.07.2.15.4.25.59.22 1.02.82 1.93 1.69 2.52.72.57 1.27 1.33 1.6 2.19v.08l-.08.08h-.17c-.16-.15-.3-.32-.42-.5v-.08c-.23-.37-.52-.71-.84-1.01-.22-.13-.44-.24-.67-.34h-.08c-.21-.08-.41-.19-.59-.34-.73-.76-1.28-1.68-1.6-2.69.32 1 .8 1.93 1.43 2.77.16.3.3.61.42.92.08.4.25.77.5 1.09.21.25.47.45.76.59.08 0 .17.08.25.08l.5.25c.67.59 1.21 1.3 1.6 2.1v.08l-.08.08c-.17.08-.25 0-.76-.59-.26-.38-.57-.71-.92-1.01l-.5-.25c-.1-.07-.22-.1-.34-.08-.37-.07-.71-.28-.92-.59-.4-.49-.74-1.03-1.01-1.6-.08-.08-.08-.25-.17-.42-.08-.13-.13-.27-.17-.42 0-.05-.03-.08-.08-.08.08.29.19.57.34.84.15.36.34.7.59 1.01.18.3.35.61.5.92.13.27.25.55.34.84l.08.25c.13.35.3.69.5 1.01.27.37.65.64 1.09.76.08 0 .17.08.25.08.23.09.46.21.67.34.63.5 1.15 1.13 1.51 1.85.17.25.17.34.08.42v.08c-.17.08-.34-.08-.76-.59-.31-.36-.65-.69-1.01-1.01-.19-.1-.39-.18-.59-.25-.27-.11-.52-.25-.76-.42-.86-.54-1.53-1.34-1.93-2.27 0-.08-.08-.08-.08-.17.1.26.21.51.34.76.21.39.47.76.76 1.09l.17.17c.24.24.44.53.59.84.17.34.25.67.42 1.01.07.34.21.65.42.92.3.36.67.64 1.09.84.08.08.25.08.34.17.3.14.58.3.84.5.5.34 1.6 1.76 1.43 2.1l-.06.08-.08-.08c-.08 0-.08-.08-.17-.17l-.25-.25-.17-.17c-.43-.58-.97-1.07-1.6-1.43-.17-.08-.25-.08-.34-.17-.35-.08-.67-.25-.92-.5-.78-.79-1.43-1.7-1.93-2.69.24.62.55 1.21.92 1.76.27.35.52.72.75 1.09l.34.42c.17.2.31.43.42.67.06.15.15.29.25.42.23.54.57 1.03 1.01 1.43.23.2.49.36.76.5.29.15.57.31.84.5 0 0 1.26 1.09 1.26 1.51v.17h-.17c-.08 0-.25-.08-.59-.42-.15-.07-.27-.19-.34-.34h-.34c-.17-.17-.34-.25-.42-.34-.22-.13-.44-.24-.67-.34.08.17.25.34.42.59.25.34.59.67 1.01 1.26.54.84.96 1.74 1.26 2.69v.08c.34 1.01.84 2.69 1.35 4.88h-1.01c-.34-1.18-.59-2.27-.92-3.19 0 .08-.08.25-.08.34l-.25.84c.25.76.5 1.35.67 2.02h-.67c-.63-.02-1.26.1-1.85.34.25-1.01.59-2.1 1.01-3.36.25-.67.42-1.26.59-1.85-.24-.77-.58-1.51-1.01-2.19-.11-.19-.26-.35-.42-.5-.42 1.09-.76 2.35-1.26 3.95-.25.76-.42 1.51-.67 2.19.08.59.17 1.26.25 1.85-.34-.17-.71-.26-1.09-.25-.04-1.38-.18-2.76-.42-4.12-.67-4.71-1.18-7.57-2.1-11.85-.11 3.08-.05 6.17.17 9.25.17 2.69.42 4.62.67 6.56h-2.02c-.86-2.95-1.53-5.96-2.02-9v-.08c-.15-.97-.18-1.96-.08-2.94.08-.67.25-1.18.34-1.6v-.07c.08-.25.08-.5.17-.67-.17.18-.31.37-.42.59l-.25.5c-.08.08-.08.25-.17.34l-.17.25c-.25.5-.34.59-.34.67l-.17.08-.08-.17c.03-.67.2-1.33.5-1.93.15-.29.31-.57.5-.84s.35-.55.5-.84c.21-.54.29-1.11.25-1.68v-.5c0-.28.02-.57.08-.84l.08-.5c.09-.44.15-.89.17-1.35.08-.67.08-1.35 0-2.02 0 1.11-.18 2.22-.5 3.28-.13.35-.33.66-.59.92-.1.1-.19.21-.25.34-.44.55-.71 1.23-.76 1.93l-.08.25c0 .17-.08.25-.08.34-.04.08-.07.16-.08.25l-.08.08-.08-.08c-.34-.25 0-2.02.34-2.52.15-.31.35-.6.59-.84l.25-.25c.29-.37.5-.8.59-1.26.04-.34.04-.67 0-1.01-.07-.36-.1-.73-.08-1.09.01-.34.07-.68.17-1.01l.08-.17c.11-.44.16-.89.17-1.35 0-.28-.02-.57-.08-.84v.17c.07 1.03-.16 2.05-.67 2.94-.12.25-.29.48-.5.67-.17.17-.25.34-.42.5-.2.43-.34.88-.42 1.35-.17.67-.25.84-.42.84h-.08l-.08-.08c-.08-.08-.08-.17-.08-.42.06-.81.25-1.61.59-2.35.15-.22.29-.44.42-.67.08-.08.08-.17.17-.25.34-.3.55-.72.59-1.18.08-.39.08-.79 0-1.18v-.17c0-.25-.08-.59-.08-1.01v-2.27c0-.17-.08-.59-.08-.92v.08c-.01.17.02.34.08.5v.42c.01.62-.04 1.24-.17 1.85-.08.35-.25.67-.5.92l-.25.25c-.08.17-.25.25-.34.5-.16.41-.27.83-.34 1.26v.08c-.17.67-.17.84-.42.84h-.09l-.08-.08c-.05-.89.1-1.78.42-2.61.14-.15.25-.32.34-.5.08-.08.08-.17.17-.17.21-.24.35-.53.42-.84.08-.39.08-.79 0-1.18-.07-.33-.1-.67-.08-1.01.13-1.03.13-2.08 0-3.11.14 1.04.05 2.1-.25 3.11-.08.25-.25.34-.42.5-.19.21-.35.43-.5.67-.22.48-.36.99-.42 1.51v.08c-.02.2-.04.39-.08.59-.04.05-.1.08-.17.08h-.08l-.08-.08c-.12-.92.02-1.85.42-2.69.56-.91.68-2.02.34-3.03 0-.17-.08-.34-.08-.59v-.84c-.03-.51-.08-1.01-.17-1.51.08.56.08 1.12 0 1.68-.04.3-.16.59-.34.84-.09.09-.15.21-.17.34-.18.4-.27.83-.25 1.26 0 .17 0 .25-.08.34v.17h-.17l-.08-.08c-.18-.58-.18-1.19 0-1.76.2-.39.26-.83.17-1.26-.03-.32-.12-.63-.25-.92-.1-.19-.18-.39-.25-.59-.08-.17-.08-.42-.17-.59 0-.12-.03-.23-.08-.34 0-.17-.08-.34-.08-.5s-.08-.42-.08-.59v-.24c-.02.23 0 .46.08.67 0 .34.08.67.08.92.03.37-.03.75-.17 1.09-.06.07-.1.16-.08.25-.13.26-.22.55-.25.84.06.47.2.92.42 1.35.28.49.43 1.04.42 1.6v.07l-.17.08h-.08c-.08 0-.08-.08-.25-.5v-.08c-.06-.25-.17-.48-.34-.67-.15-.19-.31-.35-.5-.5-.24-.18-.44-.41-.59-.67-.29-.49-.49-1.04-.59-1.6-.01.15.02.29.08.42.07.32.19.63.34.92.19.43.3.88.34 1.35v.25c-.01.23.01.46.08.67.19.31.45.57.76.76.31.15.57.38.76.67.45.71.71 1.52.76 2.35 0 .05-.03.08-.08.08h-.17c-.08 0-.17-.17-.17-.25-.08-.08-.08-.25-.17-.42l-.08-.08c-.14-.44-.34-.87-.59-1.26-.22-.29-.51-.52-.84-.67-.37-.21-.68-.5-.92-.84-.36-.58-.64-1.2-.84-1.85-.01.09.02.18.08.25.17.5.25.84.42 1.26.17.34.25.67.42 1.09.08.34.08.59.17.92v.25c-.01.38.14.75.42 1.01.33.35.73.64 1.18.84.43.18.81.47 1.09.84.37.58.58 1.25.59 1.93v.08h-.09c-.14 0-.24-.12-.25-.25-.08-.17-.08-.25-.17-.42-.13-.42-.33-.82-.59-1.18-.28-.24-.59-.44-.92-.59-.53-.21-1-.56-1.35-1.01-.54-.7-.94-1.5-1.18-2.35.16.66.38 1.31.67 1.93l.08.17c.3.71.56 1.44.76 2.19.17.84 1.01 1.43 1.76 1.93.08.1.2.17.34.17.13.06.24.15.34.25.79.71 1.25 1.71 1.26 2.77v.08l-.17.08c-.08 0-.17-.08-.25-.25l-.25-.5c-.18-.51-.44-.99-.76-1.43-.31-.3-.68-.53-1.09-.67-.53-.21-1-.56-1.34-1.01-.62-.85-1.05-1.83-1.26-2.87.08.34.17.67.25 1.09.17.42.34.76.5 1.18l.08.17c.18.33.35.66.5 1.01.16.38.3.78.42 1.18l.08.25c.07.47.28.9.59 1.26.37.43.83.78 1.34 1.01.46.22.88.5 1.26.84.51.57.75 1.34.67 2.1l-.08.08h-.08c-.17 0-.17-.17-.25-.25 0-.08-.08-.17-.08-.25v-.08c-.09-.33-.23-.64-.42-.92-.29-.33-.67-.56-1.09-.67-.19-.1-.39-.18-.59-.25-.25-.09-.48-.23-.67-.42-.67-.65-1.22-1.42-1.6-2.27-.18-.32-.32-.66-.42-1.01l.17.5c.07.2.15.4.25.59.08.25.25.5.34.76v.08l.34.59c.2.32.37.66.5 1.01.14.23.22.49.25.76 0 .08.08.17.08.34 0 .08.08.25.08.34.15.54.48 1.01.92 1.35.35.28.75.48 1.18.59.15.09.32.15.5.17.18.08.35.2.5.34.52.55.85 1.26.92 2.02v.67l-.34-.92c-.06-.07-.1-.16-.08-.25l-.08-.17c-.25-.5-.5-1.26-.92-1.51-.27-.21-.59-.35-.92-.42-.39-.11-.76-.28-1.09-.5-.81-.54-1.4-1.34-1.68-2.27v-1.09c0-.25-.08-.59-.08-.92l-.08-.5v.24c.04.31.04.62 0 .92l-.08 1.09-.25-.67v.08c.08.17.08.42.17.67-.08.58-.31 1.14-.67 1.6-.21.32-.46.6-.76.84-.27.23-.53.48-.76.76-.25.55-.36 1.16-.34 1.76v.17c.01.09-.02.18-.08.25l-.17.25-.08-.25c0-.08-.08-.08-.08-.17-.23-.72-.2-1.49.08-2.19.08-.18.2-.35.34-.5l.42-.42c.35-.27.63-.62.84-1.01.24-.5.35-1.05.34-1.6 0-.08-.08-.25-.08-.34s-.08-.17-.08-.34-.08-.5-.08-.84c0-.37.06-.74.17-1.09 0-.25.08-.5.08-.76l.08-.67v-.08c.01-.31-.02-.62-.08-.92v.92c-.07.92-.26 1.83-.59 2.69-.11.24-.25.47-.42.67l-.42.42c-.37.27-.64.65-.76 1.09v1.43c.01.12-.02.24-.08.34h-.08l-.08-.08c-.34-.68-.4-1.46-.17-2.19.2-.47.49-.9.84-1.26.4-.41.72-.89.93-1.43.11-.44.14-.9.08-1.35v-.25c-.07-.42-.09-.84-.06-1.27 0-.42.08-.84.08-1.18v-.25c.08-.42.08-.84 0-1.26 0-.37-.06-.74-.17-1.09.15 1.03.12 2.09-.08 3.11-.18.55-.49 1.04-.93 1.43-.3.29-.56.63-.76 1.01-.14.52-.2 1.06-.17 1.6v.5c.01.12-.02.24-.08.34h-.17l-.08.17c-.36-.99-.3-2.08.17-3.03.1-.1.19-.21.25-.34.08-.08.17-.25.25-.34.59-.67.92-1.54.93-2.44-.13-.75-.19-1.51-.17-2.27v-.16c.02-.68-.03-1.35-.17-2.02.12.9.07 1.81-.17 2.69-.19.57-.5 1.09-.93 1.51-.24.26-.47.54-.67.84-.16.4-.19.84-.08 1.26v.42c0 .17 0 .34-.17.34h-.08l-.08-.08c-.28-.63-.37-1.33-.25-2.02.12-.46.38-.88.76-1.18.33-.34.59-.74.76-1.18.13-.32.13-.68 0-1.01 0-.08-.08-.17-.08-.25-.08-.25-.17-.59-.25-.92v-2.69c.06.67.03 1.35-.08 2.02-.06.4-.24.78-.5 1.09-.25.29-.42.64-.5 1.01-.07.44-.1.9-.08 1.35v.5c0 .08 0 .34-.17.34-.06 0-.12-.04-.17-.08-.28-.78-.37-1.62-.25-2.44.09-.33.23-.64.42-.92.24-.25.39-.58.42-.92-.02-.23-.07-.46-.17-.67 0-.06-.04-.12-.08-.17-.12-.44-.21-.89-.25-1.35v-.08c.01-.31-.01-.62-.08-.92 0-.17-.08-.25-.08-.42.12.55.15 1.12.08 1.68-.06.3-.17.58-.34.84-.07.2-.15.4-.25.59-.08.17 0 .5 0 .76v.08c0 .42 0 .5-.08.59l-.08.08h-.17l-.08-.08c-.22-.5-.31-1.05-.25-1.6.06-.45.03-.91-.08-1.35-.12-.25-.29-.48-.5-.67-.08-.08-.17-.17-.25-.17-.25-.27-.45-.58-.59-.92-.07-.32-.19-.63-.34-.92-.08-.25-.17-.42-.25-.67 0 .08.08.17.08.25.08.17.08.42.17.59.04.2.1.4.17.59l.08.25c.06.19.09.39.08.59v.67c-.06.31-.03.63.08.92.09.43.33.82.67 1.09.42.43.66 1 .67 1.6v.08h-.08c-.17.08-.25-.17-.34-.34-.17-.39-.4-.76-.67-1.09-.08-.08-.25-.17-.34-.25-.26-.18-.49-.41-.67-.67-.25-.42-.44-.88-.59-1.35v.08c.08.42.25.76.34 1.18.09.18.15.38.17.59l.08.25c.09.18.15.38.17.59.11 1.02.63 1.96 1.43 2.61.69.63 1.19 1.45 1.43 2.35v.08l-.08.08h-.17c-.12-.16-.23-.33-.34-.5v-.08c-.18-.39-.43-.73-.76-1.01-.2-.17-.43-.31-.67-.42h-.1c-.21-.08-.41-.19-.59-.34-.43-.5-.77-1.07-1.01-1.68v.17c.2.56.45 1.09.76 1.6.15.29.24.6.25.92.05.39.19.77.42 1.09.19.26.45.47.76.59.06 0 .12.04.17.08.17.08.34.25.5.34.65.63 1.14 1.41 1.43 2.27v.08l.5-.08c-.17.08-.25 0-.67-.67-.26-.38-.54-.74-.84-1.09-.17-.08-.34-.25-.5-.34-.08-.08-.25-.08-.34-.17-.35-.12-.65-.36-.84-.67-.38-.5-.67-1.07-.84-1.68-.08 0-.08-.08-.17-.25 0-.08-.08-.17-.08-.25v.17c.08.13.13.27.17.42.17.42.34.76.5 1.09s.25.59.42 1.01c.16.28.25.6.25.92l.08.25c.12.37.26.74.42 1.09.25.5.59.59 1.01.84.08.08.17.08.25.17.23.13.46.27.67.42.57.57 1.05 1.22 1.43 1.93.11.11.15.28.08.42v.08h-.08c-.17.08-.34-.08-.67-.67-.28-.38-.59-.75-.93-1.09-.15-.14-.32-.25-.5-.34-.27-.11-.52-.25-.76-.42-.8-.63-1.41-1.48-1.77-2.44q0-.08-.08-.17c.07.26.16.51.25.76.15.43.38.83.67 1.18l.08.17c.2.26.36.54.5.84.15.32.26.66.34 1.01v.08c.07.32.19.63.34.92.25.39.6.71 1.01.92.08.08.17.08.34.17.3.17.58.36.84.59.5.42 1.43 1.93 1.26 2.27l-.08.08-.08-.08-.17-.17c-.1-.08-.17-.2-.17-.34l-.17-.17c-.34-.62-.83-1.14-1.43-1.51-.09-.09-.21-.15-.34-.17-.34-.15-.65-.34-.93-.59-.75-.83-1.32-1.8-1.68-2.86.17.65.43 1.27.76 1.85.19.41.42.8.67 1.18l.25.42c.16.23.28.48.34.76.08.13.13.27.17.42.21.54.5 1.05.84 1.51.23.22.48.42.76.59.3.17.58.36.84.59.45.49.84 1.03 1.18 1.6v.17l-.17-.08c-.08 0-.17-.08-.59-.42l-.5-.5c-.17-.17-.34-.34-.42-.34-.17-.08-.42-.34-.59-.42.08.17.25.34.42.59.34.43.65.88.93 1.35.45.88.79 1.81 1.01 2.77v.08c.67 2.88 1.15 5.8 1.43 8.74h-.92c-.67-5.72-1.51-9.42-2.35-10.93-.72-.79-1.51-1.52-2.35-2.19-.08.59-.08 1.09-.17 1.6 1.17 2.8 2.1 5.7 2.77 8.66.25 1.01.42 1.85.59 2.61-.55-.17-1.09-.4-1.6-.67-.01-.59.01-1.18.08-1.76-.42-1.6-.76-2.94-1.09-4.12-.25.91-.45 1.84-.59 2.77-.08.59-.17 1.18-.25 1.68-.49-.5-.92-1.07-1.26-1.68.17-3.28.42-6.72.76-11.35l.08-1.26s-.03-.08-.08-.08c-.25 1.09-.42 2.19-.76 3.62-.42 2.02-.76 3.87-1.01 5.46v.67c0-.34-.08-.59-.08-.92v-41.74h.34c.71-.06 1.42-.2 2.1-.42.65-.22 1.25-.56 1.77-1.01.08-.08.17-.17.25-.17.75-.64 1.65-1.07 2.61-1.26.78-.14 1.57-.19 2.35-.17.65.01 1.29-.02 1.93-.08h.08l.08.08c.06.49.18.97.34 1.43l.08.17-.17.08c-.65 0-1.3-.05-1.93-.17-.25 0-.5-.08-.76-.08h-.25c-.62-.03-1.24.03-1.85.17-.42.08-.67.25-.84.25h-.08c-.38.2-.74.43-1.09.67-.22.15-.44.29-.67.42-.62.36-1.31.56-2.02.59-.53.06-1.07.09-1.6.08.67.08 1.35.08 2.02 0 .56-.08 1.1-.25 1.6-.5l.34-.17c.32-.17.66-.31 1.01-.42.52-.15 1.06-.27 1.6-.34.53-.02 1.07 0 1.6.08h.25l-.17.17c-.29.41-.52.87-.67 1.34-.24.64-.58 1.23-1.01 1.76-.41.44-.86.83-1.35 1.17-.21.14-.43.26-.67.34l.76-.25c.53-.23 1.04-.51 1.51-.84.4-.33.74-.73 1.01-1.18.08-.08.08-.17.17-.25.39-.68.94-1.26 1.6-1.68.08-.08.17-.08.25-.17.08 0 .08-.08.17-.08h.17c.47.08.95.14 1.43.17h.17l-.08.17c0 .08-.08.17-.08.25 0 .05-.03.08-.08.08v.08h-.17c-.46.16-.91.36-1.34.59-.25.17-.42.34-.59.42l-.08.08c-.24.27-.46.55-.67.84-.17.17-.34.42-.42.5-.36.42-.82.74-1.34.92l-.5.25.76-.25c.4-.19.77-.45 1.09-.76l.17-.08c.28-.31.59-.59.92-.84.32-.23.66-.42 1.01-.59.22-.1.44-.18.67-.25l.34-.08-.17.34c-.19.38-.42.75-.67 1.09-.45.64-.85 1.31-1.18 2.02-.37.99-.51 2.05-.42 3.11.11.9.03 1.82-.25 2.69-.33 1.01-.84 1.95-1.51 2.77.38-.26.72-.57 1.01-.92.47-.53.86-1.13 1.18-1.76.3-.6.47-1.26.5-1.93 0-.12.03-.23.08-.34.1-.98.41-1.93.92-2.77.44-.64.94-1.23 1.51-1.76.42-.42.92-.92 1.34-1.43l.08-.17.17.08c.38.31.81.57 1.26.76l.17.08-.08.17c-.48.45-.99.87-1.52 1.27-.17.17-.42.34-.59.5-.08.08-.17.08-.17.17-.46.42-.86.9-1.18 1.43-.16.27-.3.55-.42.84v.09c-.14.41-.26.83-.34 1.26-.08.25-.14.5-.17.76-.2.68-.55 1.31-1.01 1.85-.32.43-.69.82-1.09 1.18.54-.41 1.02-.89 1.43-1.43.37-.45.66-.96.84-1.51l.17-.34c.17-.42.34-.84.42-1.09.25-.49.56-.94.92-1.34.34-.34.76-.67 1.18-1.09l.17-.17v.25c.06.51.23.99.5 1.43.31.63.48 1.32.5 2.02.04.59-.02 1.19-.17 1.76-.09.22-.14.44-.17.67.13-.22.24-.44.34-.67.2-.55.37-1.11.5-1.68.05-.53.03-1.07-.08-1.6 0-.08-.08-.17-.08-.34-.21-.77-.21-1.58 0-2.35 0-.08.08-.17.08-.25s0-.08.08-.17v-.08h.08c.4-.27.76-.58 1.09-.92l.17-.17.08.17c0 .06.04.12.08.17l.08.17.08.08-.08.08c-.22.43-.38.88-.5 1.34-.06.22-.09.45-.08.67v.08c0 .37.02.73.08 1.09 0 .25.08.5.08.67 0 .54-.08 1.08-.25 1.6-.09.15-.15.32-.17.5.09-.23.21-.46.34-.67.18-.42.27-.88.25-1.34v-.16c-.02-.42 0-.85.08-1.26.05-.38.16-.75.34-1.09.09-.23.21-.46.34-.67l.17-.34.08.34c.15.41.26.83.34 1.26.12.77.31 1.54.59 2.27.39.96 1.03 1.81 1.85 2.44.68.56 1.25 1.24 1.68 2.02.47.95.76 1.97.84 3.03.08-.44.1-.89.08-1.35-.06-.71-.2-1.42-.42-2.1-.24-.64-.58-1.23-1.01-1.76-.08-.08-.17-.17-.17-.25-.64-.75-1.07-1.64-1.26-2.61-.14-.78-.19-1.57-.17-2.35.01-.65-.02-1.29-.08-1.93v-.08l.08-.08c.49-.06.97-.18 1.43-.34l.17-.08.08.17c0 .65-.05 1.3-.17 1.93 0 .25-.08.5-.08.76v.25c-.03.62.03 1.24.17 1.85.08.42.25.67.25.84v.08c.08.25.42.67.59 1.09.15.22.29.44.42.67.36.62.56 1.31.59 2.02.06.53.09 1.07.08 1.6.08-.67.08-1.35 0-2.02-.08-.56-.25-1.1-.5-1.6l-.17-.34c-.17-.32-.31-.66-.42-1.01-.15-.52-.27-1.06-.34-1.6-.01-.53.02-1.07.08-1.6v-.25l.17.17c.41.29.87.52 1.35.67.64.24 1.23.58 1.76 1.01.44.41.83.86 1.18 1.34.14.21.26.43.34.67l-.25-.76c-.23-.53-.51-1.04-.84-1.51-.33-.4-.72-.74-1.17-1-.08-.08-.17-.08-.25-.17-.68-.39-1.26-.94-1.68-1.6-.06-.07-.1-.16-.08-.25q0-.08-.08-.08v-.17c.08-.47.14-.95.17-1.43v-.17l.17.08c.06 0 .12.04.17.08.05 0 .08.03.08.08h.08v.25c.16.46.36.91.59 1.34.17.25.34.42.42.59l.08.08c.17.17.5.42.76.67.17.17.42.34.5.42.39.38.71.84.92 1.34l.25.5-.25-.76c-.19-.4-.45-.77-.76-1.09l-.17-.17c-.25-.34-.76-.76-.84-.92-.23-.32-.42-.66-.59-1.01-.1-.22-.18-.44-.25-.67l-.08-.34.34.17c.41.19.8.42 1.18.67.64.45 1.31.85 2.02 1.18.99.37 2.05.51 3.11.42.9-.11 1.82-.03 2.69.25 1.01.33 1.95.84 2.77 1.51-.26-.38-.57-.72-.92-1.01-.53-.47-1.13-.86-1.76-1.18-.6-.3-1.26-.47-1.93-.5-.12 0-.23-.03-.34-.08-.98-.1-1.93-.41-2.77-.92-.64-.44-1.23-.94-1.76-1.51-.42-.42-.92-.92-1.43-1.34l-.08-.08v-.08c.31-.38.57-.81.76-1.26l.08-.17.17.08c.45.48.87.99 1.26 1.51.17.17.34.42.5.59.08.08.08.17.17.17.42.46.9.86 1.43 1.18l.84.42h.08c.41.14.83.26 1.26.34.25.08.5.14.76.17.68.2 1.31.55 1.85 1.01.43.32.82.69 1.18 1.09-.41-.54-.89-1.02-1.43-1.43-.47-.34-.98-.62-1.51-.84l-.34-.08c-.42-.17-.84-.34-1.09-.42-.49-.25-.94-.56-1.35-.92-.34-.34-.67-.67-1.09-1.18l-.17-.17.25-.08c.5-.08.99-.25 1.43-.5.63-.31 1.32-.48 2.02-.5.59-.04 1.19.02 1.76.17.22.09.44.14.67.17-.22-.13-.44-.24-.67-.34-.54-.22-1.1-.36-1.68-.42-.53-.05-1.07-.03-1.6.08-.08 0-.17.08-.34.08-.77.21-1.58.21-2.35 0-.08 0-.17-.08-.25-.08s-.08 0-.08-.08h-.08v-.08c-.27-.42-.58-.81-.92-1.18l-.17-.17.17-.08c.08 0 .08-.08.17-.08.05 0 .08-.03.08-.08l.08-.08.08.08.08.08c.43.2.88.37 1.35.5.25.06.5.09.76.08h.08c.37 0 .74-.02 1.1-.09.25 0 .5-.08.67-.08.54-.01 1.09.07 1.6.25.15.09.32.15.5.17-.23-.1-.46-.21-.67-.34-.43-.16-.89-.24-1.35-.25h-.17c-.42.02-.85 0-1.26-.08-.38-.05-.75-.16-1.09-.34-.23-.09-.46-.21-.67-.34l-.34-.17.34-.08c.43-.16.88-.28 1.34-.34.77-.12 1.54-.31 2.27-.59.96-.39 1.81-1.03 2.44-1.85.56-.68 1.24-1.25 2.02-1.68.95-.47 1.97-.76 3.03-.84-.44-.08-.89-.1-1.35-.08-.71.06-1.42.2-2.1.42-.64.24-1.23.58-1.76 1.01-.08.08-.17.17-.25.17-.75.64-1.64 1.07-2.61 1.26-.78.14-1.57.19-2.35.17-.65-.01-1.29.02-1.93.08h-.09v-.08c-.06-.49-.18-.97-.34-1.43l-.08-.17.17-.08c.65 0 1.3.05 1.93.17.25 0 .5.08.76.08h.25c.62.03 1.24-.03 1.85-.17.42-.08.67-.25.84-.25h.08c.25-.08.67-.42 1.09-.59.22-.15.44-.29.67-.42.62-.36 1.31-.56 2.02-.59.53-.06 1.07-.09 1.6-.08-.67-.08-1.35-.08-2.02 0-.56.08-1.1.25-1.6.5l-1.01.59c-.34.15-.68.32-1.01.5-.52.15-1.06.27-1.6.34-.53.02-1.07 0-1.6-.08h-.25l.17-.17c.29-.41.52-.87.67-1.35.24-.64.58-1.23 1.01-1.77.41-.44.86-.83 1.35-1.17.21-.14.43-.26.67-.34l-.76.25c-.53.23-1.04.51-1.51.84-.4.33-.74.73-1.01 1.18-.17 0-.25.08-.25.17-.39.68-.94 1.26-1.6 1.68-.07.06-.16.1-.25.08-.05 0-.08.03-.08.08h-.17c-.47-.08-.95-.14-1.43-.17h-.17l.08-.17c0-.06.04-.12.08-.17v-.17h.17c.46-.16.91-.36 1.35-.59.25-.17.42-.34.59-.42l.08-.08c.17-.17.42-.5.67-.76.17-.17.34-.42.42-.5.37-.43.83-.77 1.35-1.01l.5-.25-.76.25c-.4.19-.77.45-1.09.76l-.17.17c-.28.31-.59.59-.92.84-.32.23-.66.42-1.01.59-.22.1-.44.18-.67.25l-.34.08.17-.34c.19-.41.42-.8.67-1.18.45-.64.85-1.31 1.18-2.02 0-.08.08-.17.08-.25h18.67l.08 43.21z"/></g></svg>