<svg viewBox="0 0 180 180" xmlns="http://www.w3.org/2000/svg"><circle cx="90" cy="90" fill="#fff" r="90"/><path d="m32.45 127.91h-2.98l-6.84-10.57v10.57h-3.36v-17.28h2.98l6.8 10.57v-10.57h3.36v17.28h.03z" fill="#cfbb7e"/><path d="m49.16 121.99c.05 3.32-2.6 6.05-5.92 6.1-.14 0-.28 0-.42 0-3.3.18-6.11-2.35-6.29-5.64 0-.15-.01-.3 0-.45v-11.36h3.36v11.23c0 1.99 1.12 3.19 2.94 3.19 1.58.07 2.92-1.15 3-2.73 0-.15 0-.31-.02-.46v-11.23h3.36v11.36z" fill="#cfbb7e"/><path d="m59.35 110.63c2.05-.12 4.02.84 5.18 2.53 1.08 1.49 1.08 3.27 1.08 6.13s-.04 4.64-1.08 6.13c-1.18 1.68-3.13 2.63-5.18 2.53h-6.22v-17.32zm-2.86 2.98v11.27h2.57c.97.06 1.9-.34 2.53-1.08.62-.75.7-1.82.7-4.56s-.08-3.81-.7-4.56-1.56-1.15-2.53-1.08h-2.57z" fill="#cfbb7e"/><path d="m80.65 113.61h-7.96v4.06h6.8v3.03h-6.8v4.19h7.96v3.03h-11.36v-17.28h11.36v2.98z" fill="#cfbb7e"/><path d="m87.53 124.93h7.79v3.03h-11.15v-17.32h3.36v14.3z" fill="#cfbb7e"/><g fill="#707070"><path d="m110.45 112.5-2.11 2.11c-.94-.89-2.23-1.33-3.52-1.2-1.78 0-2.65.99-2.65 2.2-.02.47.16.92.5 1.24.44.38.99.61 1.57.66l2.07.33c1.22.06 2.38.54 3.27 1.37.94.97 1.42 2.3 1.33 3.65 0 3.36-2.74 5.26-6.38 5.26-2.61 0-4.6-.54-6.3-2.28l2.2-2.2c1.13 1.02 2.62 1.54 4.14 1.45 1.99 0 3.07-.79 3.07-2.16.03-.54-.17-1.06-.54-1.45-.43-.37-.97-.57-1.53-.58l-2.07-.33c-1.24-.09-2.41-.61-3.32-1.45-.87-.91-1.32-2.14-1.24-3.4 0-3.07 2.28-5.26 6.01-5.26 2.04-.13 4.04.61 5.51 2.03z"/><path d="m126.37 127.91h-3.36v-7.21h-5.84v7.25h-3.36v-17.32h3.36v7.05h5.84v-7.05h3.36z"/><path d="m141.5 112.29c1.7 1.7 1.74 3.69 1.74 6.96s-.04 5.26-1.74 6.96c-1.22 1.21-2.88 1.87-4.6 1.82-1.72.06-3.39-.6-4.6-1.82-1.7-1.74-1.74-3.69-1.74-6.96s.04-5.26 1.74-6.96c1.22-1.21 2.88-1.87 4.6-1.82 1.72-.06 3.39.6 4.6 1.82zm-6.76 2.11c-.66.75-.83 1.57-.83 4.85s.21 4.1.83 4.85c.55.61 1.33.95 2.15.95.82.02 1.61-.33 2.15-.95.66-.75.83-1.53.83-4.85s-.21-4.15-.83-4.85c-1.15-1.19-3.05-1.22-4.24-.07-.02.02-.05.04-.07.07z"/><path d="m155.05 110.63c2.98-.2 5.55 2.05 5.75 5.03s-2.05 5.55-5.03 5.75c-.24.02-.48.02-.72 0h-3.32v6.51h-3.36v-17.28h6.67zm-3.32 2.98v4.77h3.15c1.3.06 2.41-.95 2.47-2.25s-.95-2.41-2.25-2.47c-.07 0-.15 0-.22 0h-3.15v-.04z"/><path d="m81.97 98.77c1.2 0 2.17-.97 2.17-2.17s-.97-2.17-2.17-2.17-2.17.97-2.17 2.17c0 1.2.97 2.17 2.16 2.17m50.62 6.85v-3.04h-6.97v-14.42h-3.41v17.46zm-32.24-4.02c.28-1.02.41-2.08.38-3.14v-2.55h-6.58v2.85h3.22v.66c0 .43-.07.87-.2 1.28-.19.5-.47.95-.85 1.33-.59.53-1.38.79-2.17.71-.76.06-1.52-.21-2.06-.75-.42-.46-.7-1.02-.81-1.63-.13-1.15-.18-2.31-.15-3.46-.03-1.14.02-2.29.16-3.43.11-.62.4-1.2.82-1.67.54-.54 1.28-.81 2.04-.75 1.56-.11 2.93 1.01 3.14 2.55h3.43c-.22-1.52-.94-2.93-2.05-4-1.24-1.11-2.86-1.69-4.52-1.59-.89-.02-1.78.15-2.61.48-.83.37-1.58.89-2.21 1.55-.7.68-1.16 1.57-1.34 2.53-.21 1.43-.3 2.88-.27 4.33-.03 1.45.05 2.9.26 4.33.17.95.63 1.82 1.32 2.5.64.66 1.41 1.19 2.25 1.56.82.33 1.7.5 2.59.49.91 0 1.82-.16 2.67-.48.85-.33 1.62-.85 2.25-1.51.59-.62 1.03-1.37 1.28-2.19m-39.56 4.02v-3.04h-6.97v-14.42h-3.41v17.46zm83.7-11.83c-.06-.55-.27-1.07-.6-1.51-.28-.35-.64-.63-1.06-.81-.48-.19-.99-.28-1.5-.27h-2.57v11.38h2.57c.87.09 1.73-.21 2.34-.82.43-.51.71-1.13.81-1.79.11-1.05.15-2.1.14-3.15.02-1.01-.03-2.02-.14-3.03m3.24 7.64c-.23.97-.74 1.84-1.46 2.53-.57.56-1.26.98-2.02 1.24-.83.29-1.71.43-2.59.43h-6.3v-17.46h6.3c.87 0 1.75.13 2.58.4.83.3 1.57.78 2.18 1.41.65.63 1.11 1.44 1.31 2.33.23 1.12.33 2.26.31 3.41v2.21c.02 1.18-.08 2.35-.31 3.51m-33.15-4.53c.03 1.12-.03 2.25-.18 3.36-.12.64-.4 1.24-.83 1.73-.53.54-1.27.81-2.02.75-.77.06-1.53-.22-2.07-.76-.42-.45-.71-1.02-.82-1.63-.13-1.15-.18-2.3-.15-3.45-.03-1.14.02-2.29.16-3.43.07-.52.28-1.02.61-1.42.28-.32.62-.57 1-.75.4-.17.83-.25 1.26-.24.83-.03 1.64.31 2.18.94.36.43.6.95.69 1.5.15 1.13.2 2.27.17 3.41m3.41 0c.03-1.44-.06-2.88-.28-4.31-.18-.97-.65-1.86-1.35-2.55-.63-.66-1.39-1.18-2.22-1.55-1.69-.64-3.55-.64-5.24 0-.83.37-1.58.89-2.21 1.55-.7.68-1.16 1.57-1.33 2.53-.21 1.43-.3 2.88-.27 4.33-.03 1.45.05 2.9.26 4.33.17.96.64 1.84 1.34 2.52.63.66 1.39 1.19 2.23 1.56.83.33 1.72.49 2.62.48.9.02 1.79-.14 2.63-.48.78-.34 1.49-.83 2.08-1.44.75-.71 1.26-1.63 1.47-2.64.21-1.43.3-2.88.27-4.33m-46.01 2c-.46-.43-1.07-.65-1.7-.6h-3.56v4.29h3.56c.62.04 1.24-.18 1.69-.61.4-.42.61-.97.59-1.55.02-.57-.19-1.12-.58-1.53m-.27-7.14c-.46-.39-1.05-.59-1.66-.55h-3.34v4.02h3.34c.61.04 1.2-.16 1.67-.55.4-.38.62-.92.59-1.47.02-.55-.2-1.08-.6-1.46m1.85 4.92c.68.32 1.26.8 1.7 1.4.5.74.75 1.63.7 2.53.08 1.39-.46 2.74-1.47 3.7-1.08.92-2.46 1.39-3.88 1.33h-7.31v-17.46h7.02c1.44-.08 2.86.38 3.96 1.31.98.93 1.5 2.24 1.43 3.59.02.81-.21 1.6-.66 2.27-.37.57-.89 1.03-1.5 1.33m-31.69 2.98h-4.34l2.2-6.35zm5.49 5.96-6.39-17.46h-2.67l-6.35 17.46h3.56l1.06-3.09h6.21l1.03 3.09z"/><path d="m90.1 71.99c-.11-.13-.21-.28-.28-.44-.04-.1-.06-.2-.05-.31-.14-.11-.26-.24-.36-.38-.19-.16-.4-.33-.63-.5.45.61.86 1.24 1.22 1.91.03-.09.06-.18.1-.27z"/><path d="m86.79 69.69c-.12.5-.16 1.02-.12 1.53.16.62.36 1.32.61 2.16l.11.38-.24-.32-.14-.18c.11.5.25 1.08.42 1.74l.17.34c-.03-.22-.05-.45-.08-.67-.03-.28-.06-.55-.08-.83-.08-.93-.14-1.87-.17-2.79l-.1-.26c-.15-.4-.28-.76-.4-1.1z"/><path d="m83.78 69.87c-.15-.21-.27-.44-.37-.67-.01.04 0 .53-.02.75.08.52.17 1.05.26 1.66.3.68.56 1.28.77 1.84 0-.44.01-.86.02-1.27-.06-.22-.12-.45-.19-.68-.1-.37-.47-1.63-.47-1.63z"/><path d="m100.07 68.33s.07-.09.1-.13c.25-.55.51-1.08.83-1.67-.39.4-.75.79-1.1 1.19.06.21.11.41.17.61z"/><path d="m98.01 69.33c-.03-.5-.05-.92-.06-1.34-.07-.24-.2-.46-.38-.63v-.02c-.14.97-.22 1.95-.23 2.94l.05-.08c.2-.29.41-.58.61-.87z"/><path d="m96.49 74.86c.34-.86.72-1.69 1.14-2.51.17-.34.34-.67.51-.98 0-.55 0-.98-.01-1.35l-.33.47c-.61.89-1.09 1.62-1.51 2.32.05.64.12 1.33.19 2.06z"/><path d="m89.6 72.59c-.31-.73-.56-1.28-.82-1.79.17.96.33 1.95.54 3.29l.02.15c.13-.42.27-.85.41-1.28l-.12-.29z"/><path d="m93.64 72.74c.16-.74.37-1.48.63-2.19.02-.19.03-.38.05-.58-.02-.04-.04-.08-.06-.11-.05-.09-.12-.2-.2-.31-.24.64-.44 1.26-.69 2.14l-.06.19c.1.26.2.53.31.85v.02z"/><path d="m93.96 73.68c.23.7.41 1.41.56 2.13.03-.63.08-1.3.16-2.12.07-.73.12-1.25.18-1.72-.06-.36-.13-.7-.2-.99-.26.77-.47 1.56-.63 2.37-.02.11-.05.22-.07.33z"/><path d="m96.93 69c-.08.21-.19.4-.34.57-.07.08-.13.18-.18.28-.12.37-.18.75-.19 1.14 0 .28 0 .6.02.94.12-.19.24-.39.38-.6.1-1.21.34-2.44.31-2.33z"/><path d="m87.15 51.91c.85.27 1.78.02 2.38-.64.46-.47.69-1.12.63-1.77-.13.6-.44 1.15-.89 1.57-.58.54-1.34.84-2.12.84z"/><path d="m103.24 44.27-.67-.66s-.03-.02-.05-.02-.03 0-.04.02c-.24.22-.55.34-.87.34h-23.23c-.32 0-.63-.12-.87-.33-.01-.01-.03-.02-.04-.02-.02 0-.03 0-.04.02l-.67.67s-.02.03-.02.04c0 .02 0 .03.02.04.22.24.34.55.34.87v27.1c0 2.85 2.31 5.16 5.16 5.16h5.51c.97 0 1.83.63 2.12 1.55.02.06.08.09.14.07.03-.01.06-.04.07-.07.29-.93 1.15-1.55 2.12-1.55h5.51c2.85 0 5.16-2.31 5.16-5.16v-27.1c0-.32.12-.63.33-.87.01-.01.02-.03.02-.04 0-.02 0-.04-.02-.05zm-.53.28c-.12.21-.19.44-.19.67v27.1c0 2.64-2.14 4.78-4.77 4.78h-6.45c-.4 0-.79.14-1.09.41-.06.04-.13.07-.2.07s-.14-.03-.2-.07c-.3-.26-.69-.4-1.09-.4h-6.45c-2.64 0-4.77-2.14-4.78-4.77v-27.1c-.01-.24-.08-.47-.2-.68 0 0 0-.03-.01-.04 0-.03-.01-.05-.01-.08 0-.18.14-.32.32-.32.04 0 .09.01.13.03.2.12.44.19.67.19h23.23c.24-.01.47-.08.68-.2 0 0 .03 0 .04-.01.02 0 .05-.01.07-.01.18 0 .32.14.32.32s0 .09-.02.13z"/><path d="m101.68 44.96h-23.36c-.14 0-.25.11-.25.26v26.99c0 2.36 1.91 4.28 4.27 4.28h6.38c.36 0 .71.09 1.03.27.08.04.16.06.25.06s.18-.02.25-.07c.31-.18.66-.27 1.02-.27h6.38c2.36 0 4.28-1.91 4.28-4.27v-27c0-.14-.11-.26-.25-.26zm-10.31.37c-.17.21-.36.41-.56.6-.23.21-.45.45-.64.7l-.04.04-.06-.03c-.2-.15-.41-.27-.63-.38l-.06-.03.04-.08c.23-.23.47-.44.73-.62.09-.07.17-.14.25-.2zm-.6 4.35c0 1.62-1.31 2.94-2.94 2.94s-2.94-1.31-2.94-2.94 1.31-2.94 2.94-2.94c1.62 0 2.93 1.32 2.94 2.94zm-1.3-4.35v.04s-.03.04-.03.06v.02s-.03.01-.03.01c-.2.13-.38.28-.54.45l-.06.07-.05-.09s-.03-.06-.04-.09c0-.02-.02-.03-.02-.05l-.02-.04.03-.04s.02-.02.03-.03c.06-.1.1-.21.14-.32h.61zm-.91 0-.04.07-.02-.07zm-1.27 0c0 .18.01.36.04.54l.03.08h-.08c-.24.04-.48.1-.71.18l-.06.02-.03-.09c0-.25.01-.49.05-.73h.78zm-1.45 0s.02.02.03.04c.02.04.04.08.06.12 0 .02.02.04.03.06v.02s.01.02.01.02c-.05.23-.07.46-.07.69v.1s-.09-.03-.09-.03c-.04-.01-.07-.02-.1-.03l-.05-.02h-.04v-.06s0-.03 0-.04c-.07-.23-.17-.45-.3-.66-.05-.08-.1-.15-.16-.21h.7-.01zm-.9 0c.07.11.13.23.18.35.04.09.07.19.11.32l.05.16-.15-.08c-.19-.1-.37-.21-.55-.34-.21-.15-.43-.29-.66-.41h1.01zm-3.84 0c.2.06.4.1.61.13l.15.02c.48.04.95.2 1.36.47.32.22.61.47.87.76.21.23.45.45.7.64l.07.04-.06.06c-.15.2-.27.41-.38.63l-.03.06-.08-.04c-.23-.23-.44-.47-.62-.73-.08-.1-.17-.21-.24-.29-.03-.04-.06-.07-.07-.09-.21-.23-.45-.43-.71-.6-.13-.08-.26-.14-.4-.2l-.04-.02c-.2-.07-.41-.13-.61-.17-.14-.04-.28-.07-.36-.1-.34-.1-.65-.27-.92-.5-.03-.03-.06-.05-.09-.08h.86zm-2.67 0h1.74c.09.08.17.17.26.24.22.18.47.31.74.4l.17.06c.2.07.42.15.52.2.24.12.46.27.66.44.19.18.37.38.53.59l.07.09-.11.02c-.25.05-.49.12-.72.23-.31.15-.64.24-.98.26-.29.01-.57-.01-.86-.06-.12-.03-.23-.06-.35-.1.11.07.23.13.35.18.26.11.54.19.83.23.26.03.52.02.77-.05.05 0 .1-.02.15-.03.38-.1.78-.11 1.16-.02.05.01.1.03.14.05l.06.02h.02s.01.03.01.03c.12.19.27.37.44.53l.07.06-.08.05s-.07.04-.1.05l-.09.04-.04-.03s-.02-.02-.03-.03c-.21-.12-.44-.2-.67-.25-.12-.02-.23-.04-.35-.04h-.05c-.18 0-.35.01-.52.03-.13.01-.25.03-.33.03-.28 0-.55-.04-.81-.14-.09-.03-.18-.06-.25-.09.11.06.23.11.35.15.21.08.44.12.66.11h.08c.21 0 .53.01.63.02.19.03.37.08.55.15.11.04.21.09.31.15l.15.08-.16.05c-.2.06-.41.11-.62.15-.38.06-.75.16-1.11.29-.48.2-.89.52-1.21.93-.28.34-.62.63-1 .84-.31.17-.65.28-1 .35v-6.27zm7.28 30.79c-.1-.63-.19-1.31-.29-2.2-.08-.7-.15-1.33-.21-1.96-.07-.19-.15-.39-.25-.57-.04.97-.05 2-.05 3.36 0 .51 0 .95.01 1.37h-.21c-.36-1.48-.87-2.92-1.52-4.3-.11-.24-.22-.48-.33-.71-.03.21-.04.42-.04.63 0 .2.01.42.03.66.11.35.23.72.35 1.11.16.38.31.78.46 1.21.18.52.31.97.41 1.39h-.51c-.09-.37-.21-.77-.37-1.23-.03-.08-.06-.17-.09-.25.04.34.09.69.14 1.05l.06.44h-.5l-.06-.45c-.2-1.3-.34-2.61-.41-3.92-.01-.43.05-.87.17-1.28.08-.19.18-.36.31-.52.06-.08.12-.17.16-.23v-.02c-.11.08-.22.18-.34.27-.1.08-.21.14-.32.19-.07.04-.14.06-.21.07h-.09s.02-.09.02-.09c0-.02.01-.05.13-.16l.12-.11c.28-.21.51-.49.65-.81.06-.21.07-.43.04-.64-.01-.12-.01-.24-.01-.36 0-.19.02-.39.05-.58l.04-.26.1.24c.07.17.15.33.24.48l.06.1c.11.18.21.37.29.56.05.12.09.23.12.34.05.21.15.41.28.58.26.24.58.42.92.51l.14.05c.07.02.13.05.18.1l.05.08-.09.03c-.07.02-.15.02-.22.01-.12 0-.25-.03-.37-.06-.14-.05-.28-.09-.42-.11.06.04.13.09.2.14l.03.02c.18.1.34.22.49.37.27.34.48.72.64 1.13.43 1.25.79 2.51 1.09 3.79l.14.53h-1.21zm15.11-1.63.34-.57c-.1.2-.21.39-.34.57zm.74-7.94c-.47.84-.89 1.71-1.26 2.6.12.4.25.82.39 1.24.24-.85.53-1.69.86-2.51v1.88c-.23.44-.44.9-.61 1.37.04.11.08.21.11.32.13-.5.29-.98.5-1.45v2.21c0 .46-.08.92-.25 1.35-.33-.83-.67-1.75-1.07-2.94-.27-.81-.46-1.41-.64-2.04 0 .05-.01.1-.02.16-.06.41-.1 1.02-.14 1.85.19.7.38 1.37.68 2.39.19.66.35 1.22.51 1.74-.24.28-.52.53-.82.74.03-.4.08-.82.14-1.28-.1-.35-.21-.71-.31-1.06-.08-.27-.16-.55-.24-.82-.01 1.15-.01 2.34 0 3.3v.1c-.16.08-.33.15-.5.21v-.31c-.06-2.31 0-4.62.19-6.93v-.04c.05-.49.17-.96.34-1.42.11-.25.23-.49.36-.73.06-.1.11-.21.16-.32-.1.07-.19.14-.28.22-.04.04-.11.11-.19.21l-.1.11s-.08.1-.12.15c-.07.1-.16.18-.26.26l-.09.03v-.1c.11-.31.27-.61.47-.87.11-.13.23-.24.36-.34.13-.09.24-.2.33-.32.16-.23.27-.49.32-.77.02-.08.04-.15.06-.23.04-.13.08-.26.14-.38l.11-.23c.1-.22.19-.4.27-.6.12-.31.2-.63.25-.95-.14.53-.36 1.03-.66 1.48-.11.15-.25.27-.41.35-.05.03-.11.07-.17.11-.27.22-.49.5-.62.82l-.04.08c-.04.07-.07.14-.09.19-.02.04-.04.07-.07.1l-.05.04-.04-.05c-.13-.14.26-.93.47-1.17.11-.12.24-.23.37-.32.05-.03.09-.07.14-.11.19-.14.34-.32.45-.52.07-.15.11-.31.12-.47 0-.18.04-.35.09-.52.06-.16.13-.31.21-.46l.04-.09c.1-.19.18-.39.24-.6.03-.12.05-.26.07-.4 0 .03-.01.06-.02.09-.11.49-.35.94-.71 1.3-.1.1-.21.19-.33.26-.09.05-.17.11-.25.18-.15.17-.28.37-.39.58-.16.29-.22.39-.3.37h-.03s-.02-.04-.02-.04c-.01-.03-.02-.06.01-.2.13-.37.32-.72.57-1.03.09-.09.2-.17.3-.24l.11-.08c.19-.11.34-.27.43-.47.07-.18.12-.36.15-.55l.02-.11c.02-.16.05-.31.09-.46.05-.2.1-.36.15-.51.06-.18.11-.36.16-.56.02-.1.05-.28.07-.45v-.03.06c-.03.09-.05.18-.06.26s-.03.16-.04.2c-.07.3-.18.6-.33.87-.08.17-.21.3-.38.38-.04.03-.09.05-.14.09-.08.05-.15.11-.21.18-.14.17-.25.36-.34.56v.02c-.16.31-.22.38-.3.35h-.04s-.02-.06-.02-.06c.09-.43.27-.84.54-1.18.09-.09.17-.15.22-.19l.09-.07c.13-.09.25-.21.33-.35.09-.17.14-.37.14-.56 0-.16.03-.32.08-.48.2-.48.33-.98.39-1.5-.06.52-.24 1.02-.51 1.47-.07.08-.16.15-.25.2h-.02c-.11.08-.22.16-.31.26-.13.17-.23.35-.3.55v.04c-.04.1-.09.19-.15.27-.02.03-.06.04-.09.03h-.04s0-.07 0-.07c.05-.46.24-.89.54-1.23.37-.36.58-.86.56-1.38 0-.1.03-.2.05-.29.01-.04.02-.09.04-.14.02-.08.04-.16.06-.25.06-.24.09-.48.12-.73-.04.28-.11.54-.22.8-.06.14-.16.27-.28.37-.04.04-.09.09-.14.14-.14.16-.23.35-.28.55-.02.08-.05.19-.14.17h-.04s-.02-.05-.02-.05c0-.29.07-.58.24-.83.14-.15.23-.35.25-.56.03-.16.02-.31-.02-.47-.02-.11-.04-.21-.04-.32 0-.1 0-.21.02-.31v-.12c.03-.08.04-.18.05-.29s.03-.21.05-.31c0-.04.01-.08.02-.12-.03.11-.05.23-.07.34-.03.15-.06.31-.1.46-.03.18-.11.35-.22.5-.03.04-.06.08-.09.11-.1.1-.17.23-.21.36-.04.22-.03.45.02.67.08.26.07.54-.02.79l-.02.03h-.07s-.02 0-.02 0c-.03-.02-.04-.05-.06-.28v-.04c0-.12-.02-.25-.05-.37-.04-.1-.09-.2-.16-.29-.09-.12-.15-.25-.2-.39-.07-.27-.1-.54-.07-.82-.01.07-.02.13-.03.2 0 .16 0 .32.03.47.04.23.03.47-.02.69-.01.04-.02.07-.03.1-.04.1-.06.22-.05.33.03.17.12.33.25.44.12.11.22.26.28.41.12.4.13.82.04 1.22-.01.02-.04.04-.07.04h-.03l-.03-.02s-.05-.09-.05-.14-.01-.11-.02-.19v-.08c-.01-.22-.05-.44-.11-.65-.07-.16-.17-.31-.3-.43-.15-.14-.25-.32-.31-.52-.1-.33-.15-.66-.17-1v.11c0 .22.02.43.06.65.03.19.06.37.07.56 0 .15-.01.3-.05.45 0 .04-.02.09-.02.13-.04.17-.02.35.06.51.12.21.27.39.45.54s.33.33.43.55c.11.32.11.67.02 1l-.03.03h-.05c-.07-.01-.08-.1-.09-.16s-.01-.15-.02-.22c0-.21-.04-.42-.13-.61-.11-.14-.23-.27-.36-.39-.22-.18-.4-.41-.53-.67-.16-.41-.24-.84-.23-1.28-.01.33 0 .67.06.99v.07c.07.37.09.75.08 1.12.05.45.27.86.61 1.16l.09.1c.07.07.12.14.18.19.27.44.36.97.25 1.48l-.02.04h-.08s-.05-.08-.07-.17-.03-.18-.04-.28c-.02-.26-.08-.52-.19-.76-.11-.18-.25-.34-.42-.47-.23-.17-.4-.39-.52-.65-.17-.49-.26-1-.25-1.52-.01.17-.02.35-.01.52 0 .21.04.41.09.62l.03.12c.04.15.08.32.11.54.03.21.04.42.03.63v.12c-.01.23.02.46.11.67.12.26.3.48.52.65.19.15.36.34.49.55.17.34.19.73.07 1.09l-.03.04h-.06c-.06-.02-.07-.11-.07-.14s0-.12 0-.2c0-.17-.03-.35-.09-.51-.1-.2-.25-.37-.45-.48-.08-.05-.16-.11-.24-.18-.1-.08-.19-.18-.26-.29-.23-.4-.39-.83-.47-1.28-.03-.15-.05-.3-.06-.46 0 .16 0 .32.03.48.04.25.09.5.16.74.04.16.09.33.13.54.02.13.03.27.03.4v.14s0 .12-.01.18c0 .28.08.55.25.77.13.18.29.33.47.44.07.05.15.1.23.16s.15.13.21.21c.18.33.24.71.17 1.08 0 .04-.01.08-.03.11l-.06.18-.07-.18s-.02-.08-.02-.12v-.08c-.03-.3-.11-.6-.27-.86-.12-.13-.25-.23-.4-.32-.17-.1-.32-.22-.44-.36-.31-.37-.5-.83-.53-1.31-.02-.12-.03-.28-.04-.43v-.1s0 .01 0 .01c0 .27.01.56.01.64.01.26.06.52.12.77l.03.1c.06.2.11.41.14.62.02.13.03.25.03.36 0 .22.04.43.12.63.19.3.44.55.75.73l.13.09c.12.08.14.11.14.14l.04.09h-.1c-.08 0-.15-.02-.22-.04-.12-.04-.23-.09-.34-.15-.12-.08-.24-.15-.37-.22.04.07.11.14.18.21.15.14.27.31.38.48.17.4.28.82.32 1.26.09 1.32.11 2.65.07 3.97-.01 1.08-.02 2.2 0 3.38-.16.04-.33.08-.5.1v-.03c-.03-1.24-.01-2.48 0-3.56v-.02c-.25.5-.47.96-.68 1.43.06.79.14 1.52.25 2.22h-1.6c-.04-.41-.08-.81-.12-1.2-.16-1.31-.25-2.62-.27-3.94 0-.43.08-.87.21-1.28.09-.19.2-.36.33-.51.06-.08.12-.16.16-.22v-.02c-.07.05-.25.19-.35.26s-.21.13-.32.18c-.07.03-.14.06-.22.07h-.1l.03-.09s.04-.07.12-.14c.04-.04.08-.07.13-.11.29-.2.53-.48.69-.79.06-.21.08-.42.06-.64 0-.12 0-.24 0-.36.01-.21.04-.43.08-.64l.02-.1c.05-.26.07-.52.06-.78 0-.15-.02-.4-.04-.62v-.02.07.46c.01.48-.14.96-.41 1.35-.11.16-.25.29-.41.4-.14.1-.27.22-.38.35-.13.27-.19.58-.18.88v.07s0 .1-.03.14l-.07.11-.05-.12s-.02-.07-.03-.1c-.1-.36-.07-.74.08-1.09.05-.08.11-.16.19-.23.07-.07.14-.12.21-.18.18-.13.33-.29.44-.48.14-.24.21-.51.18-.78 0-.06-.02-.11-.03-.17s-.02-.1-.02-.15c-.02-.13-.02-.27 0-.4.02-.22.05-.39.08-.55.05-.25.08-.5.09-.75 0-.16 0-.32-.01-.47 0 .15 0 .31-.02.46-.04.46-.16.91-.35 1.32-.06.12-.14.22-.23.32-.07.07-.14.14-.22.2-.18.13-.32.31-.4.52-.05.17-.06.34-.04.52v.03.17s0 .12-.06.14l-.04.02-.05-.04c-.15-.35-.16-.74-.03-1.1.11-.22.26-.42.44-.59.21-.19.37-.42.46-.69.07-.22.08-.45.05-.68v-.12c-.04-.21-.05-.42-.04-.63.01-.22.04-.4.06-.55l.02-.12c.03-.21.05-.41.04-.62 0-.18-.03-.36-.06-.53.06.52.02 1.04-.11 1.55-.09.27-.25.51-.46.69-.15.14-.28.31-.38.5-.08.25-.12.52-.12.79 0 .09 0 .18-.02.27-.01.1-.02.15-.05.17h-.01s-.07.02-.07.02l-.03-.04c-.16-.49-.11-1.03.12-1.49.04-.05.08-.1.12-.16l.11-.15c.31-.33.49-.76.51-1.21-.04-.38-.05-.75-.02-1.13v-.07c.02-.33.01-.66-.03-.99.05.44 0 .88-.12 1.3-.1.27-.26.51-.47.72-.12.13-.23.27-.33.42-.08.2-.11.41-.08.62v.21c0 .11-.03.16-.08.17h-.04s-.04-.02-.04-.02c-.12-.32-.15-.67-.07-1 .08-.22.21-.42.38-.58.17-.17.3-.37.4-.58.06-.16.07-.35.01-.51-.01-.04-.02-.09-.04-.13-.05-.14-.08-.29-.09-.44 0-.19 0-.38.02-.57.02-.22.02-.43 0-.65 0-.04 0-.08-.01-.11.01.34-.01.68-.08 1.02-.04.2-.13.38-.26.54v.02c-.13.13-.21.29-.26.45-.05.22-.06.44-.05.66v.27c0 .06-.01.16-.09.16-.03 0-.05-.01-.07-.04-.13-.39-.15-.81-.07-1.22.05-.16.13-.31.24-.44.12-.12.2-.29.21-.46 0-.11-.03-.22-.08-.32-.01-.03-.03-.07-.04-.11-.07-.22-.1-.45-.08-.68.01-.16 0-.32-.02-.48-.01-.06-.02-.13-.04-.19.05.27.05.55 0 .82-.03.14-.09.28-.16.4-.06.09-.1.2-.14.3-.02.12-.03.25-.02.37v.03c0 .22 0 .26-.03.29l-.02.02h-.06l-.03-.03c-.11-.25-.14-.52-.09-.79.03-.22.02-.45-.03-.67-.05-.13-.14-.25-.24-.34-.03-.03-.06-.07-.1-.1-.12-.14-.22-.3-.27-.48-.05-.15-.09-.3-.14-.45-.03-.11-.06-.22-.1-.33l.03.11c.03.1.05.2.07.31s.04.18.05.25c.01.05.02.1.03.15.02.1.04.2.04.31s0 .21-.01.32c-.03.16-.02.31.02.47.04.21.14.39.3.53.18.23.29.51.31.8v.04s-.08.03-.08.03h-.04s-.06-.07-.09-.17c-.07-.2-.18-.38-.33-.52-.05-.05-.1-.09-.15-.13-.13-.09-.23-.21-.31-.35-.13-.25-.23-.51-.29-.78.05.24.11.48.18.72.03.08.05.16.08.24l.05.15c.03.09.06.19.08.29.03.52.28 1 .68 1.32.33.32.56.73.64 1.18v.04s-.05.02-.05.02c-.03.01-.07 0-.09-.02-.07-.08-.12-.17-.16-.26v-.03c-.1-.19-.22-.37-.36-.53-.1-.09-.21-.17-.33-.22-.11-.05-.2-.11-.29-.19-.31-.42-.53-.9-.64-1.41.11.5.28.99.51 1.44.07.15.11.32.13.48.02.2.08.39.19.55.09.13.21.24.35.32l.1.07c.07.04.14.1.24.17.3.32.52.71.64 1.13v.04l-.04.03c-.07.03-.13-.01-.33-.34v-.02c-.11-.19-.24-.37-.39-.53-.07-.06-.14-.12-.22-.16-.06-.03-.1-.05-.15-.08-.17-.07-.31-.19-.4-.35-.17-.26-.31-.54-.4-.83-.01-.04-.03-.11-.06-.2s-.04-.16-.07-.25l-.02-.06v.02c.03.17.08.35.11.45.06.2.13.36.21.54.07.15.13.31.2.5.05.15.09.3.13.45l.03.11c.04.19.11.36.2.53.1.19.27.35.46.44l.12.07c.11.07.22.14.32.22.27.29.49.62.65.98.05.14.04.17.03.2v.03s-.05.01-.05.01c-.08.03-.14-.06-.32-.33-.12-.2-.27-.38-.44-.55-.08-.06-.17-.12-.26-.16-.13-.06-.24-.14-.35-.23-.38-.32-.67-.75-.82-1.23 0-.03-.02-.06-.03-.09.03.14.06.27.11.4.07.2.17.4.29.58l.05.08c.09.14.18.29.25.44.07.16.11.34.14.51.02.16.08.32.16.46.12.2.29.36.49.48l.14.09c.14.08.28.18.4.29.23.21.69.97.57 1.12l-.04.05-.05-.03s-.05-.05-.07-.08v-.02s-.07-.09-.1-.15l-.06-.1c-.16-.31-.4-.57-.69-.76-.06-.03-.12-.07-.17-.09-.17-.07-.32-.18-.43-.32-.34-.43-.61-.91-.79-1.42.08.31.19.63.34.93.09.18.19.35.3.55.04.08.09.16.14.24.07.12.12.24.17.37.03.08.06.15.08.22.08.27.21.53.39.75.11.12.23.21.36.29.14.09.27.19.39.31 0 0 .53.62.54.83v.1s-.09-.03-.09-.03c-.02 0-.07-.02-.28-.23l-.22-.22-.02-.02c-.08-.08-.15-.15-.2-.19-.09-.08-.19-.14-.3-.2.05.1.11.2.18.3v.02c.16.22.3.45.43.68.22.44.37.91.46 1.4v.03c.31 1.68.53 3.37.64 5.07h-.48c-.04-.47-.07-.89-.11-1.28-.06.12-.11.24-.16.36-.02.31-.04.62-.05.93h-.94c-.21-1.1-.52-2.18-.9-3.23-.09-.27-.18-.51-.27-.74-.05.08-.09.16-.12.25-.07.38-.09.77-.05 1.15v.09c.07.32.12.67.18 1.11.07.38.16.8.28 1.37h-.5c-.18-.82-.36-1.74-.45-2.52-.05-.43-.03-.87.05-1.3.06-.19.15-.37.26-.53l.02-.04c.05-.08.09-.16.12-.21 0 0 0-.02.01-.02-.08.06-.25.23-.32.3-.09.08-.19.16-.3.22-.06.04-.13.07-.21.09h-.09s.01-.08.01-.08c0-.02 0-.05.11-.17l.11-.12c.26-.24.46-.54.58-.87.04-.21.03-.43-.01-.64-.02-.12-.04-.24-.04-.36-.01-.21 0-.42 0-.63v-.11c.02-.26 0-.52-.03-.78-.02-.15-.07-.4-.11-.61v-.04s0 .06 0 .06c.02.16.05.34.06.48.07.48-.02.96-.25 1.39-.09.17-.21.32-.36.45-.13.11-.24.25-.33.4-.09.29-.12.59-.07.89v.09s0 .08 0 .12l-.06.11-.07-.11s-.03-.06-.04-.09c-.14-.35-.16-.73-.06-1.09.04-.09.09-.17.16-.25.06-.07.12-.14.19-.21.16-.15.29-.33.37-.53.11-.25.14-.53.08-.8-.01-.06-.03-.12-.05-.18s-.03-.09-.04-.14c-.04-.13-.06-.26-.06-.4 0-.22 0-.39.01-.55.02-.25.02-.51 0-.76-.02-.16-.04-.31-.07-.47.02.15.03.3.04.46.02.46-.05.92-.19 1.35-.05.12-.11.24-.19.34-.06.08-.13.15-.2.22-.17.15-.29.34-.34.56-.02.17-.02.35.02.52v.03c.01.07.02.13.03.17s.01.12-.04.15l-.04.02-.05-.03c-.19-.33-.25-.72-.16-1.08.08-.23.2-.45.36-.64.19-.21.32-.47.38-.74.04-.23.03-.46-.03-.68-.01-.04-.02-.09-.03-.13-.05-.2-.09-.41-.1-.61-.01-.22 0-.4 0-.55v-.12c0-.21 0-.42-.04-.62-.03-.18-.07-.35-.12-.52.12.51.14 1.03.08 1.54-.06.28-.18.53-.37.74-.14.16-.24.35-.31.54-.05.26-.06.53-.02.79 0 .09.01.19.02.27.01.06 0 .13-.03.18h-.01s-.06.03-.06.03l-.04-.04c-.22-.47-.24-1.01-.06-1.5.03-.06.07-.12.11-.2l.08-.14c.27-.36.39-.81.35-1.26-.08-.37-.14-.74-.16-1.11v-.07c-.02-.33-.07-.66-.16-.98.1.43.11.87.04 1.3-.07.28-.2.54-.38.77-.11.14-.2.29-.27.45-.05.21-.05.43 0 .63.01.07.02.14.03.2s0 .16-.06.18l-.04.02-.04-.03c-.16-.3-.23-.64-.19-.98.05-.23.15-.44.3-.62.15-.19.26-.4.33-.63.04-.17.02-.35-.05-.51-.02-.04-.03-.08-.05-.12-.06-.14-.11-.28-.14-.42-.03-.19-.05-.37-.05-.56 0-.22-.03-.43-.07-.65 0-.03-.01-.07-.02-.1.05.33.07.67.04 1.01-.01.2-.08.39-.19.56v.02c-.11.15-.18.31-.21.48-.02.22 0 .44.03.66v.04c.02.09.03.17.03.23s.01.16-.07.17c-.03 0-.05 0-.07-.03-.17-.37-.25-.79-.21-1.2.02-.17.09-.33.19-.47.11-.14.16-.31.16-.48-.02-.11-.06-.21-.12-.3-.02-.03-.04-.06-.05-.1-.1-.21-.15-.44-.16-.67v-.03c-.01-.15-.03-.3-.07-.44-.02-.06-.04-.12-.06-.18.08.26.12.54.1.81-.01.14-.05.29-.11.42-.05.1-.08.21-.1.32 0 .12 0 .25.03.37v.03c.04.23.03.26 0 .29l-.02.03h-.06s-.03-.02-.03-.02c-.14-.23-.2-.5-.18-.77 0-.23-.03-.45-.12-.67-.07-.12-.17-.23-.28-.31-.04-.03-.07-.06-.11-.09-.14-.12-.25-.27-.32-.44-.07-.14-.13-.28-.19-.42-.04-.1-.09-.21-.14-.31l.04.1c.04.1.08.19.11.29s.06.18.09.26l.05.13c.03.1.06.2.08.3.02.11.03.21.03.32 0 .16.02.31.08.46.06.2.19.38.36.5.21.2.35.47.4.76v.04l-.04.02c-.09.04-.14-.08-.18-.14-.09-.19-.22-.35-.39-.48-.06-.04-.11-.08-.16-.11-.14-.08-.26-.18-.35-.31-.16-.23-.29-.48-.38-.74.07.24.16.47.27.69.04.08.07.16.11.23l.07.14c.05.09.08.18.11.27.09.51.4.96.83 1.23.37.28.64.66.79 1.1v.04l-.04.03s-.07.01-.1-.01c-.08-.07-.14-.15-.19-.24l-.02-.03c-.11-.18-.25-.34-.41-.48-.11-.08-.23-.14-.35-.18h-.03c-.1-.04-.2-.09-.28-.16-.36-.38-.63-.83-.8-1.32.17.49.4.95.69 1.37.08.14.15.3.19.46.04.19.13.37.25.52.11.12.24.21.39.27l.1.05c.08.04.17.09.26.14.34.28.6.64.78 1.05v.04l-.04.03c-.07.04-.13 0-.37-.3-.13-.18-.28-.34-.45-.49-.08-.05-.16-.1-.24-.13-.06-.02-.11-.04-.16-.06-.18-.05-.34-.15-.45-.3-.2-.23-.37-.49-.5-.77-.02-.04-.05-.12-.09-.2-.03-.07-.06-.15-.09-.22l-.03-.06v.02c.06.16.13.34.17.43.09.19.18.35.27.51.08.14.17.29.26.47.07.14.13.28.18.43l.04.11c.06.18.15.35.26.51.13.18.31.31.52.38l.12.05c.12.05.23.11.34.18.31.25.57.55.77.89.08.14.06.17.06.19v.03s-.04.02-.04.02c-.08.04-.15-.04-.37-.3-.14-.18-.31-.34-.5-.48-.09-.05-.18-.1-.28-.13-.13-.05-.26-.11-.37-.19-.42-.27-.76-.66-.96-1.12-.01-.03-.02-.06-.04-.08.05.13.1.26.16.38.1.19.22.38.36.54l.06.08c.11.13.21.26.3.41.08.15.15.31.19.48.04.16.11.32.22.45.15.18.33.32.55.42.05.03.11.05.16.08.15.06.29.14.43.23.25.18.8.88.71 1.05l-.03.05-.06-.03s-.07-.05-.09-.09c-.03-.04-.07-.09-.12-.14l-.07-.09c-.2-.29-.47-.52-.78-.67-.06-.03-.12-.05-.18-.07-.17-.05-.34-.14-.47-.26-.39-.38-.71-.82-.95-1.31.12.3.27.6.45.88.12.18.24.35.39.54l.15.2c.08.11.15.23.21.35.04.07.07.15.11.21.11.26.27.5.48.69.12.1.25.18.39.25.15.07.3.15.43.26 0 0 .61.55.64.75l.02.1-.1-.02s-.1-.04-.29-.19l-.19-.15-.09-.07c-.08-.06-.17-.13-.22-.16-.1-.06-.21-.12-.32-.16.06.1.14.19.22.27v.02c.19.2.36.41.51.63.27.41.48.85.62 1.32v.04c.28.78.5 1.58.68 2.39h-.47c-.15-.6-.3-1.13-.44-1.59-.02.06-.04.11-.05.17l-.14.43c.13.36.24.68.34.99h-.31c-.31 0-.61.06-.9.17.14-.49.3-1.02.5-1.67.1-.32.2-.61.29-.89-.13-.38-.3-.74-.51-1.07-.05-.07-.12-.16-.2-.26-.19.55-.39 1.15-.63 1.93-.12.39-.22.73-.31 1.06.04.3.08.6.12.9-.17-.06-.34-.11-.52-.14-.08-.55-.17-1.17-.29-1.99-.35-2.32-.6-3.72-1.03-5.84-.06 1.52-.03 3.03.09 4.54.09 1.33.19 2.28.32 3.25h-.99c-.42-1.46-.75-2.95-1-4.45v-.04c-.08-.48-.1-.97-.05-1.46.04-.26.09-.52.16-.78v-.03c.04-.11.06-.22.08-.34-.08.09-.15.19-.21.29-.04.07-.08.16-.13.25-.03.05-.05.11-.08.16l-.07.14c-.11.24-.15.29-.18.31l-.08.06-.03-.09c.02-.33.1-.66.23-.96.07-.15.16-.29.26-.42.1-.12.18-.26.24-.4.09-.27.13-.55.11-.83v-.24c0-.14.01-.27.03-.41l.04-.25c.04-.23.08-.44.1-.65.03-.33.03-.67 0-1 0 .56-.08 1.1-.25 1.61-.07.17-.17.32-.3.45-.04.05-.09.1-.13.15-.21.28-.34.61-.39.96l-.03.13c-.01.06-.02.12-.03.16 0 .04-.02.08-.04.12l-.04.05-.05-.03c-.16-.1.01-.97.16-1.25.08-.14.17-.28.27-.41.04-.05.07-.09.1-.14.15-.18.25-.4.3-.62.03-.16.02-.33-.01-.49-.04-.17-.05-.35-.05-.53.01-.17.04-.34.08-.51l.02-.09c.05-.21.08-.43.07-.65 0-.14-.02-.27-.03-.41v.09c.02.5-.1 1-.35 1.44-.07.12-.15.24-.25.34-.07.07-.14.15-.19.24-.1.21-.18.43-.22.66-.08.32-.1.43-.19.43h-.03l-.03-.02s-.04-.06-.04-.19c.02-.4.12-.78.28-1.15.07-.11.14-.21.23-.32l.09-.11c.16-.15.26-.35.29-.57.02-.19.02-.38 0-.57v-.1c-.03-.16-.05-.32-.05-.47 0-.2 0-.38.02-.54.01-.19.02-.37.01-.58 0-.09-.02-.28-.05-.45v-.03.06c0 .08.01.17.02.24 0 .09.01.17.01.21v.02c.01.31-.02.61-.09.91-.03.18-.13.35-.26.47-.03.04-.07.07-.11.12-.06.07-.11.15-.16.23-.09.2-.14.4-.18.61v.03c-.07.34-.11.43-.2.42h-.04l-.03-.04c-.03-.44.05-.88.22-1.28.06-.1.12-.18.16-.24l.07-.09c.1-.12.18-.26.22-.42.04-.19.04-.39-.01-.58-.04-.16-.05-.32-.04-.48.07-.51.06-1.03 0-1.54.07.52.03 1.04-.12 1.54-.05.1-.11.18-.19.26l-.02.02c-.09.1-.17.2-.23.32-.08.2-.13.4-.15.61v.04c0 .1-.02.2-.06.29-.02.03-.05.05-.08.05h-.04l-.03-.04c-.07-.45 0-.92.2-1.33.27-.44.33-.98.18-1.48-.02-.1-.03-.2-.03-.3v-.11c0-.09 0-.19 0-.29 0-.25-.03-.5-.07-.74.03.28.03.56 0 .84-.03.15-.08.3-.17.43-.03.05-.06.11-.09.17-.09.19-.13.39-.13.6 0 .09 0 .14-.03.18l-.02.02h-.07s-.03-.03-.03-.03c-.09-.28-.08-.58.01-.86.1-.19.13-.4.1-.61-.02-.16-.06-.31-.14-.45-.05-.1-.09-.2-.12-.3s-.05-.2-.06-.3c0-.05-.01-.1-.02-.16-.01-.07-.02-.16-.04-.25s-.02-.2-.03-.31c0-.04 0-.08-.01-.12 0 .11.01.23.02.34.01.16.02.31.03.47.01.18-.02.37-.09.54-.02.05-.04.09-.06.13-.07.12-.1.26-.11.4.02.23.09.45.2.65.14.23.21.5.19.77v.03s-.08.03-.08.03l-.03-.02s-.05-.03-.12-.26v-.02c-.04-.12-.09-.24-.15-.35-.07-.09-.14-.17-.23-.24-.11-.09-.21-.2-.29-.32-.14-.24-.23-.5-.28-.77 0 .07.01.13.03.2.03.15.08.3.14.45.1.21.15.44.16.68v.11c-.01.11 0 .22.03.33.07.16.2.29.36.36.15.08.28.19.38.33.22.35.34.75.36 1.17 0 .03-.03.05-.05.06h-.03s-.03 0-.03 0c-.04-.02-.07-.08-.08-.12s-.04-.12-.07-.2l-.02-.06c-.06-.21-.15-.41-.27-.6-.11-.14-.24-.26-.4-.34-.18-.1-.33-.25-.44-.42-.18-.29-.32-.6-.43-.93 0 .03.02.07.03.11.06.21.13.41.23.61.08.17.15.35.21.53.04.14.06.29.07.44 0 .04 0 .09.01.14 0 .18.07.35.19.48.17.17.36.31.58.41.21.09.4.24.55.42.19.28.28.62.27.96l-.02.04h-.05c-.07.02-.11-.07-.13-.12s-.05-.13-.07-.2c-.05-.21-.14-.4-.29-.56-.14-.11-.29-.2-.45-.28-.26-.12-.5-.29-.68-.51-.26-.35-.45-.75-.56-1.18.07.32.18.64.31.94l.03.06c.15.34.27.7.36 1.07.17.42.48.76.89.96l.15.09c.07.04.13.08.18.12.38.36.6.84.62 1.36v.05s-.08.02-.08.02h-.02s-.06-.05-.11-.15-.07-.17-.11-.25c-.09-.25-.22-.49-.38-.69-.15-.15-.33-.26-.53-.34-.26-.1-.49-.27-.67-.49-.3-.43-.51-.91-.63-1.41.03.18.07.35.13.52.06.2.15.39.25.57l.05.09c.08.15.17.3.26.51.08.19.14.39.19.6l.03.12c.05.23.14.44.28.62.18.22.41.38.67.49.23.1.43.23.61.4.25.29.37.66.35 1.04l-.02.04h-.06c-.07.01-.09-.06-.11-.1s-.03-.08-.04-.14l-.02-.05c-.04-.17-.12-.33-.22-.47-.14-.17-.34-.29-.56-.35-.09-.03-.19-.07-.28-.11-.12-.06-.23-.13-.33-.22-.33-.32-.59-.7-.78-1.12-.08-.16-.14-.33-.2-.51l.07.23c.04.12.07.22.1.3.06.13.11.25.17.36v.02s.18.3.18.3c.08.14.16.29.26.48.06.12.1.25.13.38.01.05.02.1.03.15s.02.12.04.17c.07.27.22.5.44.68.17.14.36.24.57.3.09.03.18.06.26.1.09.04.18.09.25.15.26.27.41.63.44 1v.11.2s-.13-.16-.13-.16c-.02-.03-.04-.07-.05-.11l-.03-.07c-.09-.29-.25-.55-.47-.77-.15-.09-.3-.16-.47-.2-.19-.05-.36-.13-.52-.24-.39-.27-.69-.66-.85-1.11v-.02s0-.02 0-.02c.01-.18.01-.37 0-.55 0-.11-.02-.29-.04-.46l-.03-.24v.12c.02.16.03.33.02.46l-.02.53-.12-.35v.03c.03.1.06.21.09.31v.03c-.05.29-.16.56-.32.8-.11.16-.24.3-.39.41-.14.1-.26.23-.36.37-.12.28-.17.58-.15.88v.07s0 .1-.02.14l-.07.12-.06-.12s-.02-.06-.03-.09c-.11-.36-.1-.74.04-1.09.05-.09.11-.16.18-.23s.14-.13.2-.19c.17-.13.32-.3.42-.49.13-.24.19-.52.15-.79 0-.06-.02-.11-.03-.17s-.02-.1-.03-.15c-.02-.13-.03-.27-.02-.4.01-.22.04-.39.06-.55.02-.12.03-.25.05-.39l.03-.35v-.05c-.01-.15-.02-.3-.04-.45v.46c-.02.46-.13.91-.31 1.33-.06.12-.13.23-.22.32-.07.07-.14.14-.21.21-.18.13-.32.32-.39.53-.04.17-.05.34-.02.52v.05c.01.06.02.11.02.15s0 .12-.06.15l-.04.02-.05-.04c-.17-.34-.19-.74-.07-1.09.1-.22.24-.43.42-.6.2-.19.35-.43.44-.7.06-.22.07-.46.03-.68l-.02-.12c-.04-.21-.05-.42-.05-.62 0-.22.03-.4.05-.56v-.11c.04-.21.04-.42.03-.62-.01-.18-.04-.36-.08-.53.08.52.06 1.04-.06 1.55-.08.27-.23.51-.43.71-.15.15-.27.32-.36.52-.07.26-.11.52-.09.79v.27c0 .14-.03.16-.05.18h-.01s-.06.03-.06.03l-.03-.04c-.18-.49-.15-1.03.07-1.5.03-.05.07-.1.11-.16l.12-.16c.3-.34.46-.77.46-1.22-.05-.37-.07-.75-.06-1.12v-.07c.01-.33-.01-.67-.07-.99.06.43.04.88-.07 1.3-.09.27-.24.52-.44.73-.12.13-.22.27-.31.43-.07.2-.09.42-.06.62 0 .07.01.15.01.21s0 .16-.07.18h-.04s-.04-.02-.04-.02c-.13-.31-.17-.66-.11-.99.07-.22.19-.43.36-.59.16-.17.29-.38.38-.6.06-.17.06-.35 0-.51-.01-.04-.03-.08-.04-.12-.05-.14-.08-.29-.1-.44-.01-.19-.01-.38 0-.57.01-.22 0-.43-.02-.65 0-.03 0-.07-.01-.1.02.34 0 .68-.05 1.01-.03.2-.11.39-.24.54-.11.14-.2.3-.25.48-.04.22-.05.44-.03.66v.05.22s0 .16-.09.17c-.03 0-.05-.01-.07-.03-.14-.39-.18-.81-.11-1.22.04-.16.12-.32.23-.45.12-.13.19-.29.2-.47 0-.11-.04-.22-.09-.32-.01-.03-.03-.06-.04-.1-.08-.22-.11-.45-.1-.68v-.02c0-.15 0-.31-.03-.46-.01-.06-.03-.13-.05-.19.06.27.07.55.03.82-.03.14-.08.28-.15.41-.05.1-.09.2-.12.31-.02.13-.02.25 0 .38v.02c.01.22 0 .26-.02.29l-.02.02h-.06l-.03-.03c-.12-.24-.16-.52-.11-.78.03-.23 0-.45-.06-.67-.06-.13-.14-.24-.25-.33-.03-.03-.07-.06-.1-.1-.13-.13-.23-.29-.28-.47-.05-.15-.1-.29-.15-.44-.04-.11-.07-.22-.11-.32l.03.11c.03.1.06.2.08.3s.05.2.07.28l.03.12c.03.1.05.2.06.3v.32c-.02.16 0 .31.04.47.05.21.16.39.32.53.19.22.31.5.34.79v.04s-.05.02-.05.02c-.09.03-.13-.08-.16-.15-.07-.2-.19-.38-.35-.52-.05-.05-.1-.09-.15-.12-.13-.09-.24-.2-.32-.34-.12-.21-.22-.42-.29-.65v.02c.05.19.11.39.18.57.04.1.07.19.1.27l.04.11c.04.09.07.19.09.28.05.52.31.99.72 1.3.34.31.58.71.69 1.16v.04l-.04.02s-.07 0-.1-.02c-.07-.08-.13-.16-.17-.26l-.02-.03c-.09-.19-.22-.36-.37-.51-.1-.09-.21-.16-.33-.21h-.02c-.1-.05-.19-.11-.27-.18-.22-.24-.39-.53-.49-.84v.08c.11.28.24.55.38.81.07.15.12.3.14.46.02.2.09.38.21.54.1.13.22.23.37.31l.1.06c.08.05.16.1.24.16.31.31.55.69.68 1.11v.04l-.04.03c-.07.03-.13 0-.34-.33-.11-.19-.25-.37-.41-.53-.07-.06-.15-.11-.23-.15-.05-.03-.1-.05-.15-.07-.17-.06-.32-.18-.42-.34-.18-.25-.32-.52-.43-.81-.02-.05-.04-.12-.07-.2l-.03-.1v.05c.03.09.05.16.07.22.07.2.15.36.23.53.07.15.14.3.21.49.06.14.1.29.14.44l.03.11c.05.18.12.36.21.53.11.19.28.34.48.42l.12.07c.11.06.22.13.33.21.28.27.52.6.69.95.02.04.06.14.04.2v.03s-.05.02-.05.02c-.08.03-.15-.06-.34-.33-.13-.19-.28-.37-.45-.53-.08-.06-.17-.11-.27-.15-.13-.06-.25-.13-.36-.22-.4-.31-.7-.73-.86-1.2-.01-.03-.02-.05-.03-.08.03.13.07.26.12.39.08.2.19.39.31.57l.06.09c.1.14.19.28.26.43s.12.31.15.48v.03c.03.16.09.32.18.46.13.19.31.35.51.47.05.03.1.06.15.09.14.08.28.17.41.27.24.21.72.95.61 1.1l-.04.05-.06-.03s-.06-.06-.08-.1c-.03-.04-.06-.09-.1-.15l-.06-.09c-.17-.3-.42-.56-.72-.74-.06-.03-.12-.06-.18-.09-.17-.07-.32-.17-.45-.3-.35-.41-.64-.88-.83-1.39.09.31.22.62.37.91.1.19.21.36.34.57l.13.21c.07.12.13.24.18.36.03.08.06.15.09.22.09.27.23.52.42.73.11.11.23.21.37.28.15.08.28.18.4.3 0 0 .55.6.57.81v.1s-.09-.03-.09-.03c-.03 0-.08-.03-.28-.22l-.25-.24c-.09-.08-.16-.15-.21-.18-.09-.07-.19-.14-.3-.19.06.1.12.2.19.29v.02c.17.21.32.44.45.67.23.43.4.89.51 1.37v.04c.33 1.41.57 2.84.72 4.28h-.17c-.1 0-.21 0-.31-.02-.12-1.84-.51-3.65-1.16-5.38-.36-.39-.75-.75-1.17-1.09-.02.28-.04.54-.07.81.58 1.37 1.03 2.8 1.35 4.26.11.48.2.89.28 1.27-.28-.08-.55-.19-.8-.32 0-.29 0-.58.02-.88-.19-.8-.36-1.43-.54-2.02-.1.41-.2.86-.29 1.36-.06.3-.1.57-.14.82-.24-.25-.45-.53-.62-.84.07-1.63.19-3.32.39-5.58l.06-.63s-.02-.03-.03-.05c-.11.53-.22 1.06-.36 1.79-.2 1-.36 1.89-.51 2.71v.35c-.02-.15-.03-.3-.03-.45v-20.5h.17c.35-.02.7-.08 1.03-.19.32-.11.61-.28.87-.49l.12-.09c.37-.31.81-.53 1.29-.63.38-.07.76-.1 1.15-.08.32.01.63 0 .95-.04h.06l.02.06c.04.24.09.48.18.71l.02.06-.09.03c-.32 0-.64-.02-.96-.07-.12-.02-.26-.03-.37-.04h-.12c-.31-.03-.62 0-.93.07-.14.04-.28.08-.42.14l-.04.02c-.19.09-.38.2-.56.31-.13.08-.25.15-.32.19-.31.17-.65.27-1 .29-.26.03-.53.04-.79.03.33.04.66.05.99.02.28-.03.56-.12.81-.24l.16-.08c.19-.09.4-.19.51-.23.25-.08.51-.14.78-.16.26 0 .53 0 .79.04l.11.02-.07.09c-.14.21-.26.43-.34.67-.11.32-.28.62-.51.88-.2.21-.41.4-.65.56-.1.06-.21.12-.32.17.13-.03.25-.07.37-.12.26-.11.52-.25.75-.42.21-.16.38-.35.51-.58.03-.04.06-.09.09-.13.2-.34.47-.63.81-.83.04-.03.09-.05.13-.07l.06-.03h.02s.02-.01.02-.01c.23.05.46.07.69.07h.1s-.03.09-.03.09c-.01.04-.02.07-.04.11l-.02.05v.04h-.06s-.03 0-.05 0c-.23.07-.45.17-.65.3-.1.07-.19.14-.28.22l-.03.03c-.12.13-.24.26-.35.4-.08.1-.16.2-.21.25-.19.2-.42.36-.67.47-.09.04-.17.08-.24.11.12-.04.24-.09.36-.14.21-.1.39-.23.55-.39l.06-.06c.15-.15.38-.37.46-.43.15-.11.32-.21.49-.28.11-.04.22-.08.33-.12l.16-.05-.08.15c-.1.19-.21.37-.34.55-.22.31-.42.64-.58.99-.19.48-.26 1-.2 1.52.04.44 0 .88-.11 1.3-.16.5-.42.96-.76 1.36.18-.13.35-.28.5-.45.24-.26.44-.55.6-.86.15-.3.24-.63.27-.97 0-.05.01-.1.02-.15.04-.48.2-.95.47-1.35.22-.32.47-.61.76-.86.23-.21.45-.45.64-.7l.04-.07.06.06c.2.14.41.27.63.38l.06.03-.04.08c-.23.23-.47.44-.73.62-.1.08-.21.17-.29.23l-.09.08c-.23.21-.43.45-.6.71-.08.13-.14.26-.19.4l-.02.04c-.07.2-.13.4-.17.61-.04.15-.07.28-.1.37-.1.34-.27.65-.5.91-.16.21-.34.4-.54.58.26-.2.5-.43.71-.69.18-.22.31-.47.4-.74l.06-.17c.07-.2.15-.42.2-.52.12-.24.27-.46.44-.66.18-.19.37-.36.58-.52l.09-.07.02.11c.05.25.12.48.23.71.15.31.24.64.26.98.01.29-.01.57-.06.86-.03.12-.06.23-.1.35.07-.11.13-.23.18-.35.11-.26.19-.54.23-.83.03-.26.02-.52-.05-.77 0-.05-.02-.1-.03-.16-.1-.38-.11-.78-.02-1.16.01-.05.03-.09.04-.13 0-.02.01-.04.02-.06v-.02s.03-.01.03-.01c.2-.13.38-.28.54-.45l.07-.07.05.09s.03.07.05.1l.04.09-.03.03s-.03.03-.04.05c-.12.21-.2.44-.25.67-.02.12-.04.23-.04.35v.05c0 .17.01.35.03.52.01.13.02.25.03.33 0 .28-.04.55-.14.81-.03.09-.06.17-.09.25.06-.11.11-.23.15-.35.08-.21.12-.44.11-.66v-.08c0-.21 0-.53.02-.63.03-.19.08-.37.15-.55.05-.11.1-.22.16-.33l.08-.15.05.16c.06.21.11.42.15.64.06.38.16.75.29 1.1.2.48.52.89.93 1.21.34.28.63.62.84 1 .24.47.39.98.42 1.5.03-.22.05-.45.03-.67-.02-.35-.08-.7-.19-1.03-.11-.32-.28-.61-.49-.87l-.09-.12c-.31-.37-.53-.81-.63-1.29-.07-.38-.1-.76-.08-1.15.01-.32 0-.63-.04-.95v-.06l.06-.02c.24-.04.48-.1.71-.18l.07-.02.03.09c0 .32-.02.64-.07.96-.02.12-.03.27-.04.37 0 .05 0 .09-.01.12-.02.31.01.62.08.93.04.14.08.28.14.42l.02.04c.09.19.2.38.31.55.08.13.15.25.19.33.17.31.27.65.29 1 .03.26.04.53.03.79.04-.33.05-.66.01-.99-.03-.28-.12-.56-.25-.81l-.08-.16c-.09-.19-.19-.4-.22-.51-.08-.25-.14-.51-.16-.78 0-.26 0-.52.04-.77l.02-.11.09.07c.2.14.43.25.66.33.32.11.62.28.88.51.21.2.4.41.56.65.06.1.12.21.18.32-.03-.13-.07-.25-.12-.37-.11-.26-.25-.51-.42-.74-.16-.21-.35-.38-.58-.51-.04-.03-.09-.06-.13-.09-.34-.2-.63-.47-.83-.81-.02-.04-.04-.08-.06-.12 0-.02-.02-.04-.03-.06v-.02s-.01-.02-.01-.02c.05-.23.08-.47.07-.71v-.1s.09.03.09.03c.03 0 .06.02.09.03l.05.02.04.02v.05s0 .04 0 .06c.07.23.17.45.3.65.07.1.14.19.22.28l.03.03c.13.12.26.24.39.35.1.09.2.16.25.21.2.19.36.42.47.67.04.09.08.17.11.24-.04-.12-.09-.24-.14-.36-.1-.21-.23-.39-.39-.55l-.07-.07c-.14-.15-.36-.37-.42-.45-.11-.15-.21-.32-.28-.49-.05-.11-.09-.23-.12-.34l-.05-.16.15.08c.2.1.39.22.57.35.31.22.64.42.99.58.48.19 1 .26 1.51.2.44-.04.88 0 1.3.11.5.16.96.42 1.36.76-.13-.18-.29-.35-.45-.5-.26-.24-.55-.44-.86-.6-.3-.15-.63-.24-.97-.27l-.15-.02c-.48-.04-.95-.2-1.36-.47-.32-.22-.61-.47-.86-.76-.21-.23-.45-.45-.7-.64l-.03-.02v-.08c.16-.2.29-.41.39-.63l.03-.06.08.04c.23.23.44.47.62.73.08.1.17.21.24.29l.07.09c.21.23.45.43.71.6.13.08.26.14.4.2l.04.02c.2.07.41.13.61.17.14.04.28.07.36.09.34.1.65.27.91.5.21.16.4.34.57.54-.2-.26-.43-.5-.68-.71-.22-.18-.47-.31-.74-.4l-.17-.06c-.2-.07-.42-.15-.53-.2-.24-.12-.46-.27-.66-.44-.19-.18-.36-.37-.52-.58l-.07-.09.11-.02c.24-.05.48-.12.7-.23.31-.15.64-.24.98-.26.29-.01.57 0 .86.06.12.03.23.06.35.1-.11-.07-.23-.13-.35-.18-.26-.11-.54-.19-.83-.23-.26-.03-.52-.02-.77.05-.05 0-.1.02-.15.03-.38.1-.78.11-1.16.02-.04-.01-.08-.02-.12-.04l-.06-.02h-.02s-.01-.03-.01-.03c-.13-.2-.28-.39-.46-.56l-.07-.07.08-.05s.06-.03.09-.04l.05-.02.04-.02.04.03s.03.02.04.03c.21.12.44.2.67.25.12.02.23.04.35.04h.05c.18 0 .35-.01.53-.03.13-.01.25-.02.33-.03.28 0 .55.04.81.14.09.03.18.06.25.09-.11-.06-.23-.11-.35-.15-.21-.08-.44-.12-.66-.11h-.1c-.21 0-.52 0-.62-.02-.19-.03-.37-.08-.55-.15-.11-.05-.22-.1-.32-.16l-.14-.08.16-.05c.21-.07.43-.12.65-.16.38-.06.74-.16 1.1-.29.48-.2.89-.52 1.21-.93.28-.34.62-.63 1-.84.47-.24.98-.39 1.5-.42-.22-.03-.45-.05-.67-.03-.35.02-.7.08-1.03.19-.32.11-.61.28-.87.49l-.12.09c-.37.31-.81.53-1.29.63-.38.07-.76.1-1.15.08-.32-.01-.63 0-.95.04h-.07v-.06c-.04-.24-.1-.48-.19-.71l-.02-.07.09-.03c.32 0 .64.02.96.07.12.02.26.03.37.04.05 0 .09 0 .12.01.31.02.62-.01.93-.08.14-.04.28-.08.42-.14l.04-.02c.19-.09.38-.2.56-.31.13-.08.25-.15.33-.19.31-.17.65-.27 1-.29.26-.03.53-.04.79-.03-.33-.04-.66-.04-.99-.01-.28.03-.55.12-.81.24l-.16.08c-.19.09-.41.19-.52.23-.25.08-.51.14-.78.16-.26 0-.52 0-.78-.04l-.11-.02.07-.09c.14-.2.25-.42.33-.65.11-.32.28-.62.51-.88.2-.21.41-.4.65-.56.1-.06.21-.12.32-.18-.13.03-.25.07-.37.12-.26.11-.52.25-.75.42-.21.16-.38.35-.51.58-.03.04-.06.09-.09.13-.2.34-.47.63-.81.83-.03.02-.07.04-.11.05l-.06.03h-.02s-.02.01-.02.01c-.23-.05-.47-.08-.71-.07h-.1s.03-.09.03-.09c0-.03.02-.06.03-.09s.01-.03.02-.05v-.04h.06s.03 0 .05 0c.23-.07.45-.17.65-.3.1-.07.19-.14.28-.22l.04-.03c.12-.12.24-.26.35-.4.08-.1.16-.2.21-.25.19-.2.42-.36.67-.47.09-.04.17-.08.24-.11-.12.04-.24.09-.36.14-.21.1-.39.23-.55.39l-.07.07c-.16.15-.37.35-.45.42-.15.11-.32.21-.49.28-.11.04-.22.08-.33.12l-.16.05.08-.15c.1-.2.22-.39.35-.57.22-.31.42-.64.58-.99.02-.04.03-.08.04-.12h9.17v21.22h-.03z"/></g></svg>