<svg enable-background="new 0 0 595.3 333.4" viewBox="0 0 595.3 333.4" xmlns="http://www.w3.org/2000/svg"><path d="m0 333.4 595.3-148.8v-8.9l-595.3 148.7zm0-175.7 595.3-148.8v-8.9l-595.3 148.8zm549.4-37.4c0-12.1-3.3-20.8-9.7-26-6.6-5.2-15.5-6.4-27-3.5-11.4 2.9-20.5 8.2-27.2 16.2-6.6 8-10 17.4-10 28.3 0 10.4 3.3 17.9 9.8 22.4 6.6 4.5 15.3 5.5 26.5 2.7 9.9-2.4 17.9-6.3 23.9-11.4s10-11.4 11.8-19l-24.6 6.1c-.6 1.9-1.8 3.5-3.4 4.9-1.7 1.3-3.8 2.4-6.2 2.9-3.7.9-6.6.5-8.7-1.2-2.1-1.8-3.2-4.6-3.3-8.7l48.2-12.1zm-85.2-38.1-26 6.5v87.6l26-6.5zm-41.6 79.8c-.5.2-.9.3-1.4.4-.5.2-1.3.3-2.2.6-3.3.8-5.5.9-6.8.3s-1.9-1.9-1.9-4.1v-25.9l12.1-3v-14.8l-12.1 3v-20l-25.5 6.4v20l-9.1 2.3v14.8l9.1-2.3v32.4c0 6.9 1.6 11.3 4.9 13.2 3.2 1.9 8.9 1.8 17.1-.2 2.3-.6 4.7-1.2 7.3-1.9s5.5-1.6 8.7-2.6zm-56.7-1.3c0-7.4-.4-12.8-1.3-16-.8-3.3-2.2-5.8-4.1-7.6-2.2-2.1-4.9-3.4-8-3.9s-6.7-.3-10.9.8c-4 1-7.6 2.6-11 4.9-3.3 2.3-6.3 5.1-8.9 8.7v-29.8l-25.7 6.4v87.5l25.7-6.4v-33.3c0-4.4.8-7.9 2.4-10.4s4-4.2 7.2-5 5.5-.4 6.8 1.1 1.9 4.7 1.9 9.7v33.5l25.7-6.4v-33.7h.2zm-80.3 28.5-25.7 6.4c-.3 3.3-1.3 5.9-3 8-1.7 2-4 3.4-7 4.2-3.7.9-6.4.3-8.1-2s-2.5-6.3-2.5-12.2c0-5.7.8-10.2 2.6-13.3s4.5-5.1 8.2-6c2.9-.8 5.2-.6 6.8.5 1.5 1.1 2.4 3.1 2.8 6.1l25.7-6.4c-.3-8.1-3.6-13.9-10-17.1-6.3-3.3-14.7-3.6-25.1-1-11.4 2.9-20.5 8.1-27 16-6.6 7.8-9.9 17.1-9.9 27.8s3.4 18.3 10 22.9c6.6 4.5 15.7 5.5 27.2 2.5 10.3-2.6 18.6-7.1 24.9-13.6 6.1-6.6 9.5-14.2 10.1-22.8m-79.5 16.7c0-12.1-3.3-20.8-9.7-26-6.6-5.2-15.5-6.4-27-3.5-11.4 2.9-20.5 8.2-27.2 16.2-6.6 8-10 17.4-10 28.2 0 10.4 3.3 17.9 9.7 22.4 6.6 4.5 15.4 5.5 26.5 2.7 9.9-2.4 17.9-6.3 23.9-11.4s10-11.4 11.8-19l-24.6 6.1c-.6 1.9-1.8 3.5-3.4 4.9-1.7 1.3-3.8 2.4-6.2 2.9-3.7.9-6.6.5-8.7-1.2-2.1-1.8-3.2-4.6-3.3-8.7l48.2-12.1zm-81.5 22.3c0-5.3-1.1-9.3-3.4-12.1-2.2-2.8-5.6-4.5-10.2-5 3.5-2.8 6.2-5.9 7.9-9.2 1.8-3.4 2.6-7.1 2.6-11 0-5-1.2-9-3.5-11.9s-5.8-4.7-10.2-5.3c-2.5-.3-5.5-.2-9.1.3-3.5.5-9.2 1.7-16.9 3.6l-36 8.8v87.6l38.8-9.7c8.2-2 14.2-3.9 17.7-5.3 3.5-1.5 6.7-3.3 9.5-5.4 4.1-3.1 7.2-6.8 9.4-11.2 2.3-4.2 3.4-9 3.4-14.2m470.7-210.3v148.8l-595.3 148.8v-148.9zm-82.9 88.3c-3.4.8-6 2.6-8 5.2-1.9 2.6-3 5.8-3.2 9.7l22.9-5.7c-.3-3.9-1.4-6.6-3.4-8.1-1.9-1.7-4.7-2.1-8.3-1.1m-419.4 101.8c1.6-1.5 2.4-3.7 2.4-6.4 0-2.9-.8-4.7-2.5-5.3-1.7-.7-5.6-.2-11.8 1.3l-7.8 1.9v15.1l11.6-2.9c3.7-.9 6.5-2.1 8.1-3.7m2.3 19c-1.8-.8-5-.6-9.4.5l-12.8 3.2v16.2l13-3.3c4.3-1.1 7.4-2.4 9.2-4.2s2.8-4 2.8-6.9-.9-4.8-2.8-5.5m82.2-34.3c1.9 1.5 3 4.3 3.4 8.1l-22.9 5.7c.2-3.8 1.3-7 3.2-9.7 1.9-2.6 4.6-4.4 8-5.2 3.6-.8 6.4-.4 8.3 1.1" fill="#e00d1a"/></svg>