<svg fill="currentColor" viewBox="0 0 32 32" xmlns="http://www.w3.org/2000/svg"><path d="m22.46 32c-.88 0-1.7-.33-2.34-.93-.66-.63-1.04-1.47-1.07-2.38s.31-1.78.93-2.44c.63-.66 1.47-1.04 2.38-1.07h.05c1.88 0 3.43 1.52 3.46 3.4 0 1.87-1.46 3.37-3.32 3.42-.03 0-.07 0-.1 0zm-.07-5.86c-.65.02-1.26.29-1.71.77s-.69 1.1-.67 1.75c.02.66.29 1.26.77 1.71s1.09.69 1.75.67c1.34-.04 2.39-1.11 2.39-2.45-.02-1.36-1.14-2.45-2.5-2.45 0 0-.02 0-.03 0zm-12.78 5.86c-.88 0-1.7-.33-2.34-.93-.66-.63-1.04-1.47-1.07-2.38s.31-1.78.93-2.44c.63-.66 1.47-1.04 2.38-1.07h.01c.91-.02 1.79.33 2.45.98.66.64 1.03 1.5 1.04 2.43 0 1.87-1.46 3.37-3.32 3.42-.03 0-.07 0-.1 0zm-.07-5.86c-.65.02-1.26.29-1.71.77s-.69 1.1-.67 1.75c.02.66.29 1.26.77 1.71s1.1.69 1.75.67c1.34-.04 2.39-1.11 2.39-2.45 0-.66-.28-1.28-.75-1.75-.48-.46-1.11-.72-1.77-.71z"/><path d="m26.3 23.37-18.95-.06c-.86 0-1.61-.61-1.8-1.45l-.9-4.18c-.03-.06-.05-.13-.05-.2s-3.63-16.9-3.63-16.9c-.06-.26.11-.51.37-.57.26-.06.51.11.57.37l3.59 16.61h22.04c.18 0 .34-.07.46-.19s.19-.29.19-.46c0-.03 0-.06 0-.09l1.8-9.49-13.61-1.4c-.26-.03-.45-.26-.43-.53s.26-.45.53-.43l14.13 1.46c.13.01.26.08.34.19s.11.24.09.38l-1.89 9.96c-.01.42-.18.8-.47 1.09-.3.3-.71.47-1.14.47h-21.84l.8 3.71c.09.4.45.69.86.7l18.94.06c.26 0 .48.22.48.48s-.21.48-.48.48zm-15.91-18.64s-.03 0-.05 0l-6.77-.7c-.26-.03-.45-.26-.43-.53.03-.26.26-.45.53-.43l6.77.7c.26.03.45.26.43.53-.03.25-.23.43-.48.43z"/><path d="m13.47 5.01c-.26 0-.48-.22-.48-.48s.22-.48.49-.47c.26 0 .48.22.47.49 0 .12-.05.24-.14.33s-.21.14-.34.14"/><path d="m8.78 16.03c-.22 0-.42-.16-.47-.39l-1.77-8.87c-.05-.26.12-.51.38-.56s.51.12.56.38l1.77 8.87c.05.26-.12.51-.38.56-.03 0-.06 0-.09 0z"/><path d="m14.48 16.03c-.22 0-.42-.16-.47-.39l-1.64-8.21c-.05-.26.12-.51.38-.56s.51.12.56.38l1.64 8.21c.05.26-.12.51-.38.56-.03 0-.06 0-.09 0z"/><path d="m20.18 16.03c-.22 0-.42-.16-.47-.39l-1.48-7.42c-.05-.26.12-.51.38-.56s.51.12.56.38l1.48 7.42c.05.26-.12.51-.38.56-.03 0-.06 0-.09 0z"/><path d="m25.87 16.03c-.22 0-.42-.16-.47-.39l-1.35-6.74c-.05-.26.12-.51.38-.56s.51.12.56.38l1.35 6.74c.05.26-.12.51-.38.56-.03 0-.06 0-.09 0z"/></svg>