<svg fill="currentColor" viewBox="0 0 32 32" xmlns="http://www.w3.org/2000/svg"><path d="m14.27 14.49-.98-.96-.91.5 1.26 1.23c-.72 1-1.09 1.97-1.11 2.9-.02.99.33 1.84 1.05 2.55.83.81 1.8 1.15 2.91.99.92-.12 1.8-.53 2.63-1.23l-.82-.8c-.56.4-1.07.67-1.53.8-.88.25-1.62.07-2.24-.54-.67-.66-.91-1.42-.73-2.28.11-.52.34-1.04.69-1.55l2.62 2.56.91-.5-2.9-2.84c.08-.08.16-.17.24-.25.19-.19.37-.37.54-.53l2.68 2.63.91-.5-2.79-2.73c.52-.36 1.03-.57 1.51-.65.87-.15 1.61.08 2.23.68.5.49.75 1 .75 1.55s-.18 1.1-.55 1.67l.82.8c.56-.67.87-1.46.92-2.37s-.32-1.75-1.1-2.52c-.92-.9-2.01-1.23-3.26-.98-.75.14-1.48.46-2.19.96l-1.06-1.04-.91.5 1.19 1.17c-.13.12-.25.24-.37.36-.14.14-.27.29-.4.43z"/><path d="m29.31 2.8c-.06-.22-.23-.38-.45-.43l-10.22-2.35c-.21-.05-.43.02-.58.17l-17.05 17.39s-.96.99-.94 2.28c0 .78.34 1.49.99 2.12l.49.49c.24.24.63.24.87 0s.24-.63 0-.87l-.49-.49c-1.26-1.23-.24-2.43-.03-2.65l16.8-17.17 9.53 2.19c1.13 4.02 2.3 8.41 2.47 9.47l-16.86 17.2c-1.24 1.27-2.43.24-2.66.03l-4.58-4.49c-.24-.24-.63-.23-.87 0-.24.24-.23.63 0 .87l4.58 4.49s.97.94 2.24.94h.03c.78 0 1.49-.34 2.13-.99l17.03-17.36s.09-.09.12-.15c.15-.27.31-.54-2.55-10.7z"/><path d="m4.43 23.5c-.14-.09-.31-.11-.47-.07-.15.04-.29.14-.37.28-.08.14-.1.31-.06.47s.15.29.29.38c.14.08.31.1.47.07.32-.09.51-.42.44-.74-.05-.16-.15-.29-.29-.38z"/></svg>