<svg  fill="currentColor" viewBox="0 0 32 32" xmlns="http://www.w3.org/2000/svg"><path d="m23.64 14.22h-11.01l2.47-2.48c.69-.69.69-1.82 0-2.51s-1.82-.69-2.51 0l-5.49 5.51c-.69.69-.69 1.82 0 2.51l5.49 5.51c.35.35.8.52 1.26.52s.91-.17 1.25-.52c.7-.69.7-1.82 0-2.51l-2.47-2.48h11.01c.98 0 1.78-.8 1.78-1.78s-.8-1.78-1.78-1.78z"/><path d="m16 0c-8.82 0-16 7.18-16 16s7.18 16 16 16 16-7.18 16-16-7.18-16-16-16zm0 28.44c-6.86 0-12.44-5.58-12.44-12.44s5.58-12.44 12.44-12.44 12.44 5.58 12.44 12.44-5.58 12.44-12.44 12.44z"/></svg>