<svg fill="currentColor" viewBox="0 0 32 32" xmlns="http://www.w3.org/2000/svg"><path d="m23.64 31.54c-2.03 0-3.69-1.66-3.69-3.69s1.66-3.69 3.69-3.69h.02c.99 0 1.91.39 2.6 1.09s1.07 1.62 1.07 2.61c0 2.03-1.66 3.69-3.69 3.69zm0-6.44v.94c-1 0-1.81.81-1.81 1.81s.81 1.81 1.81 1.81 1.81-.81 1.81-1.81c0-.48-.18-.93-.52-1.28s-.79-.53-1.27-.53v-.94zm-11.75 6.44c-2.03 0-3.69-1.66-3.69-3.69s1.66-3.69 3.69-3.69h.02c.99 0 1.91.39 2.6 1.09s1.07 1.62 1.07 2.61c0 2.03-1.66 3.69-3.69 3.69zm0-6.44v.94c-1 0-1.81.81-1.81 1.81s.81 1.81 1.81 1.81 1.81-.81 1.81-1.81c0-.48-.18-.94-.52-1.28s-.79-.53-1.27-.53z"/><path d="m27.18 23.78-17.22-.06c-1.03-.01-1.9-.72-2.12-1.72l-.81-3.73c-.05-.12-.08-.25-.08-.39l-2.64-12.24c-.11-.17-.16-.37-.14-.59 0-.01 0-.03 0-.04l-.4-1.83-3.09-.88c-.5-.13-.79-.66-.64-1.16s.66-.78 1.16-.64l3.63 1.03c.33.1.59.37.66.71l.44 2.04 5.39.5 19.83 2.05c.26.03.5.16.66.37s.22.48.17.74l-1.71 9.09c.01.36-.19.86-.57 1.23-.37.37-.86.57-1.39.57h-19.24l.6 2.78c.03.14.15.24.29.24l17.22.06c.52 0 .94.42.94.94s-.42.94-.94.94zm-18.51-6.83h19.64c0-.06.1-.21.11-.27l1.52-8.09-23.59-2.38z"/></svg>