<svg fill="currentColor" viewBox="0 0 32 32" xmlns="http://www.w3.org/2000/svg"><path d="m12.66 31.46c-1.49 0-3-.2-4.49-.61-.84-.23-1.66-.53-2.45-.88-.15-.07-.27-.19-.33-.35-.06-.15-.05-.33.02-.47 2.78-5.98 7.54-10.38 11.35-13.16-4.61 2.21-10.54 6.03-13.22 11.83-.08.18-.24.3-.43.34s-.39-.01-.53-.14c-.19-.17-.38-.36-.54-.56-2.02-2.5-2.57-5.82-1.52-9.13 1.56-4.92 6.26-8.93 12.56-10.73.33-.09.67.1.76.42.09.33-.1.67-.42.76-5.91 1.68-10.29 5.39-11.73 9.91-.89 2.82-.48 5.63 1.13 7.76 2.71-5.14 7.76-8.64 11.62-10.71 4.37-2.34 8.08-3.36 8.23-3.4.31-.08.63.08.74.38s-.02.63-.31.77c-.11.05-11.3 5.48-16.31 15.58.55.22 1.12.41 1.69.57 4.22 1.16 8.51.54 12.4-1.78 4.48-2.67 8.07-7.44 9.15-12.14.93-4.34.96-8.9.09-13.27-1.85 1.4-6.05 2.98-9.74 4.2-.32.11-.67-.07-.78-.39s.07-.67.39-.78c8.58-2.82 9.77-4.25 9.9-4.45.05-.24.25-.44.51-.48.31-.05.62.15.69.47 1.16 4.89 1.22 10.07.16 14.98-1.16 5.02-4.97 10.1-9.73 12.93-2.81 1.68-5.81 2.53-8.86 2.53zm17.21-30.25s0 0 0 0zm0 0s0 0 0 0zm0 0s0 0 0 0zm0 0s0 0 0 0zm0 0s0 0 0 0z"/><circle cx="16.77" cy="7.18" r=".62"/></svg>