<svg  fill="currentColor" viewBox="0 0 32 32" xmlns="http://www.w3.org/2000/svg"><path d="m25.45 12.83c-.81 0-1.59.16-2.31.43l-1.21-2.62 1.21-1.81c.07-.11.09-.24.07-.36s-.11-.23-.21-.3l-3.38-2.03c-.22-.13-.51-.06-.64.16s-.06.51.16.64l2.96 1.77-.94 1.41h-10.09v-1.09h1.56c.26 0 .47-.21.47-.47s-.21-.47-.47-.47h-4.05c-.26 0-.47.21-.47.47s.21.47.47.47h1.56v1.46l-1.28 2.76c-.72-.27-1.5-.43-2.31-.43-3.61 0-6.55 2.94-6.55 6.55s2.94 6.55 6.55 6.55 6.28-2.69 6.52-6.08h2.88c.17 0 .32-.09.41-.24l1.45-2.58c.13-.22.05-.51-.18-.63-.22-.13-.51-.05-.63.18l-1.32 2.34h-2.6c-.16-2.27-1.48-4.22-3.37-5.26l1.19-2.58h10.21l1.19 2.58c-2.02 1.12-3.39 3.27-3.39 5.73 0 3.61 2.94 6.55 6.55 6.55s6.55-2.94 6.55-6.55-2.94-6.55-6.55-6.55zm-18.9 12.16c-3.1 0-5.61-2.52-5.61-5.61s2.52-5.61 5.61-5.61c.67 0 1.32.13 1.92.34l-2.34 5.07c-.07.14-.06.31.03.45.09.13.23.21.39.21h5.59c-.24 2.88-2.65 5.15-5.59 5.15zm5.59-6.08h-4.86l2.04-4.41c1.57.89 2.67 2.52 2.83 4.41zm13.32 6.08c-3.1 0-5.61-2.52-5.61-5.61 0-2.09 1.15-3.91 2.85-4.88l2.34 5.08c.08.17.25.27.42.27.07 0 .13-.01.19-.04.23-.11.34-.38.23-.62l-2.34-5.07c.6-.22 1.24-.34 1.92-.34 3.1 0 5.61 2.52 5.61 5.61s-2.52 5.61-5.61 5.61z"/><path d="m19.26 14.2c.08-.09.13-.21.13-.33s-.05-.24-.13-.33c-.09-.09-.21-.14-.33-.14-.26 0-.47.21-.47.47 0 .13.05.25.14.33.09.09.2.14.33.14.12 0 .24-.05.33-.14z"/></svg>