<svg fill="currentColor" viewBox="0 0 32 32" xmlns="http://www.w3.org/2000/svg"><path d="m16.02 31.99h-.04c-.66 0-1.33-.04-1.99-.12-4.24-.54-8.02-2.69-10.64-6.07-2.61-3.37-3.76-7.57-3.22-11.81.53-4.24 2.69-8.01 6.06-10.63 3.38-2.62 7.58-3.77 11.81-3.23 4.24.54 8.02 2.69 10.63 6.07 2.62 3.38 3.76 7.57 3.23 11.81-.14 1.11-.4 2.21-.77 3.27-.11.32-.46.49-.78.38s-.49-.46-.38-.78c.34-.98.58-1.99.71-3.02.5-3.91-.56-7.78-2.98-10.9s-5.9-5.11-9.82-5.6c-3.91-.5-7.78.56-10.9 2.98-3.11 2.41-5.1 5.89-5.59 9.81-.5 3.91.56 7.78 2.98 10.9s5.9 5.11 9.82 5.6c.61.07 1.23.11 1.84.11.6 0 1.23-.04 1.83-.11 3.95-.49 7.59-2.6 9.98-5.77.2-.27.59-.33.86-.12.27.2.33.59.12.86-2.59 3.44-6.53 5.72-10.81 6.26-.64.08-1.3.12-1.94.12z"/><path d="m29.57 23.79c-.34 0-.61-.28-.62-.62 0-.16.07-.32.18-.44.24-.24.63-.24.87 0s.24.63 0 .87c-.12.11-.27.18-.44.18z"/><path d="m16.26 16.24c-.15 0-.3-.06-.42-.17l-7.59-7.11c-.25-.23-.26-.62-.03-.87s.62-.26.87-.03l7.25 6.79 5.36-3.22c.29-.18.67-.08.84.21s.08.67-.21.84l-5.76 3.46c-.1.06-.21.09-.32.09z"/></svg>