<svg fill="currentColor" viewBox="0 0 32 32" xmlns="http://www.w3.org/2000/svg"><path d="m10.46 14.9c.09-.09.13-.21.14-.33 0-.12-.05-.24-.14-.33s-.21-.14-.33-.14c-.26 0-.46.21-.46.47 0 .13.05.25.14.33.09.09.2.14.33.14.12 0 .24-.05.33-.14z"/><path d="m18.13 6.66s.01 0 .02 0c.08.01.16.02.24.03h.23c.63 0 1.23-.22 1.72-.63.54-.46.88-1.11.94-1.8l.15-1.12c.01-.08.02-.16.03-.24.06-.71-.16-1.4-.62-1.95-.46-.54-1.09-.87-1.8-.94-.07-.01-.14-.02-.22-.03-.71-.06-1.4.16-1.95.62s-.88 1.11-.94 1.8l-.14 1.12c-.01.08-.02.16-.03.24-.06.71.16 1.4.62 1.95.45.53 1.07.86 1.75.93zm-1.42-2.98.15-1.16c.04-.46.26-.88.61-1.18.36-.3.81-.44 1.27-.4.05 0 .1.01.16.02h.04c.46.04.88.26 1.18.61s.44.81.4 1.27c0 .05-.01.1-.02.18l-.15 1.16c-.08.96-.93 1.67-1.88 1.59-.03 0-.07 0-.1-.01-.03 0-.06-.01-.09-.02-.46-.04-.88-.26-1.18-.61s-.44-.81-.4-1.27c0-.05.01-.1.02-.18z"/><path d="m26.68 16.47c-.11-.37-.39-.88-1.12-1.25l-3.19-1.63-.87-3.99c-.02-.1-.07-.18-.14-.25-3.59-3.23-8.4-2.14-9.13-1.49l-6.15 6.06c-.59.58-.7 1.15-.69 1.54.01.51.25 1 .64 1.35.74.66 1.88.56 2.66-.22.18-.18.18-.48 0-.66s-.48-.18-.66 0c-.48.49-1.07.46-1.38.18-.2-.17-.32-.42-.32-.67 0-.29.13-.57.41-.85l6.13-6.05c.45-.35 4.59-1.33 7.76 1.4l.89 4.06c.03.14.12.25.24.32l3.39 1.73c.35.18.57.41.65.68.07.24.03.52-.1.74-.21.36-.76.57-1.38.24l-3.77-1.8-.99-3.85s-.01-.04-.02-.05c0-.02-.02-.05-.03-.07 0 0 0-.01-.01-.02-.01-.02-.02-.03-.04-.05 0 0-.02-.02-.03-.03 0 0-.02-.02-.03-.03s-.03-.02-.05-.03c0 0-.01 0-.02-.01-.02-.01-.04-.02-.07-.03-.02 0-.03-.01-.05-.02-.25-.06-.5.1-.56.35l-1.54 6.97c-.02.11 0 .22.04.32l5.03 9.57c.4.73.27 1.55-.32 1.92-.31.2-.7.26-1.04.17-.39-.1-.72-.4-.97-.87l-6.67-12.68.85-6.05c.03-.19-.07-.38-.24-.47s-.38-.07-.53.06l-.35.31-1.13 1.07c-.19.18-.2.47-.02.66s.47.2.66.02l.51-.48-.69 4.92c-.01.1 0 .2.05.28l.58 1.1-7 9.28c-.61.8-.65 1.51-.57 1.96.1.61.46 1.15.99 1.5.35.23.75.34 1.15.34.73 0 1.48-.37 1.99-1.06l5.83-7.48 3.78 7.18c.47.88 1.11 1.21 1.55 1.33.18.05.37.07.56.07.42 0 .85-.12 1.22-.35 1.01-.64 1.28-2 .64-3.15l-4.95-9.41 1.09-4.91.56 2.18c.03.13.13.25.25.3l3.95 1.88c.34.18.69.26 1.03.26.64 0 1.24-.3 1.57-.86.27-.45.34-.99.19-1.48zm-18.02 13.88c-.49.67-1.3.89-1.88.51-.31-.2-.53-.53-.59-.88-.07-.4.06-.81.39-1.24l6.74-8.93 1.43 2.72-6.1 7.83z"/></svg>