<svg fill="currentColor" viewBox="0 0 32 32" xmlns="http://www.w3.org/2000/svg"><path d="m3.08 32c-.16 0-.31-.06-.43-.18l-2.47-2.47c-.12-.11-.18-.27-.18-.43s.07-.32.18-.44l11.46-11.42c-1.12-1.74-1.77-3.81-1.77-6.03.02-6.08 4.98-11.03 11.07-11.03h.03c2.96 0 5.73 1.17 7.81 3.26 2.08 2.1 3.23 4.88 3.22 7.83 0 1.61-.37 3.24-1.06 4.7-.15.31-.51.44-.82.29s-.44-.51-.29-.82c.61-1.3.94-2.74.94-4.17 0-2.63-1.01-5.1-2.86-6.96s-4.32-2.89-6.94-2.9h-.03c-5.41 0-9.82 4.39-9.83 9.8-.02 5.42 4.38 9.85 9.8 9.86.92 0 1.84-.13 2.72-.38.33-.09.67.1.76.42s-.1.67-.42.76c-.99.29-2.02.43-3.06.43 0 0 0 0-.01 0-2.18 0-4.21-.65-5.92-1.74l-11.46 11.44c-.12.12-.28.18-.43.18zm-1.6-3.08 1.6 1.59 10.89-10.85c-.59-.48-1.12-1.01-1.6-1.59l-10.88 10.85zm19.43-10.25s0 0-.01 0c-4.19-.01-7.59-3.44-7.58-7.63 0-2.03.81-3.94 2.25-5.37s3.38-2.22 5.39-2.21c4.18.01 7.58 3.43 7.58 7.61 0 4.2-3.43 7.61-7.62 7.61zm0-1.23c3.52 0 6.38-2.86 6.39-6.38 0-3.5-2.85-6.36-6.35-6.37h-.02c-3.5 0-6.36 2.84-6.37 6.35-.01 3.52 2.84 6.38 6.35 6.4z"/><path d="m27.65 19.68c.34 0 .62-.28.62-.62s-.28-.62-.62-.62-.62.28-.62.62.28.62.62.62"/></svg>