<svg fill="currentColor" viewBox="0 0 32 32" xmlns="http://www.w3.org/2000/svg"><path d="m24.73 32h-17.46c-4.01 0-7.27-3.26-7.27-7.27v-17.46c0-4.01 3.26-7.27 7.27-7.27h17.47c4.01 0 7.27 3.26 7.27 7.27v17.47c0 4.01-3.26 7.27-7.27 7.27zm-17.46-29.63c-2.7 0-4.89 2.2-4.89 4.89v17.47c0 2.7 2.2 4.89 4.89 4.89h17.47c2.7 0 4.89-2.2 4.89-4.89v-17.46c0-2.7-2.2-4.89-4.89-4.89h-17.47z"/><path d="m16 24.12c-4.52 0-8.19-3.67-8.19-8.19s3.67-8.19 8.19-8.19 8.19 3.67 8.19 8.19-3.67 8.19-8.19 8.19zm0-14.01c-3.21 0-5.82 2.61-5.82 5.82s2.61 5.82 5.82 5.82 5.82-2.61 5.82-5.82-2.61-5.82-5.82-5.82z"/><circle cx="24.6" cy="7.27" r="1.86"/></svg>