<svg fill="currentColor" viewBox="0 0 32 32" xmlns="http://www.w3.org/2000/svg"><path d="m31.65 27.99-10.93-10.91c1.07-1.72 1.7-3.73 1.7-5.9 0-6.17-5.01-11.18-11.17-11.18s-11.18 5.01-11.18 11.17 5.01 11.17 11.17 11.17c2.08 0 4.01-.58 5.68-1.57l10.98 10.94c.18.18.42.27.66.27s.48-.09.67-.28l2.41-2.41c.18-.18.28-.42.28-.67s-.1-.49-.28-.67zm-29.69-16.82c0-5.12 4.16-9.29 9.29-9.29s9.29 4.17 9.29 9.29-4.17 9.29-9.29 9.29-9.29-4.16-9.29-9.29zm26.62 18.56-10.09-10.06c.39-.33.75-.7 1.1-1.08l10.07 10.06z"/></svg>