<svg fill="currentColor" viewBox="0 0 32 32" xmlns="http://www.w3.org/2000/svg"><path d="m16 0c-8.82 0-16 7.18-16 16s7.18 16 16 16 16-7.18 16-16-7.18-16-16-16zm0 30.12c-7.78 0-14.12-6.33-14.12-14.12s6.34-14.12 14.12-14.12 14.12 6.33 14.12 14.12-6.33 14.12-14.12 14.12z"/><path d="m22.29 9.71c-.37-.37-.96-.37-1.33 0l-4.96 4.96-1.58-1.58s-.07-.08-.1-.12l-3.28-3.26c-.37-.37-.96-.36-1.33 0-.37.37-.37.96 0 1.33l4.96 4.96-1.58 1.58s-.09.07-.12.1l-3.26 3.28c-.37.37-.36.96 0 1.33.18.18.42.27.66.27s.48-.09.67-.28l4.96-4.96 4.96 4.96c.18.18.42.28.67.28s.48-.09.67-.28c.37-.37.37-.96 0-1.33l-4.96-4.96 4.96-4.96c.37-.37.37-.96 0-1.33z"/></svg>