<svg fill="currentColor" viewBox="0 0 32 32" xmlns="http://www.w3.org/2000/svg"><path d="m4.44 28.11c-.31 0-.61-.12-.83-.35 0 0-.01-.01-.02-.02-.57-.67-.27-1.59.01-2.48.11-.35.18-.61.22-.78-.18-.05-.44-.1-.56-.12h-.02c-.84-.18-1.8-.37-2.13-1.23-.31-.83.26-1.58.76-2.24l.03-.04c.07-.09.23-.3.34-.48-.16-.09-.38-.2-.48-.25l-.03-.02c-.76-.38-1.62-.8-1.72-1.71-.1-.88.66-1.5 1.27-1.99.23-.19.38-.32.48-.41-.1-.09-.24-.22-.48-.41-.65-.52-1.37-1.11-1.28-1.98.1-.9.95-1.32 1.7-1.7h.02c.24-.13.4-.21.51-.28-.12-.17-.28-.39-.35-.49l-.02-.03c-.5-.66-1.07-1.4-.76-2.23.33-.87 1.28-1.06 2.12-1.23.29-.06.47-.1.59-.13-.06-.24-.17-.59-.21-.74v-.04c-.3-.89-.59-1.8-.02-2.48 0 0 .01-.02.02-.02.25-.25.59-.38.94-.35 1.07.07 2.14.31 3.14.72.21.09.31.33.23.54-.09.21-.33.31-.54.22-.93-.38-1.9-.6-2.9-.67-.11-.01-.2.02-.27.09-.26.33-.05.99.17 1.69v.04c.24.71.34 1.1.28 1.34-.02.1-.08.18-.15.24-.16.12-.45.21-1.11.34-.7.14-1.35.27-1.52.72-.15.4.26.93.65 1.45l.02.03c.41.55.6.83.63 1.05.01.1-.02.21-.08.29-.13.17-.38.33-1 .63h-.02c-.62.32-1.2.61-1.25 1.06-.05.43.47.85.97 1.26.56.45.8.69.88.89.04.1.04.21 0 .31-.08.2-.31.44-.88.89-.6.48-1.02.86-.97 1.26.05.46.67.76 1.27 1.06l.03.02c.54.27.82.43.96.61.07.09.1.2.08.31-.04.23-.23.52-.61 1.03l-.03.04c-.39.52-.8 1.05-.65 1.45.17.44.82.57 1.52.71h.02c.59.12.91.2 1.09.34.08.06.13.15.15.25.05.26-.06.68-.28 1.37-.22.7-.43 1.36-.17 1.69.07.07.17.1.26.09h.04c1.35 0 7.22-1.25 9.23-7.03.31-.9 1.16-1.51 2.12-1.51h.3c.95 0 1.8.61 2.12 1.51 2.01 5.78 7.88 7.03 9.23 7.03h.04c.1 0 .19-.02.26-.09.26-.33.05-.99-.17-1.68-.29-.91-.33-1.2-.28-1.39.02-.09.07-.18.15-.24.18-.14.49-.22 1.09-.34h.02c.7-.15 1.35-.28 1.52-.72.15-.41-.25-.93-.64-1.45-.47-.61-.63-.87-.65-1.09-.01-.1.02-.21.08-.29.14-.18.42-.35.97-.62h.02c.63-.33 1.22-.62 1.27-1.07.05-.43-.44-.83-.96-1.25-.51-.42-.8-.68-.89-.91-.04-.1-.04-.21 0-.31.08-.2.32-.44.88-.89.5-.41 1.02-.83.97-1.26-.05-.45-.63-.75-1.25-1.06h-.02c-.54-.28-.84-.45-.99-.62-.07-.09-.11-.21-.09-.33.04-.24.25-.55.65-1.07.41-.54.79-1.05.65-1.45-.16-.43-.81-.57-1.51-.71-.59-.12-.94-.21-1.12-.34-.08-.06-.14-.15-.16-.25-.05-.26.05-.66.27-1.37.23-.71.44-1.37.18-1.7-.07-.07-.17-.1-.26-.09-.01 0-.03 0-.04 0-.48 0-1.8.18-3.4.88-1.04.45-2 1.05-2.86 1.78-.93.8-1.71 1.76-2.29 2.84-.26.49-.49 1-.67 1.53-.31.9-1.17 1.5-2.12 1.51h-.31c-.95 0-1.8-.6-2.11-1.5-.21-.62-.49-1.23-.82-1.8-.11-.2-.05-.45.15-.56s.45-.05.56.15c.36.62.66 1.27.89 1.94.2.57.73.95 1.34.95h.3c.6 0 1.14-.38 1.34-.95.19-.57.44-1.12.72-1.65.64-1.17 1.47-2.21 2.48-3.07.92-.78 1.96-1.43 3.07-1.91 1.7-.74 3.12-.95 3.71-.95.34-.03.68.1.92.35 0 0 .01.01.02.02.57.67.27 1.59-.01 2.48-.05.16-.17.53-.22.78.12.03.31.08.59.13.85.17 1.8.37 2.13 1.23.3.83-.26 1.57-.76 2.23-.17.22-.29.39-.38.52.18.1.41.22.51.27h.02c.75.39 1.6.82 1.7 1.71.1.87-.63 1.46-1.27 1.99-.23.19-.38.32-.48.41.11.1.27.24.48.41.65.53 1.37 1.12 1.27 1.99-.1.9-.95 1.32-1.71 1.7h-.03c-.11.07-.33.18-.49.27.07.11.19.27.37.51.48.62 1.07 1.4.76 2.23-.32.87-1.28 1.06-2.12 1.23h-.02c-.12.03-.38.08-.57.13.03.15.1.38.22.78.28.89.58 1.81.01 2.48 0 0-.01.02-.02.02-.24.24-.57.37-.91.35-1.5-.01-7.83-1.37-9.99-7.58-.2-.57-.74-.95-1.34-.95h-.3c-.6 0-1.14.38-1.34.95-2.16 6.21-8.49 7.57-9.98 7.58-.03 0-.06 0-.09 0zm-2.07-16.27s0 0 0 0zm19.82 6.42c-.07 0-.14-.02-.21-.06-.73-.44-2.93-1.75-5.46-1.8-.08 0-.16 0-.24 0-2.52.04-4.73 1.36-5.46 1.8-.19.12-.45.05-.56-.14-.12-.19-.05-.45.14-.56.52-.31 1.74-1.04 3.31-1.5-1.57-.46-2.79-1.19-3.31-1.5-.19-.12-.26-.37-.14-.56s.37-.26.56-.14c.73.44 2.93 1.75 5.46 1.8h.24c2.53-.04 4.73-1.36 5.46-1.8.19-.12.45-.05.56.14.12.19.05.45-.14.56-.52.31-1.74 1.04-3.31 1.5 1.57.46 2.79 1.19 3.31 1.5.19.12.26.37.14.56-.08.13-.21.2-.35.2z"/><path d="m10.76 7.21c-.11 0-.21-.04-.29-.12s-.12-.18-.12-.29.04-.21.12-.29c.16-.16.42-.16.58 0 .08.08.12.18.12.29 0 .23-.18.41-.41.41z"/></svg>