<svg fill="currentColor" viewBox="0 0 32 32" xmlns="http://www.w3.org/2000/svg"><path d="m28.31 10.52c0 5.98-3.06 12.62-9.87 12.62-1.61 0-3.65-.81-4.44-2.31-1.46 5.79-1.35 6.66-4.58 11.08-.33.12-.22.15-.44-.1-.11-1.21-.29-2.4-.29-3.62 0-3.92 1.81-9.6 2.69-13.41-.48-.98-.61-2.17-.61-3.25 0-5.13 6.02-5.9 6.02-1.65 0 2.5-1.69 4.85-1.69 7.27 0 1.65 1.37 2.81 2.96 2.81 4.42 0 5.79-6.39 5.79-9.79 0-4.56-3.23-7.04-7.6-7.04-5.08 0-9 3.65-9 8.81 0 2.48 1.52 3.75 1.52 4.35 0 .5-.37 2.27-1 2.27-1.54 0-4.08-2.56-4.08-7.08 0-7.09 6.5-11.48 13.08-11.48 6.04 0 11.54 4.15 11.54 10.52z"/></svg>