<svg fill="currentColor" viewBox="0 0 32 32" xmlns="http://www.w3.org/2000/svg"><path d="m28.73 10.33c0 8.67-6.6 18.66-18.66 18.66-3.72 0-7.17-1.08-10.07-2.94.53.06 1.04.08 1.58.08 3.07 0 5.89-1.04 8.14-2.8-2.88-.06-5.3-1.95-6.13-4.55.41.06.81.1 1.24.1.59 0 1.18-.08 1.72-.22-3.01-.61-5.26-3.25-5.26-6.44v-.08c.87.49 1.89.79 2.96.83-1.77-1.18-2.92-3.19-2.92-5.46 0-1.22.32-2.34.89-3.31 3.23 3.98 8.08 6.58 13.52 6.86-.1-.49-.16-.99-.16-1.5 0-3.61 2.92-6.56 6.56-6.56 1.89 0 3.59.79 4.79 2.07 1.48-.29 2.9-.83 4.16-1.58-.49 1.52-1.52 2.8-2.88 3.61 1.32-.14 2.6-.51 3.78-1.02-.89 1.3-2.01 2.46-3.29 3.39.02.29.02.57.02.85z"/></svg>