<svg fill="currentColor" viewBox="0 0 32 32" xmlns="http://www.w3.org/2000/svg"><path d="m31.98 7.18c-.36-1.18-.84-2.24-3-3.34-.02-.01-.03-.02-.05-.03-.3-.15-.58-.28-.85-.41-1.63-.77-2.61-1.24-3.12-3.06-.05-.18-.2-.31-.39-.34-.18-.02-.37.07-.46.23-.59 1.04-1.04 2.15-1.34 3.3-1.37.3-5.83 1.64-6.5 6.54-1.86.39-4.97 1.3-6.26 6.25-3.95.8-5.66 3.81-6.44 6.58-2.23.45-3.35 1.39-3.4 1.43-.14.12-.19.31-.14.49.36 1.19.84 2.26 3.06 3.37.3.15.58.28.85.41 1.63.77 2.61 1.24 3.12 3.06.05.18.2.31.39.34h.06c.16 0 .32-.09.4-.23.59-1.04 1.04-2.16 1.34-3.31.6-.13 1.2-.3 1.78-.53.24-.09.36-.36.26-.6-.09-.24-.36-.36-.6-.27-.39.15-.79.27-1.19.38.4-1.88.69-4.34.91-7.63.46-6.98 3.63-8.26 5.75-8.75-.11.93-.21 1.91-.32 2.94-.36 3.6-.74 7.32-1.6 9.41-.1.24.02.51.25.61.06.02.12.04.18.04.18 0 .36-.11.43-.29.21-.52.4-1.14.56-1.82 1.83-.38 5.06-1.21 6.37-6.3 3.92-.81 5.63-3.79 6.41-6.55 2.25-.44 3.38-1.39 3.42-1.43.14-.12.19-.31.14-.49zm-30.97 17.69c.36-.24 1.14-.65 2.31-.94-.26 1.21-.36 2.31-.43 3.05v.04c-1.28-.76-1.64-1.47-1.87-2.15zm6.56 5.53c-.71-1.44-1.85-1.98-3.24-2.64-.18-.08-.37-.18-.56-.27.01-.13.03-.27.04-.42.08-.89.21-2.18.55-3.53.04-.07.06-.14.06-.22.66-2.48 2.09-5.12 5.37-5.97-.14.73-.25 1.52-.31 2.41-.24 3.68-.57 6.29-1.05 8.21-.2.84-.48 1.66-.85 2.44zm8.29-9.45c.4-2.03.65-4.46.89-6.85.14-1.37.27-2.67.43-3.85.51-3.9 3.8-5.26 5.35-5.69-.4 1.88-.7 4.34-.91 7.63-.46 7.02-3.64 8.27-5.75 8.75zm6.38-6.31c.13-.72.24-1.5.3-2.39.24-3.68.57-6.29 1.05-8.21.2-.84.48-1.66.85-2.44.71 1.44 1.85 1.98 3.24 2.64.17.08.36.17.54.26-.01.12-.03.26-.04.41-.08.92-.21 2.26-.58 3.66v.02c-.65 2.5-2.07 5.17-5.37 6.04zm6.43-6.55c.26-1.22.37-2.33.44-3.08 0-.01 0-.02 0-.03 1.29.77 1.66 1.48 1.88 2.16-.36.24-1.15.66-2.33.95z"/><path d="m12.69 25.66c-.09.09-.14.21-.14.33s.05.24.13.33c.09.09.2.14.33.14.26 0 .47-.21.47-.47 0-.12-.05-.24-.14-.33-.18-.18-.47-.18-.66 0z"/></svg>