<svg fill="currentColor" viewBox="0 0 32 32" xmlns="http://www.w3.org/2000/svg"><path d="m16.01 31.62c-8.83 0-16.01-7.01-16.01-15.62s7.17-15.62 15.99-15.62h.05c3.64 0 7.22 1.25 10.07 3.52.27.21.31.6.1.86-.21.27-.6.31-.86.1-2.63-2.1-5.94-3.25-9.3-3.25h-.04c-8.16 0-14.78 6.46-14.78 14.39s6.63 14.39 14.78 14.39 14.76-6.45 14.76-14.39c0-1.46-.22-2.91-.67-4.3-.1-.32.07-.67.4-.77.32-.11.67.07.77.4.49 1.51.73 3.09.73 4.67 0 8.61-7.17 15.62-15.99 15.62zm0-15.15c-2.71 0-4.76-1.18-4.76-2.74 0-.34.28-.62.62-.62s.62.28.62.62c0 .63 1.34 1.51 3.52 1.51s3.52-.88 3.52-1.51c0-.34.28-.62.62-.62s.62.28.62.62c0 1.56-2.04 2.74-4.76 2.74zm-9.87-5.76s-.02 0-.03 0c-.34-.01-.6-.3-.59-.64.07-1.69 1.44-3.02 3.13-3.03.79-.04 1.57.24 2.17.79s.96 1.3 1 2.11v.17c0 .34-.28.61-.62.61-.34 0-.61-.28-.61-.62v-.1c-.03-.48-.24-.93-.6-1.26s-.82-.49-1.31-.47c-1.06 0-1.9.82-1.94 1.85-.01.33-.29.59-.61.59zm14.65 0s-.02 0-.03 0c-.34-.01-.6-.3-.59-.64.07-1.69 1.44-3.02 3.13-3.03 1.65-.08 3.09 1.22 3.17 2.89v.17c0 .34-.28.61-.62.61-.34 0-.61-.28-.61-.62v-.1c-.05-1-.9-1.77-1.91-1.72-1.06 0-1.9.82-1.94 1.85-.01.33-.29.59-.61.59z"/><path d="m28.76 8.27c.34 0 .62-.28.62-.62s-.28-.62-.62-.62-.62.28-.62.62.28.62.62.62"/></svg>