<svg fill="currentColor" xmlns="http://www.w3.org/2000/svg" viewBox="0 0 32 32"><defs><style>.cls-1{stroke-width:0px;}</style></defs><path class="cls-1" d="m27.24,0H10.2c-.08,0-.16.02-.24.05-.08.03-.15.08-.2.14l-5.44,5.44s0,0,0,0c-.05.05-.09.11-.12.18,0,.02-.01.04-.02.06-.02.05-.03.11-.03.17,0,.01,0,.02,0,.04v25.92h3.84c.35,0,.63-.28.63-.63s-.28-.63-.63-.63h-2.58V6.7h3.98c.8,0,1.46-.66,1.46-1.46V1.26h15.78v29.49l-12.65-.02h0c-.35,0-.63.28-.63.63,0,.35.28.63.63.63l13.91.02V.63C27.87.28,27.58,0,27.24,0ZM9.57,5.23c0,.12-.09.21-.21.21h-3.09l3.3-3.3v3.09Z"/><circle class="cls-1" cx="10.99" cy="31.36" r=".63"/><path class="cls-1" d="m12.92,6.7h6.16c.35,0,.63-.28.63-.63s-.28-.63-.63-.63h-6.16c-.35,0-.63.28-.63.63s.28.63.63.63Z"/><path class="cls-1" d="m19.71,18.15c0-.22-.07-.44-.24-.61l-5.76-5.76c-.32-.32-.85-.32-1.17,0-.32.32-.32.85,0,1.17l5.21,5.21-5.2,5.2c-.32.32-.32.85,0,1.17s.85.32,1.17,0l5.76-5.76c.17-.17.25-.4.24-.63Z"/></svg>