<svg fill="currentColor" viewBox="0 0 32 32" xmlns="http://www.w3.org/2000/svg"><path d="m22.69 7.51c-.17 0-.33-.06-.46-.19-.14-.14-.28-.28-.44-.41-3.11-2.81-7.38-3.84-11.42-2.76-.16.04-.31.08-.46.13-.34.11-.7-.08-.81-.42s.08-.7.42-.81c.17-.05.34-.1.52-.15 4.47-1.2 9.19-.06 12.62 3.05.17.15.33.3.49.46.25.25.25.66 0 .91-.13.13-.29.19-.46.19z"/><path d="m30.84 19.6v6.84c.09.38-.14.77-.53.86-.38.09-.77-.14-.86-.53-.03-.11-.03-.22 0-.33v-19.27s2.55.73 2.55 5.56v5.39h-.56c-.36.05-.62.37-.59.74v.75z"/><path d="m18.54 11.46c0-2.58-2.09-4.67-4.67-4.67s-4.67 2.09-4.67 4.67c0 .78.21 1.55.59 2.23 1.48.19 2.77 1.07 3.48 2.38.2.03.4.05.59.06 2.58 0 4.67-2.09 4.67-4.67"/><path d="m17.81 22.25c1.61 0 2.91-1.3 2.91-2.91s-1.3-2.91-2.91-2.91-2.91 1.3-2.91 2.91 1.3 2.91 2.91 2.91"/><path d="m8.61 25.04c-2.93 0-5.31-2.39-5.32-5.32 0-2.93 2.39-5.32 5.32-5.32s5.32 2.39 5.32 5.32-2.39 5.32-5.32 5.32zm0-9.34c-2.22 0-4.02 1.81-4.02 4.02 0 2.22 1.81 4.02 4.03 4.02s4.02-1.81 4.02-4.02-1.81-4.02-4.02-4.02z"/><path d="m8.61 23.12c-1.87 0-3.39-1.52-3.39-3.39s1.52-3.39 3.39-3.39 3.39 1.52 3.39 3.39-1.52 3.39-3.39 3.39zm0-5.65c-1.24 0-2.25 1.01-2.25 2.25s1.01 2.25 2.26 2.25c1.24 0 2.25-1.01 2.25-2.25s-1.01-2.25-2.25-2.25z"/><path d="m8.61 21.25c.84 0 1.52-.68 1.52-1.52s-.68-1.52-1.52-1.52-1.52.68-1.52 1.52.68 1.52 1.52 1.52z"/><path d="m13.56 29.57c-3.48 0-6.93-1.34-9.57-3.97-2.57-2.56-3.99-5.97-3.99-9.59s1.4-7.03 3.96-9.6c.25-.25.66-.25.91 0s.25.66 0 .91c-2.31 2.32-3.59 5.41-3.58 8.69s1.29 6.36 3.61 8.67c4.28 4.26 10.93 4.79 15.83 1.27.29-.21.69-.14.9.15s.14.69-.15.9c-2.39 1.72-5.17 2.57-7.93 2.57z"/><path d="m6.9 5.6c.36 0 .65-.29.65-.65s-.29-.65-.65-.65-.65.29-.65.65.29.65.65.65"/><path d="m28.18 7.17h-.74v4.13c0 .18-.14.32-.32.32s-.32-.14-.32-.32v-4.13h-.82v4.13c0 .18-.14.32-.32.32s-.32-.14-.32-.32v-4.13h-.74c-.23 0-.42.19-.43.43v4.35c-.03.51.27.99.76 1.16.49.18.8.66.77 1.18v12.15c-.09.38.14.77.53.86.38.09.77-.14.86-.53.03-.11.03-.22 0-.33v-12.15c-.03-.52.28-1 .77-1.18.48-.18.79-.65.76-1.16v-4.35c0-.23-.19-.42-.43-.43z"/></svg>