<svg fill="currentColor" viewBox="0 0 32 32" xmlns="http://www.w3.org/2000/svg"><path d="m27.95 15.92c-.52 0-.94.42-.94.94v8.31c0 1.32-.52 2.56-1.45 3.5-.93.93-2.18 1.45-3.5 1.45h-15.14c-2.73 0-4.95-2.22-4.94-4.95v-15.34c0-2.73 2.22-4.96 4.95-4.97h8.11c.52 0 .94-.42.94-.94s-.42-.94-.94-.94h-8.11c-3.78 0-6.84 3.08-6.84 6.85v15.34c0 3.77 3.06 6.83 6.83 6.83h15.14c1.82 0 3.54-.71 4.83-2s2-3 2-4.84v-8.3c0-.52-.42-.94-.94-.94z"/><path d="m30.96 0h-11.6c-.52 0-.94.42-.94.94s.42.94.94.94h9.32l-14.49 14.49c-.37.37-.37.96 0 1.33.18.18.42.28.67.28s.48-.09.67-.28l14.49-14.49v9.32c0 .52.42.94.94.94s.94-.42.94-.94v-11.59c0-.52-.42-.94-.94-.94z"/></svg>