<svg fill="currentColor" viewBox="0 0 32 32" xmlns="http://www.w3.org/2000/svg"><path d="m19.67.43c-8.58-2.02-17.21 3.31-19.24 11.89s3.31 17.22 11.9 19.24c1.23.29 2.47.43 3.7.43 2.94 0 5.82-.81 8.38-2.4 3.63-2.25 6.18-5.77 7.16-9.93 2.03-8.57-3.31-17.21-11.9-19.23zm-17.41 12.33c.09-.39.21-.77.33-1.14h6.13c-.14 1.41-.21 2.82-.16 4.22-.05 1.52.03 3.04.19 4.55h-6.14c-.79-2.39-.96-5.01-.34-7.63zm8.18 3.08c-.04-1.41.02-2.82.18-4.22h10.78c.16 1.42.23 2.85.19 4.28.04 1.5-.04 3-.22 4.49h-10.71c-.18-1.5-.26-3.02-.21-4.55zm12.85-4.22h6.11c.8 2.44.94 5.06.33 7.63-.09.39-.21.77-.33 1.14h-6.15c.17-1.49.25-2.99.2-4.49.04-1.43-.02-2.86-.17-4.28zm4.72-3.04c.23.38.44.76.64 1.16h-5.6c-.38-2.35-1.02-4.65-1.9-6.86 2.84 1.1 5.24 3.07 6.86 5.71zm-9.21-6.4c1.1 2.4 1.88 4.94 2.34 7.55h-10.24c.45-2.61 1.24-5.16 2.35-7.56 1.79-.36 3.67-.38 5.56 0zm-7.91.68c-.89 2.22-1.53 4.53-1.91 6.87h-5.61c1.58-3.19 4.29-5.61 7.51-6.87zm-7.53 19.4h5.66c.41 2.37 1.07 4.7 2 6.93-3.42-1.29-6.11-3.81-7.66-6.93zm10.02 7.59c-1.15-2.4-1.97-4.96-2.45-7.59h10.14c-.48 2.62-1.3 5.18-2.45 7.59-1.72.33-3.49.33-5.25 0zm10.04-1.85c-.78.48-1.59.88-2.43 1.2.93-2.23 1.59-4.56 2-6.94h5.64c-1.16 2.34-2.94 4.33-5.22 5.74z"/></svg>