<svg fill="currentColor" viewBox="0 0 32 32" xmlns="http://www.w3.org/2000/svg"><path d="m16 32c-.22 0-.42-.12-.53-.31l-8.7-15.06c-.13-.21-.27-.44-.41-.69-.02-.03-.03-.06-.04-.09-.79-1.53-1.21-3.25-1.21-4.98 0-2.91 1.13-5.64 3.19-7.69s4.79-3.19 7.69-3.19c6 0 10.88 4.88 10.87 10.88 0 1.73-.42 3.45-1.22 4.99 0 .03-.02.05-.03.07l-.11.2c-.42.8-.71 1.36-.82 1.53-.18.29-.56.37-.85.19s-.37-.56-.19-.85c.1-.16.59-1.09.77-1.44l.08-.15s.02-.05.03-.08c.73-1.37 1.11-2.92 1.11-4.47 0-5.32-4.32-9.65-9.64-9.65-5.32 0-9.65 4.33-9.65 9.65 0 1.55.38 3.1 1.1 4.47l.03.06c.11.2.22.39.34.58l8.18 14.16 4.68-8.12c.17-.29.55-.4.84-.23s.4.55.23.84l-5.21 9.04c-.11.19-.31.31-.53.31zm0-14.48c-3.54 0-6.41-2.88-6.41-6.41s2.88-6.41 6.41-6.41 6.41 2.88 6.41 6.41c0 3.54-2.88 6.41-6.41 6.41zm0-11.6c-2.86 0-5.18 2.32-5.18 5.18s2.33 5.18 5.18 5.18c2.86 0 5.18-2.33 5.18-5.18 0-2.86-2.32-5.18-5.18-5.18z"/><path d="m22.79 20.35c.34 0 .62-.28.62-.62s-.28-.62-.62-.62-.62.28-.62.62.28.62.62.62"/></svg>