<svg fill="currentColor" viewBox="0 0 32 32" xmlns="http://www.w3.org/2000/svg"><path d="m31.35 14.91-1.37.38-2.89-7.98 4.61-1.64c.24-.09.37-.35.28-.6-.09-.24-.35-.37-.6-.28l-5.05 1.8c-.12.04-.21.13-.26.24s-.06.24-.02.36l.05.13s0 0-.01 0l-1.38.47c-1.14-.57-5-2.47-6.12-2.47-1.18 0-5.89 1.65-6.45 2.37-.1.13-.27.39-.46.71l-5.58-1.09c-.07-.01-.13-.01-.19 0l.05-.14c.04-.12.04-.25-.02-.36s-.15-.2-.26-.24l-5.06-1.78c-.24-.09-.51.04-.6.28s.04.51.28.6l4.61 1.64-2.89 7.98-1.37-.38c-.25-.07-.51.08-.57.32-.07.25.08.51.32.57l1.79.5s.08.02.13.02c.19 0 .37-.12.44-.31l.14-.4c.05.11.15.19.27.23l1.09.36s-.01.01-.02.02l-.58.54c-.5.46-.8 1.09-.83 1.73-.02.55.16 1.05.51 1.43.38.41.92.62 1.47.62.11 0 .23-.01.34-.03-.01.09-.02.17-.03.26-.02.55.16 1.05.51 1.43s.84.6 1.39.62h.08c.18 0 .36-.02.54-.07v.1c-.02.55.16 1.05.51 1.43s.84.6 1.39.62h.08c.19 0 .38-.03.56-.07 0 .04 0 .07-.01.11-.02.55.16 1.05.51 1.43s.84.6 1.39.62h.08c.61 0 1.23-.25 1.71-.69l.03-.03.07-.07s.07.06.12.08l1.51.72s0 0 0 0c.29.15.59.22.89.22.72 0 1.41-.39 1.76-1.08.17-.34.24-.7.21-1.06l.83.43s0 0 0 0c.3.15.63.23.95.23.22 0 .43-.03.65-.1.53-.17.97-.54 1.22-1.04.2-.38.27-.8.21-1.22l.28.14s0 0 0 0c.32.16.66.24.99.24.79 0 1.56-.43 1.95-1.19.21-.42.28-.88.21-1.32l.45.23c.32.16.66.24.99.24.8 0 1.56-.44 1.95-1.19.27-.52.31-1.11.13-1.67s-.56-1.01-1.09-1.27l-.11-.06c.06-.34.14-.89.08-1.39l.97-.31.05.15c.07.19.25.31.44.31.04 0 .08 0 .13-.02l1.79-.5c.25-.07.39-.33.32-.57-.07-.25-.33-.39-.57-.32zm-27.31 4.38c-.23-.25-.27-.55-.27-.76.01-.39.21-.79.53-1.08l.58-.54c.32-.29.71-.45 1.07-.45.3 0 .59.11.79.32.2.22.3.53.26.86-.03.26-.13.51-.3.73-.05.04-.1.08-.15.13l-.58.54c-.09.08-.17.17-.24.26-.57.41-1.29.42-1.69-.01zm4.14 2.19c-.32.28-.71.43-1.09.42-.21 0-.51-.07-.74-.32s-.27-.55-.27-.76c.01-.29.12-.57.3-.82.05-.04.11-.09.16-.13.01-.01.02-.02.03-.03l.55-.51c.09-.08.16-.16.24-.25.28-.21.61-.32.91-.32s.59.11.79.32c.2.22.3.53.26.86-.03.25-.13.5-.29.72l-.52.49c-.11.1-.21.22-.3.33 0 0 0 0-.01.01zm2.55 2.06s-.02.02-.03.03c-.32.28-.71.43-1.09.42-.21 0-.51-.07-.74-.32s-.27-.55-.27-.76c.01-.28.12-.57.29-.81l.53-.49c.11-.1.21-.21.3-.33.32-.29.7-.43 1.06-.43.3 0 .59.11.79.32.2.22.3.53.26.86-.03.28-.15.56-.35.79l-.45.41c-.08.07-.15.15-.22.23l-.09.08zm2.54 2.09s-.02.02-.03.03c-.32.28-.72.43-1.09.42-.21 0-.51-.07-.74-.32s-.27-.55-.27-.76c.01-.32.15-.64.37-.91l.43-.4c.08-.07.15-.15.22-.23l.08-.08c.32-.3.71-.45 1.07-.45.3 0 .59.11.79.32.2.22.3.53.26.86-.04.36-.22.71-.52.98l-.58.54zm14.28-10.22c-.12.04-.22.13-.28.24s-.06.25-.02.37c.1.26.08.71.02 1.1l-2.56-1.28c-.23-.12-.51-.02-.63.21s-.02.51.21.63l3.54 1.78c.3.15.52.41.62.73s.08.66-.08.96c-.32.62-1.07.86-1.69.54l-7.02-3.61c-.23-.12-.51-.03-.63.2s-.03.51.2.63l4.88 2.51s.07.06.11.08c.61.31.86 1.07.54 1.68-.31.62-1.07.86-1.68.55 0 0 0 0-.01 0l-4.89-2.46c-.23-.12-.51-.02-.63.21s-.02.51.21.63l3.02 1.52s.02.01.03.02c.28.14.48.38.58.68s.07.61-.07.89c-.14.28-.38.48-.68.58s-.61.07-.89-.07l-2.26-1.16s-.05-.03-.07-.04c-.01 0-.03 0-.04-.01l-.5-.26c-.23-.12-.51-.03-.63.2s-.03.51.2.63l.58.3c.48.27.67.88.42 1.38-.26.51-.89.71-1.4.46 0 0-.01 0-.02 0l-1.35-.64c.33-.38.54-.85.59-1.33.07-.61-.11-1.18-.5-1.6-.51-.55-1.29-.73-2.03-.55.05-.59-.12-1.14-.5-1.55-.51-.54-1.27-.72-2.01-.55.05-.59-.13-1.13-.5-1.54-.46-.5-1.14-.69-1.82-.59 0-.03.01-.06.01-.09.07-.61-.11-1.18-.5-1.6-.51-.54-1.28-.72-2.02-.55l-1.94-.64c-.11-.04-.23-.03-.33.02l2.5-6.92c.07.09.16.15.28.18l5.27 1.03c-.57 1.01-1.18 2.15-1.29 2.36-.1.19-.06.42.09.56 1.41 1.32 3.63 1.24 4.95-.17.18-.2.35-.42.48-.65.26 0 .49 0 .72.02.58.02 1.17.05 2.06-.08.59 2.02 2.09 3.26 4.46 3.69h.08c.22 0 .42-.16.46-.38.05-.25-.12-.5-.37-.54-2.16-.4-3.42-1.51-3.83-3.4-.05-.24-.29-.4-.54-.36-1.04.18-1.65.16-2.29.13-.32-.01-.66-.03-1.06-.02-.18 0-.34.11-.41.27-.11.25-.27.47-.45.67-.89.95-2.33 1.08-3.36.35.7-1.3 1.69-3.09 1.97-3.44.43-.45 4.66-2.02 5.72-2.02.74 0 3.99 1.51 5.87 2.45.11.06.24.07.36.03l1.57-.53s.02 0 .03-.01l2.46 6.79-1.33.43z"/><path d="m29 8.39c0 .13.05.25.14.33.09.09.2.14.33.14.26 0 .46-.21.46-.47 0-.12-.05-.24-.14-.33s-.21-.14-.33-.14c-.26 0-.46.21-.46.47z"/></svg>