<svg fill="currentColor" viewBox="0 0 32 32" xmlns="http://www.w3.org/2000/svg"><path d="m28.31 0h-4.28c-.35 0-.63.28-.63.63s.28.63.63.63h3.65v2.71h-23.36v-2.71l13.72.02c.35 0 .63-.28.63-.63s-.28-.63-.63-.63l-14.35-.02c-.17 0-.33.07-.44.18-.12.12-.18.28-.18.44v3.97c0 .35.28.63.63.63h.45v26.14c0 .35.28.63.63.63h17.04c.08 0 .16-.02.24-.05s.15-.08.2-.14l5.44-5.44s0 0 0 0c.05-.05.09-.11.12-.18 0-.02.01-.04.02-.06.02-.05.03-.11.03-.17 0-.01 0-.03 0-.04v-20.68h.44c.35 0 .63-.28.63-.63v-3.97c0-.35-.28-.63-.63-.63zm-5.88 29.85v-3.09c0-.12.09-.21.21-.21h3.09zm4.18-4.55h-3.98c-.8 0-1.46.66-1.46 1.46v3.98h-15.78v-25.51h21.22z"/><circle cx="21.01" cy=".65" r=".63"/><path d="m19.08 25.3h-6.16c-.35 0-.63.28-.63.63s.28.63.63.63h6.16c.35 0 .63-.28.63-.63s-.28-.63-.63-.63z"/><path d="m15.43 21.99s.09.04.1.04l.41.19c.08.04.17.06.27.06h.09c.09 0 .18-.02.27-.06l.38-.18s.1-.04.15-.07c2.57-1.35 8.49-5.02 8.01-9.89-.21-2.08-1.63-3.81-3.63-4.4-1.92-.56-3.85.05-5.21 1.66-1.36-1.61-3.3-2.24-5.22-1.67-2 .59-3.43 2.32-3.63 4.4-.48 4.87 5.44 8.54 8.02 9.9zm-6.77-9.78c.16-1.57 1.23-2.87 2.74-3.32.34-.1.68-.15 1.02-.15 1.12 0 2.18.54 2.99 1.55.04.05.27.3.34.41.24.33.79.33 1.03 0 .04-.06.15-.18.23-.28.07-.08.12-.14.13-.15 1.03-1.3 2.52-1.81 3.99-1.38 1.51.45 2.58 1.75 2.74 3.32.14 1.37-.31 4.95-7.32 8.64 0 0-.08.03-.08.03l-.19.09-.19-.09s-.05-.02-.06-.02c-7.03-3.7-7.48-7.29-7.34-8.66z"/></svg>