<svg fill="currentColor" viewBox="0 0 32 32" xmlns="http://www.w3.org/2000/svg"><path d="m7.6 11.79c.47-.46 1.21-.45 1.67.01l5.55 5.63v-16.24c0-.65.53-1.19 1.19-1.19s1.19.53 1.19 1.19v16.25l5.55-5.63c.44-.48 1.19-.5 1.66-.06.48.44.5 1.19.06 1.66-.02.02-.03.04-.05.05l-7.57 7.69c-.45.46-1.19.48-1.66.02 0 0-.02-.02-.02-.02l-7.57-7.69c-.46-.46-.46-1.21 0-1.67h.02zm22.03 13.49c.02 3.69-2.95 6.7-6.64 6.72h-13.99c-3.69-.02-6.66-3.03-6.64-6.72v-7.79c0-.65.53-1.19 1.19-1.19s1.19.53 1.19 1.19v7.79c-.02 2.38 1.89 4.32 4.27 4.35h13.99c2.38-.03 4.29-1.97 4.27-4.35v-7.79c0-.65.53-1.19 1.19-1.19s1.19.53 1.19 1.19v7.79z"/></svg>