<svg fill="currentColor" viewBox="0 0 32 32" xmlns="http://www.w3.org/2000/svg"><path d="m28.67 19.68c-.34 0-.61-.28-.62-.62 0-.16.07-.32.18-.44.24-.24.63-.24.87 0 .12.12.18.28.18.44 0 .34-.27.61-.6.62 0 0 0 0-.01 0"/><path d="m16 29.44c-.09 0-.18-.02-.26-.06l-.78-.36c-.09-.04-.14-.06-.18-.08-4.74-2.52-15.64-9.32-14.73-18.21.39-3.71 2.92-6.78 6.47-7.81 3.46-1.01 6.95.2 9.35 3.24.03.04.06.07.1.09.03.02.05.04.08.06.06-.09.12-.17.18-.25 0-.01.05-.06.06-.07.99-1.28 2.3-2.26 3.81-2.84.05-.02.1-.04.15-.06.66-.25 1.34-.4 2.04-.47.34-.04.7-.05 1.06-.05 2.34.03 4.53.96 6.17 2.64 1.64 1.67 2.52 3.89 2.5 6.23v.12c.02 1.29-.2 2.57-.63 3.8-.11.32-.47.49-.79.37-.32-.11-.49-.47-.37-.79.39-1.09.58-2.22.56-3.38v-.14c.02-2.02-.74-3.92-2.15-5.36s-3.29-2.25-5.3-2.27c-.3 0-.61.01-.91.05-.61.06-1.2.2-1.77.41-.01 0-.03 0-.04.01-.01 0-.03.01-.04.02-1.3.5-2.44 1.34-3.29 2.45 0 .01-.05.06-.06.07-.22.28-.41.58-.58.89-.1.19-.3.31-.51.32s-.42-.09-.54-.27-.25-.36-.39-.54c-.11-.08-.21-.18-.29-.29-2.07-2.62-5.08-3.68-8.04-2.82-3.06.89-5.25 3.54-5.58 6.75-.84 8.15 9.56 14.59 14.07 16.99l.06.03s.06.03.06.03l.52.25.51-.24c.09-.04.14-.06.18-.08 3.09-1.58 6-3.58 8.61-5.91.25-.23.64-.2.87.05s.21.64-.05.87c-2.69 2.41-5.68 4.46-8.9 6.11-.09.04-.15.07-.22.1l-.74.35c-.08.04-.17.06-.26.06zm4.46-25.14s0 0 0 0zm.3-.15s0 0 0 0zm0 0s0 0 0 0z"/></svg>