<svg fill="currentColor" viewBox="0 0 32 32" xmlns="http://www.w3.org/2000/svg"><path d="m9.89 16.03c0 3.36 2.74 6.09 6.09 6.09s6.09-2.74 6.09-6.09-2.74-6.09-6.09-6.09c-3.32-.04-6.09 2.7-6.09 6.09zm13.39-9.57c-1.95 1.56-1.95 2.5-1.64 3.16.16.24.2.24.35-.04.63-1.37 1.95-1.72 3.32-1.41 2.11.47 3.2.28 3.71-.9.2-.35.2-.31.39.12.67 1.68-.63 3.71-2.42 4.02-2.46.39-2.97 1.17-2.97 1.92 0 .31.04.31.31.12 1.17-.86 2.58-.55 3.63.43 1.6 1.49 2.62 1.84 3.71 1.1.31-.2.35-.16.31.28-.24 1.8-2.42 2.93-4.1 2.31-2.38-.9-3.2-.47-3.52.16-.16.24-.12.31.2.28 1.49-.12 2.46.82 2.89 2.19.63 2.07 1.37 2.89 2.62 2.81.39-.04.39.04.12.39-1.1 1.45-3.56 1.33-4.65-.08-1.56-1.95-2.5-1.95-3.16-1.64-.24.16-.24.2.04.35 1.37.63 1.72 1.95 1.41 3.32-.47 2.11-.28 3.2.9 3.71.35.2.31.2-.12.39-1.68.67-3.71-.63-4.02-2.42-.39-2.46-1.17-2.97-1.92-2.97-.31 0-.31.04-.12.31.86 1.17.55 2.58-.43 3.63-1.49 1.6-1.84 2.62-1.1 3.71.2.31.16.35-.28.31-1.8-.24-2.93-2.42-2.31-4.1.9-2.38.47-3.2-.16-3.52-.24-.16-.31-.12-.28.2.12 1.49-.82 2.46-2.19 2.89-2.07.63-2.89 1.37-2.81 2.62.04.39-.04.39-.39.12-1.45-1.1-1.33-3.56.08-4.65 1.95-1.56 1.95-2.5 1.64-3.16-.16-.24-.2-.24-.35.04-.63 1.37-1.95 1.72-3.32 1.41-2.11-.47-3.2-.28-3.71.9-.2.35-.2.31-.39-.12-.63-1.68.63-3.75 2.42-4.02 2.46-.39 2.97-1.17 2.97-1.92 0-.31-.04-.31-.31-.12-1.17.86-2.58.55-3.63-.43-1.6-1.49-2.62-1.84-3.71-1.1-.31.2-.35.16-.31-.28.24-1.8 2.42-2.93 4.1-2.31 2.38.9 3.2.47 3.52-.16.16-.24.12-.31-.2-.28-1.49.12-2.46-.82-2.89-2.19-.63-2.07-1.37-2.89-2.62-2.81-.39.04-.39-.04-.12-.39 1.1-1.45 3.56-1.33 4.65.08 1.56 1.95 2.5 1.95 3.16 1.64.24-.16.24-.2-.04-.35-1.37-.63-1.72-1.95-1.41-3.32.47-2.11.28-3.2-.9-3.71-.35-.2-.31-.2.12-.39 1.68-.67 3.71.63 4.02 2.42.39 2.46 1.17 2.97 1.92 2.97.31 0 .31-.04.12-.31-.86-1.17-.55-2.58.43-3.63 1.49-1.64 1.84-2.62 1.1-3.71-.2-.31-.16-.35.28-.31 1.84.24 2.97 2.42 2.34 4.1-.9 2.38-.47 3.2.16 3.52.24.16.31.12.28-.2-.12-1.49.82-2.46 2.19-2.89 2.07-.63 2.89-1.37 2.81-2.62-.04-.39.04-.39.39-.12 1.37 1.1 1.25 3.56-.12 4.65z"/></svg>