<svg fill="currentColor" viewBox="0 0 32 32" xmlns="http://www.w3.org/2000/svg"><path d="m22.8 18.63c-.25-.05-.5.12-.54.38-.14.8-.84 1.65-1.74 1.87v-6.9c0-.26-.21-.47-.47-.47s-.47.21-.47.47v17.56c0 .26.21.47.47.47s.47-.21.47-.47v-9.71c1.28-.22 2.42-1.33 2.66-2.66.05-.25-.12-.5-.38-.54z"/><path d="m24.78 10.81c-.21 0-.45.01-.72.04-.26.02-.45.25-.42.51.02.26.25.45.51.42.24-.02.45-.03.63-.03 1.98 0 5.61 1.11 5.61 2.91v6.08c0 .87-.85 1.39-1.77 1.52v-6.25c0-.26-.21-.47-.47-.47s-.47.21-.47.47v15.53c0 .26.21.47.47.47s.47-.21.47-.47v-8.34c1.38-.16 2.7-1.01 2.7-2.46v-6.08c0-2.56-4.2-3.84-6.54-3.84z"/><path d="m12.83 4.5c-.08 1.68 1.23 3.11 2.92 3.19h.25.12c.76 0 1.49-.28 2.06-.8.6-.55.95-1.3.99-2.12 0-.09 0-.18 0-.25v-1.33c.04-.82-.25-1.6-.8-2.2-.55-.6-1.3-.95-2.12-.99-.08 0-.17 0-.25 0-.81-.03-1.58.25-2.18.8s-.95 1.3-.99 2.12v.25zm.93-1.54c.03-.57.27-1.09.69-1.47s.96-.58 1.53-.55h.04.19c.57.03 1.09.27 1.47.69s.58.96.55 1.55v1.37.19c-.03.57-.27 1.09-.69 1.47s-.96.58-1.53.55c0 0-.01 0-.02 0s-.01 0-.02 0c-.06 0-.13 0-.19 0-1.17-.05-2.08-1.05-2.03-2.24v-1.37c0-.06 0-.13 0-.19z"/><path d="m11.95 13.51c-.26 0-.47.21-.47.47v6.91c-1.01-.25-1.77-1.3-1.77-2.18v-6.08c0-1.04 1.4-1.76 2.23-2.09 1.4-.57 3.05-.82 4.06-.82 2.37 0 6.08 1.1 6.28 2.77.03.26.26.44.52.41s.44-.26.41-.52c-.3-2.51-4.92-3.59-7.21-3.59-2.12 0-7.22 1.11-7.22 3.84v6.08c0 1.5 1.24 2.88 2.7 3.12v9.7c0 .26.21.47.47.47s.47-.21.47-.47v-17.55c0-.26-.21-.47-.47-.47z"/><path d="m16 20.26c-.26 0-.47.21-.47.47v10.8c0 .26.21.47.47.47s.47-.21.47-.47v-10.8c0-.26-.21-.47-.47-.47z"/><path d="m24.53 9.72h.25.12c.76 0 1.49-.28 2.06-.8.6-.55.95-1.3.99-2.12 0-.09 0-.18 0-.25v-1.35c0-1.75-1.42-3.17-3.17-3.17s-3.17 1.42-3.17 3.17v1.33c-.07 1.68 1.23 3.11 2.92 3.19zm-1.98-4.52c0-1.23 1-2.24 2.24-2.24s2.24 1 2.24 2.24v1.37.19c-.03.57-.27 1.09-.69 1.47s-.96.58-1.53.55c0 0-.01 0-.02 0s-.01 0-.02 0c-.06 0-.13 0-.19 0-1.17-.05-2.08-1.05-2.03-2.24v-1.35z"/><path d="m7.94 10.85c-.26-.02-.5-.04-.72-.04-2.35 0-6.54 1.28-6.54 3.84v6.08c0 1.45 1.32 2.31 2.7 2.46v8.34c0 .26.21.47.47.47s.47-.21.47-.47v-15.53c0-.26-.21-.47-.47-.47s-.47.21-.47.47v6.25c-.92-.13-1.77-.66-1.77-1.52v-6.08c0-1.81 3.63-2.91 5.61-2.91.19 0 .4.01.63.03.26.02.48-.16.51-.42.02-.26-.17-.48-.42-.51z"/><path d="m4.05 6.8c.04.82.39 1.57.99 2.12.57.52 1.29.8 2.06.8h.12.25c1.68-.08 2.99-1.51 2.92-3.17v-1.33c0-.09 0-.18 0-.27-.04-.82-.39-1.57-.99-2.12s-1.37-.83-2.18-.8c-.08 0-.17 0-.25 0-1.68.08-2.99 1.51-2.92 3.17v1.33zm.93-1.62c-.05-1.17.86-2.16 2.03-2.22h.09s.06 0 .09 0h.04c1.17-.05 2.16.86 2.22 2.03v.21 1.37c.05 1.17-.86 2.16-2.03 2.22-.06 0-.13 0-.19 0-.01 0-.03 0-.04 0-.57.03-1.11-.17-1.53-.55s-.66-.91-.69-1.47c0-.06 0-.13 0-.21v-1.37z"/><path d="m22.75 15.27c-.26 0-.46.21-.46.47s.21.47.47.47c.26 0 .46-.21.46-.47 0-.12-.05-.24-.14-.33s-.21-.14-.33-.14z"/></svg>