<svg fill="currentColor" viewBox="0 0 32 32" xmlns="http://www.w3.org/2000/svg"><path d="m27.57 3.86h-23.14c-2.44 0-4.43 1.99-4.43 4.43v15.43c0 2.44 1.99 4.43 4.43 4.43h23.14c2.44 0 4.43-1.99 4.43-4.43v-15.43c0-2.44-1.99-4.43-4.43-4.43zm-23.14 2.37h23.14c.55 0 1.04.22 1.41.57l-12.11 10.57c-.48.42-1.2.42-1.68 0l-12.12-10.62c.36-.32.84-.53 1.36-.53zm23.14 19.55h-23.14c-1.14 0-2.06-.93-2.06-2.06v-14.42l11.26 9.87c.68.59 1.54.89 2.39.89s1.71-.3 2.4-.89l11.21-9.79v14.34c0 1.14-.93 2.06-2.06 2.06z"/></svg>