<svg  fill="currentColor" viewBox="0 0 32 32" xmlns="http://www.w3.org/2000/svg"><path d="m28.83 21.49c-.12.12-.18.28-.18.44 0 .35.28.64.63.64.17 0 .33-.07.45-.18.12-.12.18-.28.18-.45s-.07-.33-.19-.45c-.25-.24-.65-.24-.89 0z"/><path d="m30.88 13.37h-11.62l7.63-7.79c.84-.86.83-2.24-.03-3.08l-.18-.18h-.03c-.86-.65-2.1-.58-2.87.21l-9.35 9.55c-.35.36-.55.82-.6 1.29h-12.71c-.62 0-1.12.5-1.12 1.12v2.12c0 .62.5 1.12 1.12 1.12h.44l1.1 9.22c.22 1.81 1.76 3.17 3.58 3.17h19.52c1.82 0 3.36-1.37 3.58-3.17l.24-1.98c.04-.35-.2-.66-.55-.7-.34-.04-.66.2-.7.55l-.24 1.98c-.14 1.18-1.14 2.06-2.33 2.07h-19.52c-1.19 0-2.19-.89-2.33-2.07l-1.09-9.07h26.35l-.17 1.37c-.04.35.2.66.55.7.34.04.66-.2.7-.55l.18-1.52h.43c.62 0 1.12-.5 1.12-1.12v-2.12c0-.62-.5-1.12-1.12-1.12zm-15.56-.41 9.35-9.55c.18-.18.42-.28.66-.28s.46.09.64.26l.05.05c.31.36.3.9-.04 1.25l-8.5 8.67h-.04v.04l-.82.84c-.35.36-.94.37-1.3.02s-.37-.94-.02-1.3zm15.42 3.51h-29.48v-1.84h12.81c.1.19.22.37.39.53.42.41.97.62 1.52.62s1.13-.22 1.56-.65l.49-.5h12.72v1.84z"/><path d="m9.81 18.45c-1.2 0-2.18.98-2.18 2.18v5.33c0 .58.23 1.13.64 1.54s.96.64 1.54.64c1.2 0 2.18-.98 2.18-2.18v-5.33c0-1.2-.98-2.18-2.18-2.18zm.92 2.18v5.33c0 .25-.1.48-.27.65s-.4.27-.65.27c-.25 0-.48-.1-.65-.27s-.27-.4-.27-.65v-5.33c0-.51.41-.92.92-.92v-.63s0 .63 0 .63c.51 0 .92.41.92.92z"/><path d="m16 18.45c-1.2 0-2.18.98-2.18 2.18v5.33c0 1.2.98 2.18 2.18 2.18 1.2 0 2.18-.98 2.18-2.18v-5.33c0-.58-.23-1.13-.64-1.54s-.96-.64-1.54-.64zm.92 2.18v5.33c0 .25-.1.48-.27.65s-.4.27-.65.27c-.51 0-.92-.41-.92-.92v-5.33c0-.25.1-.48.27-.65s.4-.27.65-.27v-.63s0 .63 0 .63c.25 0 .48.1.65.27s.27.4.27.65z"/><path d="m22.2 18.45c-1.2 0-2.18.98-2.18 2.18v5.33c0 1.2.98 2.18 2.18 2.18 1.2 0 2.18-.98 2.18-2.18v-5.33c0-1.2-.98-2.18-2.18-2.18zm.92 2.18v5.33c0 .51-.41.92-.92.92-.51 0-.92-.41-.92-.92v-5.33c0-.51.41-.92.92-.92v-.63s0 .63 0 .63c.51 0 .92.41.92.92z"/></svg>