<svg fill="currentColor" viewBox="0 0 32 32" xmlns="http://www.w3.org/2000/svg"><path d="m25.87 9.64c-.57-1.1-2.13-1.44-3.53-1.52 1.15-.76 2.29-1.83 2.24-3.05 0-.13-.08-.26-.19-.33-1.04-.66-2.56-.19-3.82.45.61-1.24 1.07-2.74.42-3.77-.07-.11-.2-.19-.33-.19-1.23-.05-2.31 1.12-3.08 2.3-.09-1.39-.44-2.91-1.52-3.47-.12-.06-.26-.06-.38 0-1.09.57-1.44 2.11-1.52 3.53-.77-1.16-1.83-2.29-3.04-2.24-.13 0-.26.08-.33.19-.66 1.05-.19 2.57.44 3.82-1.22-.61-2.73-1.07-3.75-.42-.11.07-.18.2-.19.33-.05 1.23 1.13 2.32 2.3 3.09-1.37.09-2.9.44-3.47 1.52-.06.12-.06.26 0 .38.57 1.09 2.12 1.44 3.52 1.52-1.15.76-2.29 1.83-2.24 3.05 0 .13.08.26.19.33 1.04.66 2.56.18 3.81-.45-.61 1.24-1.07 2.74-.42 3.77.07.11.2.19.33.19 1.23.06 2.31-1.13 3.07-2.3.08 1.23.37 2.56 1.18 3.24v6.01c-.25-.31-.53-.59-.83-.84-.08-.65-.48-3.08-2.21-4.2-.01 0-.02-.01-.03-.02-1.96-1.24-4.74-.29-4.86-.25-.18.06-.29.23-.27.42 0 .13.26 3.09 2.23 4.36 1.66 1.08 3.92.55 4.66.34.69.57 1.26 1.29 1.26 2.11 0 .09.03.17.07.24v3.8c0 .23.18.41.41.41s.41-.18.41-.41v-3.95s0-.05 0-.07c0-.83.58-1.57 1.27-2.15.74.22 3.03.75 4.71-.34 1.99-1.3 2.24-4.3 2.25-4.43.01-.19-.1-.36-.27-.42-.12-.04-2.97-1.02-4.95.27-1.75 1.14-2.15 3.61-2.23 4.27-.28.23-.55.49-.79.78v-5.76c1.01-.61 1.34-2.12 1.42-3.48.77 1.16 1.84 2.3 3.04 2.25.13 0 .26-.08.33-.19.65-1.02.22-2.5-.45-3.83 1.23.61 2.73 1.07 3.76.42.11-.07.19-.2.19-.33.05-1.24-1.13-2.32-2.3-3.09 1.37-.09 2.9-.44 3.47-1.52.06-.12.06-.26 0-.38zm-13.92 14.44s.67.27 1.42.73c-.89.17-2.29.27-3.32-.39-1.28-.83-1.69-2.67-1.81-3.41.73-.19 2.58-.56 3.86.28 0 0 .02.01.03.02 1 .67 1.46 1.94 1.67 2.81-.79-.49-1.47-.77-1.54-.79-.21-.08-.45.02-.53.23s.02.45.23.53zm7.92-2.89s0 0 0 0c1.3-.85 3.17-.48 3.91-.28-.12.76-.53 2.63-1.84 3.48-1.05.69-2.48.57-3.38.4.76-.48 1.44-.75 1.45-.76.21-.08.31-.32.23-.53s-.32-.31-.53-.23c-.07.03-.77.31-1.57.81.21-.89.68-2.22 1.72-2.89zm3.88-15.86c-.19 1.18-2.14 2.32-2.95 2.75-.22-.57-.54-1.08-.94-1.53.79-.5 2.77-1.65 3.89-1.22zm-3.34-3.27c.29.79-.14 2.21-1.19 3.88-.47-.37-1-.66-1.57-.86.43-.83 1.58-2.82 2.77-3.02zm-4.52-1.15c.92.76.94 3 .9 3.96-.25-.04-.5-.06-.76-.06-.34 0-.7.03-1.03.1-.07-1.6.13-3.37.9-4zm-4.49 1.27c.83.14 1.84 1.23 2.75 2.98-.57.22-1.09.54-1.54.93-.85-1.34-1.56-2.98-1.22-3.91zm-3.26 3.35c.79-.29 2.2.14 3.85 1.19-.38.47-.67 1-.87 1.57-1.75-.92-2.84-1.93-2.99-2.77zm-1.15 4.54c.76-.93 3.04-.94 3.93-.9-.04.25-.06.52-.06.78 0 .35.03.69.1 1.02-.97.04-3.21.02-3.96-.9zm1.27 4.51c.19-1.18 2.13-2.31 2.95-2.75.22.57.54 1.09.93 1.54-.78.5-2.76 1.64-3.88 1.21zm3.34 3.27c-.42-1.12.7-3.08 1.19-3.86.47.37 1 .67 1.57.87-.92 1.76-1.93 2.85-2.76 3zm4.55 1.13s-.05-.02-.08-.02c-.86-.79-.88-2.95-.84-3.89.26.04.52.06.79.06.34 0 .68-.03 1.01-.1.04.94.03 3.17-.87 3.95zm-.14-4.68c-2.39 0-4.34-1.95-4.33-4.34 0-2.39 1.95-4.32 4.33-4.32h.01c2.39 0 4.33 1.96 4.32 4.35 0 2.38-1.95 4.32-4.33 4.32zm4.6 3.43c-.96-.17-2.01-1.57-2.74-2.96.57-.22 1.08-.54 1.53-.93 1.06 1.67 1.49 3.1 1.2 3.89zm3.26-3.35c-.79.29-2.2-.14-3.85-1.19.37-.47.67-1 .87-1.58.82.43 2.78 1.57 2.98 2.76zm-2.77-3.64c.04-.25.06-.5.06-.76 0-.36-.03-.7-.1-1.04 1.97-.09 3.42.24 3.96.9-.54.65-1.97.98-3.92.9z"/><path d="m15 12.05c-.23 0-.41.18-.41.41 0 .23.18.41.41.41.23 0 .41-.18.41-.41s-.18-.41-.41-.41z"/><path d="m13.57 10.65c-.23 0-.41.18-.41.41 0 .23.18.41.41.41.23 0 .41-.18.41-.41s-.18-.41-.41-.41z"/></svg>